<mxfile host="app.diagrams.net" modified="2021-06-27T00:13:37.285Z" agent="5.0 (Macintosh; Intel Mac OS X 10_15_7) AppleWebKit/537.36 (KHTML, like Gecko) Chrome/91.0.4472.114 Safari/537.36" etag="dvwwWir_r4jTfv2vkUS5" version="14.8.1" type="github" pages="4">
  <diagram id="jM5Fc2A8AP4CTM5BD9Co" name="DomainModel">
    <mxGraphModel dx="1351" dy="1977" grid="1" gridSize="10" guides="1" tooltips="1" connect="1" arrows="1" fold="1" page="1" pageScale="1" pageWidth="850" pageHeight="1100" math="0" shadow="0">
      <root>
        <mxCell id="0" />
        <mxCell id="1" parent="0" />
        <mxCell id="aiZAMYwPDv9pJJ5tgWRo-44" value="Belongs to" style="edgeStyle=orthogonalEdgeStyle;rounded=0;orthogonalLoop=1;jettySize=auto;html=1;entryX=0.5;entryY=0;entryDx=0;entryDy=0;" parent="1" source="aiZAMYwPDv9pJJ5tgWRo-29" target="aiZAMYwPDv9pJJ5tgWRo-38" edge="1">
          <mxGeometry relative="1" as="geometry">
            <Array as="points">
              <mxPoint x="360" y="200" />
              <mxPoint x="360" y="200" />
            </Array>
          </mxGeometry>
        </mxCell>
        <mxCell id="aiZAMYwPDv9pJJ5tgWRo-52" value="*" style="edgeLabel;html=1;align=center;verticalAlign=middle;resizable=0;points=[];" parent="aiZAMYwPDv9pJJ5tgWRo-44" vertex="1" connectable="0">
          <mxGeometry x="-0.7037" y="-2" relative="1" as="geometry">
            <mxPoint x="-8" y="-3" as="offset" />
          </mxGeometry>
        </mxCell>
        <mxCell id="aiZAMYwPDv9pJJ5tgWRo-53" value="1" style="edgeLabel;html=1;align=center;verticalAlign=middle;resizable=0;points=[];" parent="aiZAMYwPDv9pJJ5tgWRo-44" vertex="1" connectable="0">
          <mxGeometry x="0.7407" relative="1" as="geometry">
            <mxPoint x="-10" as="offset" />
          </mxGeometry>
        </mxCell>
        <mxCell id="aiZAMYwPDv9pJJ5tgWRo-51" value="is from" style="edgeStyle=orthogonalEdgeStyle;rounded=0;orthogonalLoop=1;jettySize=auto;html=1;" parent="1" source="aiZAMYwPDv9pJJ5tgWRo-29" target="aiZAMYwPDv9pJJ5tgWRo-35" edge="1">
          <mxGeometry y="-9" relative="1" as="geometry">
            <Array as="points">
              <mxPoint x="190" y="109" />
              <mxPoint x="190" y="109" />
            </Array>
            <mxPoint as="offset" />
          </mxGeometry>
        </mxCell>
        <mxCell id="aiZAMYwPDv9pJJ5tgWRo-61" value="*" style="edgeLabel;html=1;align=center;verticalAlign=middle;resizable=0;points=[];" parent="aiZAMYwPDv9pJJ5tgWRo-51" vertex="1" connectable="0">
          <mxGeometry x="-0.75" y="-1" relative="1" as="geometry">
            <mxPoint y="12" as="offset" />
          </mxGeometry>
        </mxCell>
        <mxCell id="aiZAMYwPDv9pJJ5tgWRo-62" value="1" style="edgeLabel;html=1;align=center;verticalAlign=middle;resizable=0;points=[];" parent="aiZAMYwPDv9pJJ5tgWRo-51" vertex="1" connectable="0">
          <mxGeometry x="0.7333" y="3" relative="1" as="geometry">
            <mxPoint x="8" y="8" as="offset" />
          </mxGeometry>
        </mxCell>
        <mxCell id="aiZAMYwPDv9pJJ5tgWRo-29" value="Product" style="swimlane;fontStyle=0;childLayout=stackLayout;horizontal=1;startSize=26;fillColor=none;horizontalStack=0;resizeParent=1;resizeParentMax=0;resizeLast=0;collapsible=1;marginBottom=0;" parent="1" vertex="1">
          <mxGeometry x="290" y="70" width="140" height="156" as="geometry" />
        </mxCell>
        <mxCell id="8OjqPHfHoGTpzfFN36OU-1" value="description" style="text;strokeColor=none;fillColor=none;align=left;verticalAlign=top;spacingLeft=4;spacingRight=4;overflow=hidden;rotatable=0;points=[[0,0.5],[1,0.5]];portConstraint=eastwest;" parent="aiZAMYwPDv9pJJ5tgWRo-29" vertex="1">
          <mxGeometry y="26" width="140" height="26" as="geometry" />
        </mxCell>
        <mxCell id="8OjqPHfHoGTpzfFN36OU-2" value="price" style="text;strokeColor=none;fillColor=none;align=left;verticalAlign=top;spacingLeft=4;spacingRight=4;overflow=hidden;rotatable=0;points=[[0,0.5],[1,0.5]];portConstraint=eastwest;" parent="aiZAMYwPDv9pJJ5tgWRo-29" vertex="1">
          <mxGeometry y="52" width="140" height="26" as="geometry" />
        </mxCell>
        <mxCell id="8OjqPHfHoGTpzfFN36OU-3" value="quantity" style="text;strokeColor=none;fillColor=none;align=left;verticalAlign=top;spacingLeft=4;spacingRight=4;overflow=hidden;rotatable=0;points=[[0,0.5],[1,0.5]];portConstraint=eastwest;" parent="aiZAMYwPDv9pJJ5tgWRo-29" vertex="1">
          <mxGeometry y="78" width="140" height="26" as="geometry" />
        </mxCell>
        <mxCell id="8OjqPHfHoGTpzfFN36OU-4" value="color" style="text;strokeColor=none;fillColor=none;align=left;verticalAlign=top;spacingLeft=4;spacingRight=4;overflow=hidden;rotatable=0;points=[[0,0.5],[1,0.5]];portConstraint=eastwest;" parent="aiZAMYwPDv9pJJ5tgWRo-29" vertex="1">
          <mxGeometry y="104" width="140" height="26" as="geometry" />
        </mxCell>
        <mxCell id="8OjqPHfHoGTpzfFN36OU-5" value="size" style="text;strokeColor=none;fillColor=none;align=left;verticalAlign=top;spacingLeft=4;spacingRight=4;overflow=hidden;rotatable=0;points=[[0,0.5],[1,0.5]];portConstraint=eastwest;" parent="aiZAMYwPDv9pJJ5tgWRo-29" vertex="1">
          <mxGeometry y="130" width="140" height="26" as="geometry" />
        </mxCell>
        <mxCell id="aiZAMYwPDv9pJJ5tgWRo-35" value="Brand" style="swimlane;fontStyle=0;childLayout=stackLayout;horizontal=1;startSize=26;fillColor=none;horizontalStack=0;resizeParent=1;resizeParentMax=0;resizeLast=0;collapsible=1;marginBottom=0;" parent="1" vertex="1">
          <mxGeometry x="20" y="70" width="140" height="78" as="geometry" />
        </mxCell>
        <mxCell id="aiZAMYwPDv9pJJ5tgWRo-36" value="name" style="text;strokeColor=none;fillColor=none;align=left;verticalAlign=top;spacingLeft=4;spacingRight=4;overflow=hidden;rotatable=0;points=[[0,0.5],[1,0.5]];portConstraint=eastwest;" parent="aiZAMYwPDv9pJJ5tgWRo-35" vertex="1">
          <mxGeometry y="26" width="140" height="26" as="geometry" />
        </mxCell>
        <mxCell id="aiZAMYwPDv9pJJ5tgWRo-37" value="brand" style="text;strokeColor=none;fillColor=none;align=left;verticalAlign=top;spacingLeft=4;spacingRight=4;overflow=hidden;rotatable=0;points=[[0,0.5],[1,0.5]];portConstraint=eastwest;" parent="aiZAMYwPDv9pJJ5tgWRo-35" vertex="1">
          <mxGeometry y="52" width="140" height="26" as="geometry" />
        </mxCell>
        <mxCell id="aiZAMYwPDv9pJJ5tgWRo-38" value="Category" style="swimlane;fontStyle=0;childLayout=stackLayout;horizontal=1;startSize=26;fillColor=none;horizontalStack=0;resizeParent=1;resizeParentMax=0;resizeLast=0;collapsible=1;marginBottom=0;" parent="1" vertex="1">
          <mxGeometry x="290" y="310" width="140" height="78" as="geometry" />
        </mxCell>
        <mxCell id="aiZAMYwPDv9pJJ5tgWRo-39" value="name" style="text;strokeColor=none;fillColor=none;align=left;verticalAlign=top;spacingLeft=4;spacingRight=4;overflow=hidden;rotatable=0;points=[[0,0.5],[1,0.5]];portConstraint=eastwest;" parent="aiZAMYwPDv9pJJ5tgWRo-38" vertex="1">
          <mxGeometry y="26" width="140" height="26" as="geometry" />
        </mxCell>
        <mxCell id="aiZAMYwPDv9pJJ5tgWRo-40" value="brand" style="text;strokeColor=none;fillColor=none;align=left;verticalAlign=top;spacingLeft=4;spacingRight=4;overflow=hidden;rotatable=0;points=[[0,0.5],[1,0.5]];portConstraint=eastwest;" parent="aiZAMYwPDv9pJJ5tgWRo-38" vertex="1">
          <mxGeometry y="52" width="140" height="26" as="geometry" />
        </mxCell>
        <mxCell id="aiZAMYwPDv9pJJ5tgWRo-41" value="Promotion" style="swimlane;fontStyle=0;childLayout=stackLayout;horizontal=1;startSize=26;fillColor=none;horizontalStack=0;resizeParent=1;resizeParentMax=0;resizeLast=0;collapsible=1;marginBottom=0;" parent="1" vertex="1">
          <mxGeometry x="620" y="60" width="140" height="78" as="geometry" />
        </mxCell>
        <mxCell id="aiZAMYwPDv9pJJ5tgWRo-42" value="percentage" style="text;strokeColor=none;fillColor=none;align=left;verticalAlign=top;spacingLeft=4;spacingRight=4;overflow=hidden;rotatable=0;points=[[0,0.5],[1,0.5]];portConstraint=eastwest;" parent="aiZAMYwPDv9pJJ5tgWRo-41" vertex="1">
          <mxGeometry y="26" width="140" height="26" as="geometry" />
        </mxCell>
        <mxCell id="aiZAMYwPDv9pJJ5tgWRo-43" value="type" style="text;strokeColor=none;fillColor=none;align=left;verticalAlign=top;spacingLeft=4;spacingRight=4;overflow=hidden;rotatable=0;points=[[0,0.5],[1,0.5]];portConstraint=eastwest;" parent="aiZAMYwPDv9pJJ5tgWRo-41" vertex="1">
          <mxGeometry y="52" width="140" height="26" as="geometry" />
        </mxCell>
        <mxCell id="aiZAMYwPDv9pJJ5tgWRo-45" value="may have a parent" style="edgeStyle=orthogonalEdgeStyle;rounded=0;orthogonalLoop=1;jettySize=auto;html=1;" parent="1" source="aiZAMYwPDv9pJJ5tgWRo-38" target="aiZAMYwPDv9pJJ5tgWRo-38" edge="1">
          <mxGeometry y="50" relative="1" as="geometry">
            <mxPoint as="offset" />
          </mxGeometry>
        </mxCell>
        <mxCell id="aiZAMYwPDv9pJJ5tgWRo-54" value="*" style="edgeLabel;html=1;align=center;verticalAlign=middle;resizable=0;points=[];" parent="aiZAMYwPDv9pJJ5tgWRo-45" vertex="1" connectable="0">
          <mxGeometry x="-0.6333" y="3" relative="1" as="geometry">
            <mxPoint x="-1" y="-6" as="offset" />
          </mxGeometry>
        </mxCell>
        <mxCell id="aiZAMYwPDv9pJJ5tgWRo-55" value="1" style="edgeLabel;html=1;align=center;verticalAlign=middle;resizable=0;points=[];" parent="aiZAMYwPDv9pJJ5tgWRo-45" vertex="1" connectable="0">
          <mxGeometry x="0.3667" relative="1" as="geometry">
            <mxPoint x="-9" y="11" as="offset" />
          </mxGeometry>
        </mxCell>
        <mxCell id="aiZAMYwPDv9pJJ5tgWRo-50" value="maybe be in" style="edgeStyle=orthogonalEdgeStyle;rounded=0;orthogonalLoop=1;jettySize=auto;html=1;entryX=0;entryY=0.5;entryDx=0;entryDy=0;exitX=1;exitY=0.5;exitDx=0;exitDy=0;" parent="1" source="8OjqPHfHoGTpzfFN36OU-2" target="aiZAMYwPDv9pJJ5tgWRo-41" edge="1">
          <mxGeometry x="-0.0708" relative="1" as="geometry">
            <mxPoint as="offset" />
            <mxPoint x="520" y="125" as="sourcePoint" />
            <Array as="points">
              <mxPoint x="520" y="135" />
              <mxPoint x="520" y="99" />
            </Array>
          </mxGeometry>
        </mxCell>
        <mxCell id="aiZAMYwPDv9pJJ5tgWRo-59" value="1" style="edgeLabel;html=1;align=center;verticalAlign=middle;resizable=0;points=[];" parent="aiZAMYwPDv9pJJ5tgWRo-50" vertex="1" connectable="0">
          <mxGeometry x="-0.72" y="2" relative="1" as="geometry">
            <mxPoint x="-4" y="13" as="offset" />
          </mxGeometry>
        </mxCell>
        <mxCell id="aiZAMYwPDv9pJJ5tgWRo-60" value="0,1" style="edgeLabel;html=1;align=center;verticalAlign=middle;resizable=0;points=[];" parent="aiZAMYwPDv9pJJ5tgWRo-50" vertex="1" connectable="0">
          <mxGeometry x="0.74" y="1" relative="1" as="geometry">
            <mxPoint y="12" as="offset" />
          </mxGeometry>
        </mxCell>
        <mxCell id="aiZAMYwPDv9pJJ5tgWRo-70" style="edgeStyle=orthogonalEdgeStyle;rounded=0;orthogonalLoop=1;jettySize=auto;html=1;" parent="1" source="aiZAMYwPDv9pJJ5tgWRo-63" target="aiZAMYwPDv9pJJ5tgWRo-67" edge="1">
          <mxGeometry relative="1" as="geometry" />
        </mxCell>
        <mxCell id="aiZAMYwPDv9pJJ5tgWRo-71" value="becomes" style="edgeLabel;html=1;align=center;verticalAlign=middle;resizable=0;points=[];" parent="aiZAMYwPDv9pJJ5tgWRo-70" vertex="1" connectable="0">
          <mxGeometry x="-0.197" y="-1" relative="1" as="geometry">
            <mxPoint x="3" y="1" as="offset" />
          </mxGeometry>
        </mxCell>
        <mxCell id="aiZAMYwPDv9pJJ5tgWRo-72" value="1" style="edgeLabel;html=1;align=center;verticalAlign=middle;resizable=0;points=[];" parent="aiZAMYwPDv9pJJ5tgWRo-70" vertex="1" connectable="0">
          <mxGeometry x="-0.7576" y="-1" relative="1" as="geometry">
            <mxPoint x="18" y="11" as="offset" />
          </mxGeometry>
        </mxCell>
        <mxCell id="aiZAMYwPDv9pJJ5tgWRo-73" value="1" style="edgeLabel;html=1;align=center;verticalAlign=middle;resizable=0;points=[];" parent="aiZAMYwPDv9pJJ5tgWRo-70" vertex="1" connectable="0">
          <mxGeometry x="0.6667" y="1" relative="1" as="geometry">
            <mxPoint x="9" y="19" as="offset" />
          </mxGeometry>
        </mxCell>
        <mxCell id="aiZAMYwPDv9pJJ5tgWRo-86" style="edgeStyle=orthogonalEdgeStyle;rounded=0;orthogonalLoop=1;jettySize=auto;html=1;" parent="1" source="aiZAMYwPDv9pJJ5tgWRo-63" target="aiZAMYwPDv9pJJ5tgWRo-29" edge="1">
          <mxGeometry relative="1" as="geometry">
            <mxPoint x="630" y="278" as="targetPoint" />
            <Array as="points">
              <mxPoint x="630" y="290" />
              <mxPoint x="410" y="290" />
            </Array>
          </mxGeometry>
        </mxCell>
        <mxCell id="aiZAMYwPDv9pJJ5tgWRo-87" value="contains" style="edgeLabel;html=1;align=center;verticalAlign=middle;resizable=0;points=[];" parent="aiZAMYwPDv9pJJ5tgWRo-86" vertex="1" connectable="0">
          <mxGeometry x="-0.2075" relative="1" as="geometry">
            <mxPoint x="43" y="50" as="offset" />
          </mxGeometry>
        </mxCell>
        <mxCell id="aiZAMYwPDv9pJJ5tgWRo-88" value="*" style="edgeLabel;html=1;align=center;verticalAlign=middle;resizable=0;points=[];" parent="aiZAMYwPDv9pJJ5tgWRo-86" vertex="1" connectable="0">
          <mxGeometry x="-0.7857" y="1" relative="1" as="geometry">
            <mxPoint x="11" y="27" as="offset" />
          </mxGeometry>
        </mxCell>
        <mxCell id="aiZAMYwPDv9pJJ5tgWRo-90" value="*" style="edgeLabel;html=1;align=center;verticalAlign=middle;resizable=0;points=[];" parent="aiZAMYwPDv9pJJ5tgWRo-86" vertex="1" connectable="0">
          <mxGeometry x="0.6939" y="-1" relative="1" as="geometry">
            <mxPoint x="9" y="-47" as="offset" />
          </mxGeometry>
        </mxCell>
        <mxCell id="aiZAMYwPDv9pJJ5tgWRo-63" value="Cart" style="swimlane;fontStyle=0;childLayout=stackLayout;horizontal=1;startSize=26;fillColor=none;horizontalStack=0;resizeParent=1;resizeParentMax=0;resizeLast=0;collapsible=1;marginBottom=0;" parent="1" vertex="1">
          <mxGeometry x="560" y="374" width="140" height="52" as="geometry" />
        </mxCell>
        <mxCell id="aiZAMYwPDv9pJJ5tgWRo-105" style="edgeStyle=orthogonalEdgeStyle;rounded=0;orthogonalLoop=1;jettySize=auto;html=1;" parent="1" source="aiZAMYwPDv9pJJ5tgWRo-67" target="aiZAMYwPDv9pJJ5tgWRo-98" edge="1">
          <mxGeometry relative="1" as="geometry">
            <Array as="points">
              <mxPoint x="360" y="706" />
            </Array>
          </mxGeometry>
        </mxCell>
        <mxCell id="aiZAMYwPDv9pJJ5tgWRo-106" value="is sent to" style="edgeLabel;html=1;align=center;verticalAlign=middle;resizable=0;points=[];" parent="aiZAMYwPDv9pJJ5tgWRo-105" vertex="1" connectable="0">
          <mxGeometry x="0.29" y="2" relative="1" as="geometry">
            <mxPoint x="-14.17" y="-11" as="offset" />
          </mxGeometry>
        </mxCell>
        <mxCell id="aiZAMYwPDv9pJJ5tgWRo-107" value="*" style="edgeLabel;html=1;align=center;verticalAlign=middle;resizable=0;points=[];" parent="aiZAMYwPDv9pJJ5tgWRo-105" vertex="1" connectable="0">
          <mxGeometry x="-0.81" relative="1" as="geometry">
            <mxPoint x="9.969999999999999" y="-50.86" as="offset" />
          </mxGeometry>
        </mxCell>
        <mxCell id="aiZAMYwPDv9pJJ5tgWRo-108" value="1" style="edgeLabel;html=1;align=center;verticalAlign=middle;resizable=0;points=[];" parent="aiZAMYwPDv9pJJ5tgWRo-105" vertex="1" connectable="0">
          <mxGeometry x="0.74" relative="1" as="geometry">
            <mxPoint x="66.17" y="11" as="offset" />
          </mxGeometry>
        </mxCell>
        <mxCell id="Ufck2OuKpfytU-uxMoIB-21" style="edgeStyle=orthogonalEdgeStyle;rounded=0;orthogonalLoop=1;jettySize=auto;html=1;" parent="1" source="aiZAMYwPDv9pJJ5tgWRo-67" target="Ufck2OuKpfytU-uxMoIB-13" edge="1">
          <mxGeometry relative="1" as="geometry">
            <Array as="points">
              <mxPoint x="310" y="606" />
              <mxPoint x="310" y="606" />
            </Array>
          </mxGeometry>
        </mxCell>
        <mxCell id="Ufck2OuKpfytU-uxMoIB-22" value="sent to &lt;br&gt;customer using" style="edgeLabel;html=1;align=center;verticalAlign=middle;resizable=0;points=[];" parent="Ufck2OuKpfytU-uxMoIB-21" vertex="1" connectable="0">
          <mxGeometry x="0.0377" relative="1" as="geometry">
            <mxPoint y="-22.139999999999997" as="offset" />
          </mxGeometry>
        </mxCell>
        <mxCell id="Ufck2OuKpfytU-uxMoIB-35" value="*" style="edgeLabel;html=1;align=center;verticalAlign=middle;resizable=0;points=[];" parent="Ufck2OuKpfytU-uxMoIB-21" vertex="1" connectable="0">
          <mxGeometry x="-0.861" relative="1" as="geometry">
            <mxPoint x="11" y="-4.57" as="offset" />
          </mxGeometry>
        </mxCell>
        <mxCell id="Ufck2OuKpfytU-uxMoIB-36" value="1" style="edgeLabel;html=1;align=center;verticalAlign=middle;resizable=0;points=[];" parent="Ufck2OuKpfytU-uxMoIB-21" vertex="1" connectable="0">
          <mxGeometry x="0.6898" y="-2" relative="1" as="geometry">
            <mxPoint x="-26" y="16" as="offset" />
          </mxGeometry>
        </mxCell>
        <mxCell id="aiZAMYwPDv9pJJ5tgWRo-67" value="Order" style="swimlane;fontStyle=0;childLayout=stackLayout;horizontal=1;startSize=26;fillColor=none;horizontalStack=0;resizeParent=1;resizeParentMax=0;resizeLast=0;collapsible=1;marginBottom=0;" parent="1" vertex="1">
          <mxGeometry x="290" y="432" width="140" height="104" as="geometry" />
        </mxCell>
        <mxCell id="BHPApRS6NY9YM1LQk63W-1" value="value" style="text;strokeColor=none;fillColor=none;align=left;verticalAlign=top;spacingLeft=4;spacingRight=4;overflow=hidden;rotatable=0;points=[[0,0.5],[1,0.5]];portConstraint=eastwest;" parent="aiZAMYwPDv9pJJ5tgWRo-67" vertex="1">
          <mxGeometry y="26" width="140" height="26" as="geometry" />
        </mxCell>
        <mxCell id="aiZAMYwPDv9pJJ5tgWRo-68" value="date" style="text;strokeColor=none;fillColor=none;align=left;verticalAlign=top;spacingLeft=4;spacingRight=4;overflow=hidden;rotatable=0;points=[[0,0.5],[1,0.5]];portConstraint=eastwest;" parent="aiZAMYwPDv9pJJ5tgWRo-67" vertex="1">
          <mxGeometry y="52" width="140" height="26" as="geometry" />
        </mxCell>
        <mxCell id="BHPApRS6NY9YM1LQk63W-2" value="status" style="text;strokeColor=none;fillColor=none;align=left;verticalAlign=top;spacingLeft=4;spacingRight=4;overflow=hidden;rotatable=0;points=[[0,0.5],[1,0.5]];portConstraint=eastwest;" parent="aiZAMYwPDv9pJJ5tgWRo-67" vertex="1">
          <mxGeometry y="78" width="140" height="26" as="geometry" />
        </mxCell>
        <mxCell id="aiZAMYwPDv9pJJ5tgWRo-78" style="edgeStyle=orthogonalEdgeStyle;rounded=0;orthogonalLoop=1;jettySize=auto;html=1;" parent="1" source="aiZAMYwPDv9pJJ5tgWRo-74" target="aiZAMYwPDv9pJJ5tgWRo-63" edge="1">
          <mxGeometry relative="1" as="geometry">
            <Array as="points">
              <mxPoint x="750" y="446" />
              <mxPoint x="750" y="446" />
            </Array>
          </mxGeometry>
        </mxCell>
        <mxCell id="aiZAMYwPDv9pJJ5tgWRo-79" value="owns" style="edgeLabel;html=1;align=center;verticalAlign=middle;resizable=0;points=[];" parent="aiZAMYwPDv9pJJ5tgWRo-78" vertex="1" connectable="0">
          <mxGeometry x="0.2194" relative="1" as="geometry">
            <mxPoint x="10.829999999999998" y="-9" as="offset" />
          </mxGeometry>
        </mxCell>
        <mxCell id="aiZAMYwPDv9pJJ5tgWRo-80" value="1" style="edgeLabel;html=1;align=center;verticalAlign=middle;resizable=0;points=[];" parent="aiZAMYwPDv9pJJ5tgWRo-78" vertex="1" connectable="0">
          <mxGeometry x="0.8974" y="1" relative="1" as="geometry">
            <mxPoint x="15" y="-10" as="offset" />
          </mxGeometry>
        </mxCell>
        <mxCell id="aiZAMYwPDv9pJJ5tgWRo-81" value="1" style="edgeLabel;html=1;align=center;verticalAlign=middle;resizable=0;points=[];" parent="aiZAMYwPDv9pJJ5tgWRo-78" vertex="1" connectable="0">
          <mxGeometry x="-0.9088" y="1" relative="1" as="geometry">
            <mxPoint x="9" y="5" as="offset" />
          </mxGeometry>
        </mxCell>
        <mxCell id="aiZAMYwPDv9pJJ5tgWRo-94" style="edgeStyle=orthogonalEdgeStyle;rounded=0;orthogonalLoop=1;jettySize=auto;html=1;" parent="1" source="aiZAMYwPDv9pJJ5tgWRo-74" target="aiZAMYwPDv9pJJ5tgWRo-82" edge="1">
          <mxGeometry relative="1" as="geometry" />
        </mxCell>
        <mxCell id="aiZAMYwPDv9pJJ5tgWRo-95" value="owns" style="edgeLabel;html=1;align=center;verticalAlign=middle;resizable=0;points=[];" parent="aiZAMYwPDv9pJJ5tgWRo-94" vertex="1" connectable="0">
          <mxGeometry x="-0.1398" y="-1" relative="1" as="geometry">
            <mxPoint x="17" as="offset" />
          </mxGeometry>
        </mxCell>
        <mxCell id="aiZAMYwPDv9pJJ5tgWRo-96" value="1" style="edgeLabel;html=1;align=center;verticalAlign=middle;resizable=0;points=[];" parent="aiZAMYwPDv9pJJ5tgWRo-94" vertex="1" connectable="0">
          <mxGeometry x="0.6452" y="-1" relative="1" as="geometry">
            <mxPoint x="9" as="offset" />
          </mxGeometry>
        </mxCell>
        <mxCell id="aiZAMYwPDv9pJJ5tgWRo-97" value="1" style="edgeLabel;html=1;align=center;verticalAlign=middle;resizable=0;points=[];" parent="aiZAMYwPDv9pJJ5tgWRo-94" vertex="1" connectable="0">
          <mxGeometry x="-0.7312" y="-1" relative="1" as="geometry">
            <mxPoint x="9" as="offset" />
          </mxGeometry>
        </mxCell>
        <mxCell id="aiZAMYwPDv9pJJ5tgWRo-101" style="edgeStyle=orthogonalEdgeStyle;rounded=0;orthogonalLoop=1;jettySize=auto;html=1;entryX=0.75;entryY=0;entryDx=0;entryDy=0;" parent="1" source="aiZAMYwPDv9pJJ5tgWRo-74" target="aiZAMYwPDv9pJJ5tgWRo-98" edge="1">
          <mxGeometry relative="1" as="geometry">
            <Array as="points">
              <mxPoint x="905" y="480" />
              <mxPoint x="905" y="480" />
            </Array>
          </mxGeometry>
        </mxCell>
        <mxCell id="aiZAMYwPDv9pJJ5tgWRo-102" value="orders to" style="edgeLabel;html=1;align=center;verticalAlign=middle;resizable=0;points=[];" parent="aiZAMYwPDv9pJJ5tgWRo-101" vertex="1" connectable="0">
          <mxGeometry x="-0.147" y="1" relative="1" as="geometry">
            <mxPoint x="29" as="offset" />
          </mxGeometry>
        </mxCell>
        <mxCell id="aiZAMYwPDv9pJJ5tgWRo-103" value="1" style="edgeLabel;html=1;align=center;verticalAlign=middle;resizable=0;points=[];" parent="aiZAMYwPDv9pJJ5tgWRo-101" vertex="1" connectable="0">
          <mxGeometry x="-0.7665" relative="1" as="geometry">
            <mxPoint x="15" y="-6" as="offset" />
          </mxGeometry>
        </mxCell>
        <mxCell id="aiZAMYwPDv9pJJ5tgWRo-104" value="+" style="edgeLabel;html=1;align=center;verticalAlign=middle;resizable=0;points=[];" parent="aiZAMYwPDv9pJJ5tgWRo-101" vertex="1" connectable="0">
          <mxGeometry x="0.38" relative="1" as="geometry">
            <mxPoint x="10" as="offset" />
          </mxGeometry>
        </mxCell>
        <mxCell id="aiZAMYwPDv9pJJ5tgWRo-118" style="edgeStyle=orthogonalEdgeStyle;rounded=0;orthogonalLoop=1;jettySize=auto;html=1;entryX=1;entryY=0.5;entryDx=0;entryDy=0;" parent="1" source="aiZAMYwPDv9pJJ5tgWRo-74" target="aiZAMYwPDv9pJJ5tgWRo-110" edge="1">
          <mxGeometry relative="1" as="geometry">
            <Array as="points">
              <mxPoint x="820" y="532" />
            </Array>
          </mxGeometry>
        </mxCell>
        <mxCell id="aiZAMYwPDv9pJJ5tgWRo-119" value="performs" style="edgeLabel;html=1;align=center;verticalAlign=middle;resizable=0;points=[];" parent="aiZAMYwPDv9pJJ5tgWRo-118" vertex="1" connectable="0">
          <mxGeometry x="0.1218" relative="1" as="geometry">
            <mxPoint y="-18.33" as="offset" />
          </mxGeometry>
        </mxCell>
        <mxCell id="aiZAMYwPDv9pJJ5tgWRo-120" value="1" style="edgeLabel;html=1;align=center;verticalAlign=middle;resizable=0;points=[];" parent="aiZAMYwPDv9pJJ5tgWRo-118" vertex="1" connectable="0">
          <mxGeometry x="-0.7998" y="-2" relative="1" as="geometry">
            <mxPoint x="12" y="-12" as="offset" />
          </mxGeometry>
        </mxCell>
        <mxCell id="aiZAMYwPDv9pJJ5tgWRo-121" value="*" style="edgeLabel;html=1;align=center;verticalAlign=middle;resizable=0;points=[];" parent="aiZAMYwPDv9pJJ5tgWRo-118" vertex="1" connectable="0">
          <mxGeometry x="0.7498" y="2" relative="1" as="geometry">
            <mxPoint x="-3.400000000000002" y="12.000000000000002" as="offset" />
          </mxGeometry>
        </mxCell>
        <mxCell id="7MUdz9QiMgiHFCFw__s5-1" style="edgeStyle=orthogonalEdgeStyle;rounded=0;orthogonalLoop=1;jettySize=auto;html=1;entryX=0;entryY=0.5;entryDx=0;entryDy=0;endArrow=classic;endFill=1;" parent="1" source="aiZAMYwPDv9pJJ5tgWRo-74" target="D13GknXC-InH7m7zbP-G-1" edge="1">
          <mxGeometry relative="1" as="geometry" />
        </mxCell>
        <mxCell id="aiZAMYwPDv9pJJ5tgWRo-74" value="Customer" style="swimlane;fontStyle=0;childLayout=stackLayout;horizontal=1;startSize=26;fillColor=none;horizontalStack=0;resizeParent=1;resizeParentMax=0;resizeLast=0;collapsible=1;marginBottom=0;" parent="1" vertex="1">
          <mxGeometry x="790" y="270" width="140" height="104" as="geometry" />
        </mxCell>
        <mxCell id="aiZAMYwPDv9pJJ5tgWRo-76" value="name" style="text;strokeColor=none;fillColor=none;align=left;verticalAlign=top;spacingLeft=4;spacingRight=4;overflow=hidden;rotatable=0;points=[[0,0.5],[1,0.5]];portConstraint=eastwest;" parent="aiZAMYwPDv9pJJ5tgWRo-74" vertex="1">
          <mxGeometry y="26" width="140" height="26" as="geometry" />
        </mxCell>
        <mxCell id="aiZAMYwPDv9pJJ5tgWRo-77" value="email" style="text;strokeColor=none;fillColor=none;align=left;verticalAlign=top;spacingLeft=4;spacingRight=4;overflow=hidden;rotatable=0;points=[[0,0.5],[1,0.5]];portConstraint=eastwest;" parent="aiZAMYwPDv9pJJ5tgWRo-74" vertex="1">
          <mxGeometry y="52" width="140" height="26" as="geometry" />
        </mxCell>
        <mxCell id="FANN0A2h5gPSxifdkaLM-4" value="discountCard" style="text;strokeColor=none;fillColor=none;align=left;verticalAlign=top;spacingLeft=4;spacingRight=4;overflow=hidden;rotatable=0;points=[[0,0.5],[1,0.5]];portConstraint=eastwest;" parent="aiZAMYwPDv9pJJ5tgWRo-74" vertex="1">
          <mxGeometry y="78" width="140" height="26" as="geometry" />
        </mxCell>
        <mxCell id="aiZAMYwPDv9pJJ5tgWRo-91" style="edgeStyle=orthogonalEdgeStyle;rounded=0;orthogonalLoop=1;jettySize=auto;html=1;entryX=1;entryY=0.5;entryDx=0;entryDy=0;" parent="1" source="aiZAMYwPDv9pJJ5tgWRo-82" target="8OjqPHfHoGTpzfFN36OU-4" edge="1">
          <mxGeometry relative="1" as="geometry">
            <Array as="points">
              <mxPoint x="520" y="220" />
              <mxPoint x="520" y="187" />
            </Array>
            <mxPoint x="700" y="187" as="targetPoint" />
          </mxGeometry>
        </mxCell>
        <mxCell id="aiZAMYwPDv9pJJ5tgWRo-92" value="contains" style="edgeLabel;html=1;align=center;verticalAlign=middle;resizable=0;points=[];" parent="aiZAMYwPDv9pJJ5tgWRo-91" vertex="1" connectable="0">
          <mxGeometry x="-0.4362" relative="1" as="geometry">
            <mxPoint x="-37" y="-20" as="offset" />
          </mxGeometry>
        </mxCell>
        <mxCell id="aiZAMYwPDv9pJJ5tgWRo-93" value="*" style="edgeLabel;html=1;align=center;verticalAlign=middle;resizable=0;points=[];" parent="aiZAMYwPDv9pJJ5tgWRo-91" vertex="1" connectable="0">
          <mxGeometry x="-0.844" y="1" relative="1" as="geometry">
            <mxPoint x="5" y="10" as="offset" />
          </mxGeometry>
        </mxCell>
        <mxCell id="Ufck2OuKpfytU-uxMoIB-2" value="*" style="edgeLabel;html=1;align=center;verticalAlign=middle;resizable=0;points=[];" parent="aiZAMYwPDv9pJJ5tgWRo-91" vertex="1" connectable="0">
          <mxGeometry x="0.7901" y="-1" relative="1" as="geometry">
            <mxPoint y="14" as="offset" />
          </mxGeometry>
        </mxCell>
        <mxCell id="aiZAMYwPDv9pJJ5tgWRo-82" value="Wishlist" style="swimlane;fontStyle=0;childLayout=stackLayout;horizontal=1;startSize=26;fillColor=none;horizontalStack=0;resizeParent=1;resizeParentMax=0;resizeLast=0;collapsible=1;marginBottom=0;" parent="1" vertex="1">
          <mxGeometry x="620" y="190" width="140" height="52" as="geometry" />
        </mxCell>
        <mxCell id="aiZAMYwPDv9pJJ5tgWRo-98" value="Address" style="swimlane;fontStyle=0;childLayout=stackLayout;horizontal=1;startSize=26;fillColor=none;horizontalStack=0;resizeParent=1;resizeParentMax=0;resizeLast=0;collapsible=1;marginBottom=0;" parent="1" vertex="1">
          <mxGeometry x="800" y="566" width="140" height="156" as="geometry" />
        </mxCell>
        <mxCell id="aiZAMYwPDv9pJJ5tgWRo-99" value="deliveryAddress" style="text;strokeColor=none;fillColor=none;align=left;verticalAlign=top;spacingLeft=4;spacingRight=4;overflow=hidden;rotatable=0;points=[[0,0.5],[1,0.5]];portConstraint=eastwest;" parent="aiZAMYwPDv9pJJ5tgWRo-98" vertex="1">
          <mxGeometry y="26" width="140" height="26" as="geometry" />
        </mxCell>
        <mxCell id="aiZAMYwPDv9pJJ5tgWRo-100" value="phone" style="text;strokeColor=none;fillColor=none;align=left;verticalAlign=top;spacingLeft=4;spacingRight=4;overflow=hidden;rotatable=0;points=[[0,0.5],[1,0.5]];portConstraint=eastwest;" parent="aiZAMYwPDv9pJJ5tgWRo-98" vertex="1">
          <mxGeometry y="52" width="140" height="26" as="geometry" />
        </mxCell>
        <mxCell id="FANN0A2h5gPSxifdkaLM-5" value="postalCode" style="text;strokeColor=none;fillColor=none;align=left;verticalAlign=top;spacingLeft=4;spacingRight=4;overflow=hidden;rotatable=0;points=[[0,0.5],[1,0.5]];portConstraint=eastwest;" parent="aiZAMYwPDv9pJJ5tgWRo-98" vertex="1">
          <mxGeometry y="78" width="140" height="26" as="geometry" />
        </mxCell>
        <mxCell id="FANN0A2h5gPSxifdkaLM-6" value="city" style="text;strokeColor=none;fillColor=none;align=left;verticalAlign=top;spacingLeft=4;spacingRight=4;overflow=hidden;rotatable=0;points=[[0,0.5],[1,0.5]];portConstraint=eastwest;" parent="aiZAMYwPDv9pJJ5tgWRo-98" vertex="1">
          <mxGeometry y="104" width="140" height="26" as="geometry" />
        </mxCell>
        <mxCell id="FANN0A2h5gPSxifdkaLM-7" value="country" style="text;strokeColor=none;fillColor=none;align=left;verticalAlign=top;spacingLeft=4;spacingRight=4;overflow=hidden;rotatable=0;points=[[0,0.5],[1,0.5]];portConstraint=eastwest;" parent="aiZAMYwPDv9pJJ5tgWRo-98" vertex="1">
          <mxGeometry y="130" width="140" height="26" as="geometry" />
        </mxCell>
        <mxCell id="aiZAMYwPDv9pJJ5tgWRo-122" style="edgeStyle=orthogonalEdgeStyle;rounded=0;orthogonalLoop=1;jettySize=auto;html=1;entryX=0.5;entryY=0;entryDx=0;entryDy=0;endArrow=none;endFill=0;startArrow=classic;startFill=1;" parent="1" source="aiZAMYwPDv9pJJ5tgWRo-110" target="aiZAMYwPDv9pJJ5tgWRo-114" edge="1">
          <mxGeometry relative="1" as="geometry">
            <Array as="points" />
          </mxGeometry>
        </mxCell>
        <mxCell id="aiZAMYwPDv9pJJ5tgWRo-124" value="*" style="edgeLabel;html=1;align=center;verticalAlign=middle;resizable=0;points=[];" parent="aiZAMYwPDv9pJJ5tgWRo-122" vertex="1" connectable="0">
          <mxGeometry x="-0.6624" y="3" relative="1" as="geometry">
            <mxPoint x="7" y="8" as="offset" />
          </mxGeometry>
        </mxCell>
        <mxCell id="aiZAMYwPDv9pJJ5tgWRo-125" value="1" style="edgeLabel;html=1;align=center;verticalAlign=middle;resizable=0;points=[];" parent="aiZAMYwPDv9pJJ5tgWRo-122" vertex="1" connectable="0">
          <mxGeometry x="0.7827" y="-1" relative="1" as="geometry">
            <mxPoint x="11" as="offset" />
          </mxGeometry>
        </mxCell>
        <mxCell id="aiZAMYwPDv9pJJ5tgWRo-126" value="describes" style="edgeLabel;html=1;align=center;verticalAlign=middle;resizable=0;points=[];" parent="aiZAMYwPDv9pJJ5tgWRo-122" vertex="1" connectable="0">
          <mxGeometry x="0.2131" y="2" relative="1" as="geometry">
            <mxPoint x="-2" y="-5.329999999999998" as="offset" />
          </mxGeometry>
        </mxCell>
        <mxCell id="aiZAMYwPDv9pJJ5tgWRo-131" style="edgeStyle=orthogonalEdgeStyle;rounded=0;orthogonalLoop=1;jettySize=auto;html=1;startArrow=classic;startFill=1;endArrow=none;endFill=0;" parent="1" source="aiZAMYwPDv9pJJ5tgWRo-110" target="aiZAMYwPDv9pJJ5tgWRo-67" edge="1">
          <mxGeometry relative="1" as="geometry">
            <Array as="points">
              <mxPoint x="410" y="546" />
            </Array>
          </mxGeometry>
        </mxCell>
        <mxCell id="aiZAMYwPDv9pJJ5tgWRo-132" value="fulfilled by" style="edgeLabel;html=1;align=center;verticalAlign=middle;resizable=0;points=[];" parent="aiZAMYwPDv9pJJ5tgWRo-131" vertex="1" connectable="0">
          <mxGeometry x="-0.1625" relative="1" as="geometry">
            <mxPoint x="-8.170000000000002" y="-1" as="offset" />
          </mxGeometry>
        </mxCell>
        <mxCell id="FANN0A2h5gPSxifdkaLM-8" value="1" style="edgeLabel;html=1;align=center;verticalAlign=middle;resizable=0;points=[];" parent="aiZAMYwPDv9pJJ5tgWRo-131" vertex="1" connectable="0">
          <mxGeometry x="-0.8855" y="2" relative="1" as="geometry">
            <mxPoint y="7.97" as="offset" />
          </mxGeometry>
        </mxCell>
        <mxCell id="FANN0A2h5gPSxifdkaLM-9" value="1" style="edgeLabel;html=1;align=center;verticalAlign=middle;resizable=0;points=[];" parent="aiZAMYwPDv9pJJ5tgWRo-131" vertex="1" connectable="0">
          <mxGeometry x="0.8365" y="-1" relative="1" as="geometry">
            <mxPoint x="9" as="offset" />
          </mxGeometry>
        </mxCell>
        <mxCell id="7MUdz9QiMgiHFCFw__s5-6" style="edgeStyle=orthogonalEdgeStyle;rounded=0;orthogonalLoop=1;jettySize=auto;html=1;entryX=1;entryY=0.5;entryDx=0;entryDy=0;endArrow=classic;endFill=1;" parent="1" source="aiZAMYwPDv9pJJ5tgWRo-110" target="7MUdz9QiMgiHFCFw__s5-2" edge="1">
          <mxGeometry relative="1" as="geometry">
            <Array as="points">
              <mxPoint x="625" y="480" />
              <mxPoint x="1200" y="480" />
              <mxPoint x="1200" y="319" />
            </Array>
          </mxGeometry>
        </mxCell>
        <mxCell id="7MUdz9QiMgiHFCFw__s5-7" value="paid by" style="edgeLabel;html=1;align=center;verticalAlign=middle;resizable=0;points=[];" parent="7MUdz9QiMgiHFCFw__s5-6" vertex="1" connectable="0">
          <mxGeometry x="-0.5345" y="-2" relative="1" as="geometry">
            <mxPoint x="-58" y="-11" as="offset" />
          </mxGeometry>
        </mxCell>
        <mxCell id="aiZAMYwPDv9pJJ5tgWRo-110" value="Payment" style="swimlane;fontStyle=0;childLayout=stackLayout;horizontal=1;startSize=26;fillColor=none;horizontalStack=0;resizeParent=1;resizeParentMax=0;resizeLast=0;collapsible=1;marginBottom=0;" parent="1" vertex="1">
          <mxGeometry x="555.03" y="506" width="140" height="52" as="geometry" />
        </mxCell>
        <mxCell id="aiZAMYwPDv9pJJ5tgWRo-111" value="amount" style="text;strokeColor=none;fillColor=none;align=left;verticalAlign=top;spacingLeft=4;spacingRight=4;overflow=hidden;rotatable=0;points=[[0,0.5],[1,0.5]];portConstraint=eastwest;" parent="aiZAMYwPDv9pJJ5tgWRo-110" vertex="1">
          <mxGeometry y="26" width="140" height="26" as="geometry" />
        </mxCell>
        <mxCell id="aiZAMYwPDv9pJJ5tgWRo-114" value="PaymentType" style="swimlane;fontStyle=0;childLayout=stackLayout;horizontal=1;startSize=20;fillColor=none;horizontalStack=0;resizeParent=1;resizeParentMax=0;resizeLast=0;collapsible=1;marginBottom=0;" parent="1" vertex="1">
          <mxGeometry x="555.03" y="621" width="140" height="52" as="geometry" />
        </mxCell>
        <mxCell id="Ufck2OuKpfytU-uxMoIB-28" style="edgeStyle=orthogonalEdgeStyle;rounded=0;orthogonalLoop=1;jettySize=auto;html=1;exitX=0;exitY=0.25;exitDx=0;exitDy=0;startArrow=classic;startFill=1;endArrow=none;endFill=0;" parent="1" source="aiZAMYwPDv9pJJ5tgWRo-67" target="Ufck2OuKpfytU-uxMoIB-17" edge="1">
          <mxGeometry relative="1" as="geometry">
            <Array as="points">
              <mxPoint x="80" y="458" />
            </Array>
            <mxPoint x="290" y="463.0000000000002" as="sourcePoint" />
          </mxGeometry>
        </mxCell>
        <mxCell id="Ufck2OuKpfytU-uxMoIB-29" value="converted in" style="edgeLabel;html=1;align=center;verticalAlign=middle;resizable=0;points=[];" parent="Ufck2OuKpfytU-uxMoIB-28" vertex="1" connectable="0">
          <mxGeometry x="-0.1739" y="-1" relative="1" as="geometry">
            <mxPoint x="12.000000000000002" y="-14" as="offset" />
          </mxGeometry>
        </mxCell>
        <mxCell id="Ufck2OuKpfytU-uxMoIB-32" value="1" style="edgeLabel;html=1;align=center;verticalAlign=middle;resizable=0;points=[];" parent="Ufck2OuKpfytU-uxMoIB-28" vertex="1" connectable="0">
          <mxGeometry x="0.587" y="-1" relative="1" as="geometry">
            <mxPoint x="-11" y="-52" as="offset" />
          </mxGeometry>
        </mxCell>
        <mxCell id="Ufck2OuKpfytU-uxMoIB-33" value="1" style="edgeLabel;html=1;align=center;verticalAlign=middle;resizable=0;points=[];" parent="Ufck2OuKpfytU-uxMoIB-28" vertex="1" connectable="0">
          <mxGeometry x="-0.6739" relative="1" as="geometry">
            <mxPoint x="22.5" y="7" as="offset" />
          </mxGeometry>
        </mxCell>
        <mxCell id="sjox--U79Dbx5eUEkW8X-4" style="edgeStyle=orthogonalEdgeStyle;rounded=0;orthogonalLoop=1;jettySize=auto;html=1;startArrow=none;startFill=0;endArrow=classic;endFill=1;" parent="1" source="Ufck2OuKpfytU-uxMoIB-13" target="sjox--U79Dbx5eUEkW8X-2" edge="1">
          <mxGeometry relative="1" as="geometry" />
        </mxCell>
        <mxCell id="sjox--U79Dbx5eUEkW8X-5" value="is" style="edgeLabel;html=1;align=center;verticalAlign=middle;resizable=0;points=[];" parent="sjox--U79Dbx5eUEkW8X-4" vertex="1" connectable="0">
          <mxGeometry x="-0.3647" y="1" relative="1" as="geometry">
            <mxPoint x="-6" y="-14" as="offset" />
          </mxGeometry>
        </mxCell>
        <mxCell id="sjox--U79Dbx5eUEkW8X-6" value="*" style="edgeLabel;html=1;align=center;verticalAlign=middle;resizable=0;points=[];" parent="sjox--U79Dbx5eUEkW8X-4" vertex="1" connectable="0">
          <mxGeometry x="-0.8353" relative="1" as="geometry">
            <mxPoint x="4" y="-12" as="offset" />
          </mxGeometry>
        </mxCell>
        <mxCell id="sjox--U79Dbx5eUEkW8X-7" value="1" style="edgeLabel;html=1;align=center;verticalAlign=middle;resizable=0;points=[];" parent="sjox--U79Dbx5eUEkW8X-4" vertex="1" connectable="0">
          <mxGeometry x="0.8353" y="1" relative="1" as="geometry">
            <mxPoint x="-9" as="offset" />
          </mxGeometry>
        </mxCell>
        <mxCell id="Ufck2OuKpfytU-uxMoIB-13" value="Delivery" style="swimlane;fontStyle=0;childLayout=stackLayout;horizontal=1;startSize=26;fillColor=none;horizontalStack=0;resizeParent=1;resizeParentMax=0;resizeLast=0;collapsible=1;marginBottom=0;" parent="1" vertex="1">
          <mxGeometry x="240" y="723" width="140" height="104" as="geometry" />
        </mxCell>
        <mxCell id="Ufck2OuKpfytU-uxMoIB-16" value="estimatedDeliveryDate" style="text;strokeColor=none;fillColor=none;align=left;verticalAlign=top;spacingLeft=4;spacingRight=4;overflow=hidden;rotatable=0;points=[[0,0.5],[1,0.5]];portConstraint=eastwest;" parent="Ufck2OuKpfytU-uxMoIB-13" vertex="1">
          <mxGeometry y="26" width="140" height="26" as="geometry" />
        </mxCell>
        <mxCell id="h4lCJvUgbCpEjAYFsBIb-5" value="trackingId" style="text;strokeColor=none;fillColor=none;align=left;verticalAlign=top;spacingLeft=4;spacingRight=4;overflow=hidden;rotatable=0;points=[[0,0.5],[1,0.5]];portConstraint=eastwest;" parent="Ufck2OuKpfytU-uxMoIB-13" vertex="1">
          <mxGeometry y="52" width="140" height="26" as="geometry" />
        </mxCell>
        <mxCell id="Ufck2OuKpfytU-uxMoIB-37" value="cost" style="text;strokeColor=none;fillColor=none;align=left;verticalAlign=top;spacingLeft=4;spacingRight=4;overflow=hidden;rotatable=0;points=[[0,0.5],[1,0.5]];portConstraint=eastwest;" parent="Ufck2OuKpfytU-uxMoIB-13" vertex="1">
          <mxGeometry y="78" width="140" height="26" as="geometry" />
        </mxCell>
        <mxCell id="Ufck2OuKpfytU-uxMoIB-17" value="Prescription" style="swimlane;fontStyle=0;childLayout=stackLayout;horizontal=1;startSize=26;fillColor=none;horizontalStack=0;resizeParent=1;resizeParentMax=0;resizeLast=0;collapsible=1;marginBottom=0;" parent="1" vertex="1">
          <mxGeometry x="20" y="180" width="140" height="156" as="geometry" />
        </mxCell>
        <mxCell id="Ufck2OuKpfytU-uxMoIB-18" value="number" style="text;strokeColor=none;fillColor=none;align=left;verticalAlign=top;spacingLeft=4;spacingRight=4;overflow=hidden;rotatable=0;points=[[0,0.5],[1,0.5]];portConstraint=eastwest;" parent="Ufck2OuKpfytU-uxMoIB-17" vertex="1">
          <mxGeometry y="26" width="140" height="26" as="geometry" />
        </mxCell>
        <mxCell id="Ufck2OuKpfytU-uxMoIB-19" value="accessCode" style="text;strokeColor=none;fillColor=none;align=left;verticalAlign=top;spacingLeft=4;spacingRight=4;overflow=hidden;rotatable=0;points=[[0,0.5],[1,0.5]];portConstraint=eastwest;" parent="Ufck2OuKpfytU-uxMoIB-17" vertex="1">
          <mxGeometry y="52" width="140" height="26" as="geometry" />
        </mxCell>
        <mxCell id="Ufck2OuKpfytU-uxMoIB-20" value="optionCode" style="text;strokeColor=none;fillColor=none;align=left;verticalAlign=top;spacingLeft=4;spacingRight=4;overflow=hidden;rotatable=0;points=[[0,0.5],[1,0.5]];portConstraint=eastwest;" parent="Ufck2OuKpfytU-uxMoIB-17" vertex="1">
          <mxGeometry y="78" width="140" height="26" as="geometry" />
        </mxCell>
        <mxCell id="Ufck2OuKpfytU-uxMoIB-30" value="attachment" style="text;strokeColor=none;fillColor=none;align=left;verticalAlign=top;spacingLeft=4;spacingRight=4;overflow=hidden;rotatable=0;points=[[0,0.5],[1,0.5]];portConstraint=eastwest;" parent="Ufck2OuKpfytU-uxMoIB-17" vertex="1">
          <mxGeometry y="104" width="140" height="26" as="geometry" />
        </mxCell>
        <mxCell id="Ufck2OuKpfytU-uxMoIB-31" value="comments" style="text;strokeColor=none;fillColor=none;align=left;verticalAlign=top;spacingLeft=4;spacingRight=4;overflow=hidden;rotatable=0;points=[[0,0.5],[1,0.5]];portConstraint=eastwest;" parent="Ufck2OuKpfytU-uxMoIB-17" vertex="1">
          <mxGeometry y="130" width="140" height="26" as="geometry" />
        </mxCell>
        <mxCell id="_Z9se_bO-7xFQfUbN8kz-10" style="edgeStyle=orthogonalEdgeStyle;rounded=0;orthogonalLoop=1;jettySize=auto;html=1;entryX=0.75;entryY=0;entryDx=0;entryDy=0;" parent="1" source="_Z9se_bO-7xFQfUbN8kz-1" target="aiZAMYwPDv9pJJ5tgWRo-29" edge="1">
          <mxGeometry relative="1" as="geometry" />
        </mxCell>
        <mxCell id="_Z9se_bO-7xFQfUbN8kz-12" value="stores" style="edgeLabel;html=1;align=center;verticalAlign=middle;resizable=0;points=[];" parent="_Z9se_bO-7xFQfUbN8kz-10" vertex="1" connectable="0">
          <mxGeometry x="-0.1553" y="-1" relative="1" as="geometry">
            <mxPoint y="27" as="offset" />
          </mxGeometry>
        </mxCell>
        <mxCell id="_Z9se_bO-7xFQfUbN8kz-13" value="*" style="edgeLabel;html=1;align=center;verticalAlign=middle;resizable=0;points=[];" parent="_Z9se_bO-7xFQfUbN8kz-10" vertex="1" connectable="0">
          <mxGeometry x="0.5265" y="1" relative="1" as="geometry">
            <mxPoint x="9" y="16" as="offset" />
          </mxGeometry>
        </mxCell>
        <mxCell id="_Z9se_bO-7xFQfUbN8kz-14" value="1" style="edgeLabel;html=1;align=center;verticalAlign=middle;resizable=0;points=[];" parent="_Z9se_bO-7xFQfUbN8kz-10" vertex="1" connectable="0">
          <mxGeometry x="-0.3447" y="-1" relative="1" as="geometry">
            <mxPoint x="11" y="-13.330000000000002" as="offset" />
          </mxGeometry>
        </mxCell>
        <mxCell id="_Z9se_bO-7xFQfUbN8kz-1" value="Inventory" style="swimlane;fontStyle=0;childLayout=stackLayout;horizontal=1;startSize=26;fillColor=none;horizontalStack=0;resizeParent=1;resizeParentMax=0;resizeLast=0;collapsible=1;marginBottom=0;" parent="1" vertex="1">
          <mxGeometry x="450" y="-52" width="140" height="52" as="geometry" />
        </mxCell>
        <mxCell id="WDDuC63d3U8N03zwioVx-2" style="edgeStyle=orthogonalEdgeStyle;rounded=0;orthogonalLoop=1;jettySize=auto;html=1;endArrow=classic;endFill=1;" parent="1" source="WDDuC63d3U8N03zwioVx-1" edge="1">
          <mxGeometry relative="1" as="geometry">
            <mxPoint x="320" y="70" as="targetPoint" />
            <Array as="points">
              <mxPoint x="320" y="-26" />
              <mxPoint x="320" y="70" />
            </Array>
          </mxGeometry>
        </mxCell>
        <mxCell id="WDDuC63d3U8N03zwioVx-3" value="gathers" style="edgeLabel;html=1;align=center;verticalAlign=middle;resizable=0;points=[];" parent="WDDuC63d3U8N03zwioVx-2" vertex="1" connectable="0">
          <mxGeometry x="0.119" y="3" relative="1" as="geometry">
            <mxPoint x="-3" y="-9.17" as="offset" />
          </mxGeometry>
        </mxCell>
        <mxCell id="WDDuC63d3U8N03zwioVx-4" value="*" style="edgeLabel;html=1;align=center;verticalAlign=middle;resizable=0;points=[];" parent="WDDuC63d3U8N03zwioVx-2" vertex="1" connectable="0">
          <mxGeometry x="0.4762" relative="1" as="geometry">
            <mxPoint x="10" y="47" as="offset" />
          </mxGeometry>
        </mxCell>
        <mxCell id="WDDuC63d3U8N03zwioVx-5" value="1" style="edgeLabel;html=1;align=center;verticalAlign=middle;resizable=0;points=[];" parent="WDDuC63d3U8N03zwioVx-2" vertex="1" connectable="0">
          <mxGeometry x="-0.6667" y="-1" relative="1" as="geometry">
            <mxPoint x="11" as="offset" />
          </mxGeometry>
        </mxCell>
        <mxCell id="WDDuC63d3U8N03zwioVx-1" value="Catalog" style="swimlane;fontStyle=0;childLayout=stackLayout;horizontal=1;startSize=26;fillColor=none;horizontalStack=0;resizeParent=1;resizeParentMax=0;resizeLast=0;collapsible=1;marginBottom=0;" parent="1" vertex="1">
          <mxGeometry x="20" y="-52" width="140" height="52" as="geometry" />
        </mxCell>
        <mxCell id="sjox--U79Dbx5eUEkW8X-2" value="DeliveryMethod" style="swimlane;fontStyle=0;childLayout=stackLayout;horizontal=1;startSize=26;fillColor=none;horizontalStack=0;resizeParent=1;resizeParentMax=0;resizeLast=0;collapsible=1;marginBottom=0;" parent="1" vertex="1">
          <mxGeometry x="80" y="630" width="140" height="52" as="geometry" />
        </mxCell>
        <mxCell id="sjox--U79Dbx5eUEkW8X-3" value="name" style="text;strokeColor=none;fillColor=none;align=left;verticalAlign=top;spacingLeft=4;spacingRight=4;overflow=hidden;rotatable=0;points=[[0,0.5],[1,0.5]];portConstraint=eastwest;" parent="sjox--U79Dbx5eUEkW8X-2" vertex="1">
          <mxGeometry y="26" width="140" height="26" as="geometry" />
        </mxCell>
        <mxCell id="D13GknXC-InH7m7zbP-G-1" value="PaymentInfo" style="swimlane;fontStyle=0;childLayout=stackLayout;horizontal=1;startSize=20;fillColor=none;horizontalStack=0;resizeParent=1;resizeParentMax=0;resizeLast=0;collapsible=1;marginBottom=0;" parent="1" vertex="1">
          <mxGeometry x="1010" y="260" width="140" height="124" as="geometry" />
        </mxCell>
        <mxCell id="7MUdz9QiMgiHFCFw__s5-5" value="cardName" style="text;strokeColor=none;fillColor=none;align=left;verticalAlign=top;spacingLeft=4;spacingRight=4;overflow=hidden;rotatable=0;points=[[0,0.5],[1,0.5]];portConstraint=eastwest;" parent="D13GknXC-InH7m7zbP-G-1" vertex="1">
          <mxGeometry y="20" width="140" height="26" as="geometry" />
        </mxCell>
        <mxCell id="7MUdz9QiMgiHFCFw__s5-2" value="cardNumber" style="text;strokeColor=none;fillColor=none;align=left;verticalAlign=top;spacingLeft=4;spacingRight=4;overflow=hidden;rotatable=0;points=[[0,0.5],[1,0.5]];portConstraint=eastwest;" parent="D13GknXC-InH7m7zbP-G-1" vertex="1">
          <mxGeometry y="46" width="140" height="26" as="geometry" />
        </mxCell>
        <mxCell id="7MUdz9QiMgiHFCFw__s5-3" value="securityCode" style="text;strokeColor=none;fillColor=none;align=left;verticalAlign=top;spacingLeft=4;spacingRight=4;overflow=hidden;rotatable=0;points=[[0,0.5],[1,0.5]];portConstraint=eastwest;" parent="D13GknXC-InH7m7zbP-G-1" vertex="1">
          <mxGeometry y="72" width="140" height="26" as="geometry" />
        </mxCell>
        <mxCell id="7MUdz9QiMgiHFCFw__s5-4" value="expiryDate" style="text;strokeColor=none;fillColor=none;align=left;verticalAlign=top;spacingLeft=4;spacingRight=4;overflow=hidden;rotatable=0;points=[[0,0.5],[1,0.5]];portConstraint=eastwest;" parent="D13GknXC-InH7m7zbP-G-1" vertex="1">
          <mxGeometry y="98" width="140" height="26" as="geometry" />
        </mxCell>
      </root>
    </mxGraphModel>
  </diagram>
  <diagram name="DetailedDomainModel" id="TtA8CO7TfeUG1MspHHxa">
    <mxGraphModel dx="1796" dy="1714" grid="1" gridSize="10" guides="1" tooltips="1" connect="1" arrows="1" fold="1" page="1" pageScale="1" pageWidth="850" pageHeight="1100" math="0" shadow="0">
      <root>
        <mxCell id="aqCTc2BwgF-0Nsr38r-f-0" />
        <mxCell id="aqCTc2BwgF-0Nsr38r-f-1" parent="aqCTc2BwgF-0Nsr38r-f-0" />
        <mxCell id="aqCTc2BwgF-0Nsr38r-f-216" style="edgeStyle=orthogonalEdgeStyle;rounded=0;orthogonalLoop=1;jettySize=auto;html=1;entryX=1;entryY=0.5;entryDx=0;entryDy=0;startArrow=none;startFill=0;endArrow=none;endFill=0;startSize=12;endSize=11;" edge="1" parent="aqCTc2BwgF-0Nsr38r-f-1" source="aqCTc2BwgF-0Nsr38r-f-107" target="aqCTc2BwgF-0Nsr38r-f-211">
          <mxGeometry relative="1" as="geometry">
            <Array as="points">
              <mxPoint x="90" y="220" />
              <mxPoint x="-20" y="220" />
              <mxPoint x="-20" y="100" />
              <mxPoint x="-120" y="100" />
            </Array>
          </mxGeometry>
        </mxCell>
        <mxCell id="aqCTc2BwgF-0Nsr38r-f-225" value="1" style="edgeLabel;html=1;align=center;verticalAlign=middle;resizable=0;points=[];" vertex="1" connectable="0" parent="aqCTc2BwgF-0Nsr38r-f-216">
          <mxGeometry x="0.725" y="-2" relative="1" as="geometry">
            <mxPoint x="-34" y="-7" as="offset" />
          </mxGeometry>
        </mxCell>
        <mxCell id="aqCTc2BwgF-0Nsr38r-f-226" value="1" style="edgeLabel;html=1;align=center;verticalAlign=middle;resizable=0;points=[];" vertex="1" connectable="0" parent="aqCTc2BwgF-0Nsr38r-f-216">
          <mxGeometry x="-0.8922" y="2" relative="1" as="geometry">
            <mxPoint x="12" y="7" as="offset" />
          </mxGeometry>
        </mxCell>
        <mxCell id="aqCTc2BwgF-0Nsr38r-f-217" style="edgeStyle=orthogonalEdgeStyle;rounded=0;orthogonalLoop=1;jettySize=auto;html=1;entryX=1;entryY=0.5;entryDx=0;entryDy=0;startArrow=none;startFill=0;endArrow=none;endFill=0;startSize=12;endSize=11;" edge="1" parent="aqCTc2BwgF-0Nsr38r-f-1" source="aqCTc2BwgF-0Nsr38r-f-107" target="aqCTc2BwgF-0Nsr38r-f-212">
          <mxGeometry relative="1" as="geometry">
            <Array as="points">
              <mxPoint x="-50" y="250" />
              <mxPoint x="-50" y="184" />
            </Array>
          </mxGeometry>
        </mxCell>
        <mxCell id="aqCTc2BwgF-0Nsr38r-f-221" value="1" style="edgeLabel;html=1;align=center;verticalAlign=middle;resizable=0;points=[];" vertex="1" connectable="0" parent="aqCTc2BwgF-0Nsr38r-f-217">
          <mxGeometry x="0.8007" y="-1" relative="1" as="geometry">
            <mxPoint x="-10" y="-9" as="offset" />
          </mxGeometry>
        </mxCell>
        <mxCell id="aqCTc2BwgF-0Nsr38r-f-227" value="1" style="edgeLabel;html=1;align=center;verticalAlign=middle;resizable=0;points=[];" vertex="1" connectable="0" parent="aqCTc2BwgF-0Nsr38r-f-217">
          <mxGeometry x="-0.7424" relative="1" as="geometry">
            <mxPoint x="7" y="-10" as="offset" />
          </mxGeometry>
        </mxCell>
        <mxCell id="aqCTc2BwgF-0Nsr38r-f-218" style="edgeStyle=orthogonalEdgeStyle;rounded=0;orthogonalLoop=1;jettySize=auto;html=1;entryX=1;entryY=0.5;entryDx=0;entryDy=0;startArrow=none;startFill=0;endArrow=none;endFill=0;startSize=12;endSize=11;" edge="1" parent="aqCTc2BwgF-0Nsr38r-f-1" source="aqCTc2BwgF-0Nsr38r-f-107" target="aqCTc2BwgF-0Nsr38r-f-215">
          <mxGeometry relative="1" as="geometry">
            <Array as="points">
              <mxPoint x="-120" y="270" />
            </Array>
          </mxGeometry>
        </mxCell>
        <mxCell id="aqCTc2BwgF-0Nsr38r-f-222" value="1" style="edgeLabel;html=1;align=center;verticalAlign=middle;resizable=0;points=[];" vertex="1" connectable="0" parent="aqCTc2BwgF-0Nsr38r-f-218">
          <mxGeometry x="0.7067" y="-4" relative="1" as="geometry">
            <mxPoint x="-10" y="-9" as="offset" />
          </mxGeometry>
        </mxCell>
        <mxCell id="aqCTc2BwgF-0Nsr38r-f-228" value="1" style="edgeLabel;html=1;align=center;verticalAlign=middle;resizable=0;points=[];" vertex="1" connectable="0" parent="aqCTc2BwgF-0Nsr38r-f-218">
          <mxGeometry x="-0.7218" y="-1" relative="1" as="geometry">
            <mxPoint y="11" as="offset" />
          </mxGeometry>
        </mxCell>
        <mxCell id="aqCTc2BwgF-0Nsr38r-f-219" style="edgeStyle=orthogonalEdgeStyle;rounded=0;orthogonalLoop=1;jettySize=auto;html=1;entryX=1;entryY=0.5;entryDx=0;entryDy=0;startArrow=none;startFill=0;endArrow=none;endFill=0;startSize=12;endSize=11;" edge="1" parent="aqCTc2BwgF-0Nsr38r-f-1" source="aqCTc2BwgF-0Nsr38r-f-107" target="aqCTc2BwgF-0Nsr38r-f-213">
          <mxGeometry relative="1" as="geometry">
            <Array as="points">
              <mxPoint x="40" y="354" />
            </Array>
          </mxGeometry>
        </mxCell>
        <mxCell id="aqCTc2BwgF-0Nsr38r-f-223" value="1" style="edgeLabel;html=1;align=center;verticalAlign=middle;resizable=0;points=[];" vertex="1" connectable="0" parent="aqCTc2BwgF-0Nsr38r-f-219">
          <mxGeometry x="0.8134" y="-4" relative="1" as="geometry">
            <mxPoint x="-10" y="-5" as="offset" />
          </mxGeometry>
        </mxCell>
        <mxCell id="aqCTc2BwgF-0Nsr38r-f-229" value="1" style="edgeLabel;html=1;align=center;verticalAlign=middle;resizable=0;points=[];" vertex="1" connectable="0" parent="aqCTc2BwgF-0Nsr38r-f-219">
          <mxGeometry x="-0.8033" relative="1" as="geometry">
            <mxPoint x="10" y="-5" as="offset" />
          </mxGeometry>
        </mxCell>
        <mxCell id="aqCTc2BwgF-0Nsr38r-f-220" style="edgeStyle=orthogonalEdgeStyle;rounded=0;orthogonalLoop=1;jettySize=auto;html=1;entryX=1;entryY=0.5;entryDx=0;entryDy=0;startArrow=none;startFill=0;endArrow=none;endFill=0;startSize=12;endSize=11;" edge="1" parent="aqCTc2BwgF-0Nsr38r-f-1" source="aqCTc2BwgF-0Nsr38r-f-107" target="aqCTc2BwgF-0Nsr38r-f-214">
          <mxGeometry relative="1" as="geometry">
            <Array as="points">
              <mxPoint x="60" y="390" />
              <mxPoint x="-70" y="390" />
              <mxPoint x="-70" y="436" />
            </Array>
          </mxGeometry>
        </mxCell>
        <mxCell id="aqCTc2BwgF-0Nsr38r-f-224" value="*" style="edgeLabel;html=1;align=center;verticalAlign=middle;resizable=0;points=[];" vertex="1" connectable="0" parent="aqCTc2BwgF-0Nsr38r-f-220">
          <mxGeometry x="0.8652" y="2" relative="1" as="geometry">
            <mxPoint x="-9" y="-12" as="offset" />
          </mxGeometry>
        </mxCell>
        <mxCell id="aqCTc2BwgF-0Nsr38r-f-230" value="1" style="edgeLabel;html=1;align=center;verticalAlign=middle;resizable=0;points=[];" vertex="1" connectable="0" parent="aqCTc2BwgF-0Nsr38r-f-220">
          <mxGeometry x="-0.7852" y="2" relative="1" as="geometry">
            <mxPoint x="8" y="-18" as="offset" />
          </mxGeometry>
        </mxCell>
        <mxCell id="aqCTc2BwgF-0Nsr38r-f-107" value="Prescription" style="swimlane;fontStyle=0;childLayout=stackLayout;horizontal=1;startSize=26;fillColor=none;horizontalStack=0;resizeParent=1;resizeParentMax=0;resizeLast=0;collapsible=1;marginBottom=0;" vertex="1" parent="aqCTc2BwgF-0Nsr38r-f-1">
          <mxGeometry x="20" y="242" width="140" height="52" as="geometry" />
        </mxCell>
        <mxCell id="aqCTc2BwgF-0Nsr38r-f-2" value="Belongs to" style="edgeStyle=orthogonalEdgeStyle;rounded=0;orthogonalLoop=1;jettySize=auto;html=1;entryX=0.5;entryY=0;entryDx=0;entryDy=0;endArrow=none;endFill=0;" edge="1" parent="aqCTc2BwgF-0Nsr38r-f-1" source="aqCTc2BwgF-0Nsr38r-f-8" target="aqCTc2BwgF-0Nsr38r-f-17">
          <mxGeometry relative="1" as="geometry">
            <Array as="points">
              <mxPoint x="360" y="200" />
              <mxPoint x="360" y="200" />
            </Array>
          </mxGeometry>
        </mxCell>
        <mxCell id="aqCTc2BwgF-0Nsr38r-f-3" value="*" style="edgeLabel;html=1;align=center;verticalAlign=middle;resizable=0;points=[];" vertex="1" connectable="0" parent="aqCTc2BwgF-0Nsr38r-f-2">
          <mxGeometry x="-0.7037" y="-2" relative="1" as="geometry">
            <mxPoint x="-8" y="-3" as="offset" />
          </mxGeometry>
        </mxCell>
        <mxCell id="aqCTc2BwgF-0Nsr38r-f-4" value="1" style="edgeLabel;html=1;align=center;verticalAlign=middle;resizable=0;points=[];" vertex="1" connectable="0" parent="aqCTc2BwgF-0Nsr38r-f-2">
          <mxGeometry x="0.7407" relative="1" as="geometry">
            <mxPoint x="-10" as="offset" />
          </mxGeometry>
        </mxCell>
        <mxCell id="aqCTc2BwgF-0Nsr38r-f-5" value="" style="edgeStyle=orthogonalEdgeStyle;rounded=0;orthogonalLoop=1;jettySize=auto;html=1;endArrow=none;endFill=0;" edge="1" parent="aqCTc2BwgF-0Nsr38r-f-1" source="aqCTc2BwgF-0Nsr38r-f-8" target="aqCTc2BwgF-0Nsr38r-f-14">
          <mxGeometry y="-9" relative="1" as="geometry">
            <Array as="points">
              <mxPoint x="190" y="109" />
              <mxPoint x="190" y="109" />
            </Array>
            <mxPoint as="offset" />
          </mxGeometry>
        </mxCell>
        <mxCell id="aqCTc2BwgF-0Nsr38r-f-6" value="*" style="edgeLabel;html=1;align=center;verticalAlign=middle;resizable=0;points=[];" vertex="1" connectable="0" parent="aqCTc2BwgF-0Nsr38r-f-5">
          <mxGeometry x="-0.75" y="-1" relative="1" as="geometry">
            <mxPoint y="12" as="offset" />
          </mxGeometry>
        </mxCell>
        <mxCell id="aqCTc2BwgF-0Nsr38r-f-7" value="1" style="edgeLabel;html=1;align=center;verticalAlign=middle;resizable=0;points=[];" vertex="1" connectable="0" parent="aqCTc2BwgF-0Nsr38r-f-5">
          <mxGeometry x="0.7333" y="3" relative="1" as="geometry">
            <mxPoint x="2" y="8" as="offset" />
          </mxGeometry>
        </mxCell>
        <mxCell id="aqCTc2BwgF-0Nsr38r-f-8" value="Product" style="swimlane;fontStyle=0;childLayout=stackLayout;horizontal=1;startSize=26;fillColor=none;horizontalStack=0;resizeParent=1;resizeParentMax=0;resizeLast=0;collapsible=1;marginBottom=0;" vertex="1" parent="aqCTc2BwgF-0Nsr38r-f-1">
          <mxGeometry x="290" y="70" width="140" height="52" as="geometry" />
        </mxCell>
        <mxCell id="aqCTc2BwgF-0Nsr38r-f-9" value="description" style="text;strokeColor=none;fillColor=none;align=left;verticalAlign=top;spacingLeft=4;spacingRight=4;overflow=hidden;rotatable=0;points=[[0,0.5],[1,0.5]];portConstraint=eastwest;" vertex="1" parent="aqCTc2BwgF-0Nsr38r-f-8">
          <mxGeometry y="26" width="140" height="26" as="geometry" />
        </mxCell>
        <mxCell id="aqCTc2BwgF-0Nsr38r-f-14" value="Brand" style="swimlane;fontStyle=0;childLayout=stackLayout;horizontal=1;startSize=26;fillColor=none;horizontalStack=0;resizeParent=1;resizeParentMax=0;resizeLast=0;collapsible=1;marginBottom=0;" vertex="1" parent="aqCTc2BwgF-0Nsr38r-f-1">
          <mxGeometry x="70" y="70" width="140" height="52" as="geometry" />
        </mxCell>
        <mxCell id="aqCTc2BwgF-0Nsr38r-f-15" value="name" style="text;strokeColor=none;fillColor=none;align=left;verticalAlign=top;spacingLeft=4;spacingRight=4;overflow=hidden;rotatable=0;points=[[0,0.5],[1,0.5]];portConstraint=eastwest;" vertex="1" parent="aqCTc2BwgF-0Nsr38r-f-14">
          <mxGeometry y="26" width="140" height="26" as="geometry" />
        </mxCell>
        <mxCell id="aqCTc2BwgF-0Nsr38r-f-17" value="Category" style="swimlane;fontStyle=0;childLayout=stackLayout;horizontal=1;startSize=26;fillColor=none;horizontalStack=0;resizeParent=1;resizeParentMax=0;resizeLast=0;collapsible=1;marginBottom=0;" vertex="1" parent="aqCTc2BwgF-0Nsr38r-f-1">
          <mxGeometry x="290" y="310" width="140" height="52" as="geometry" />
        </mxCell>
        <mxCell id="aqCTc2BwgF-0Nsr38r-f-18" value="name" style="text;strokeColor=none;fillColor=none;align=left;verticalAlign=top;spacingLeft=4;spacingRight=4;overflow=hidden;rotatable=0;points=[[0,0.5],[1,0.5]];portConstraint=eastwest;" vertex="1" parent="aqCTc2BwgF-0Nsr38r-f-17">
          <mxGeometry y="26" width="140" height="26" as="geometry" />
        </mxCell>
        <mxCell id="aqCTc2BwgF-0Nsr38r-f-20" value="Promotion" style="swimlane;fontStyle=0;childLayout=stackLayout;horizontal=1;startSize=26;fillColor=none;horizontalStack=0;resizeParent=1;resizeParentMax=0;resizeLast=0;collapsible=1;marginBottom=0;" vertex="1" parent="aqCTc2BwgF-0Nsr38r-f-1">
          <mxGeometry x="525" y="57" width="140" height="78" as="geometry" />
        </mxCell>
        <mxCell id="aqCTc2BwgF-0Nsr38r-f-21" value="percentage" style="text;strokeColor=none;fillColor=none;align=left;verticalAlign=top;spacingLeft=4;spacingRight=4;overflow=hidden;rotatable=0;points=[[0,0.5],[1,0.5]];portConstraint=eastwest;" vertex="1" parent="aqCTc2BwgF-0Nsr38r-f-20">
          <mxGeometry y="26" width="140" height="26" as="geometry" />
        </mxCell>
        <mxCell id="aqCTc2BwgF-0Nsr38r-f-22" value="type" style="text;strokeColor=none;fillColor=none;align=left;verticalAlign=top;spacingLeft=4;spacingRight=4;overflow=hidden;rotatable=0;points=[[0,0.5],[1,0.5]];portConstraint=eastwest;" vertex="1" parent="aqCTc2BwgF-0Nsr38r-f-20">
          <mxGeometry y="52" width="140" height="26" as="geometry" />
        </mxCell>
        <mxCell id="aqCTc2BwgF-0Nsr38r-f-23" value="may have a parent" style="edgeStyle=orthogonalEdgeStyle;rounded=0;orthogonalLoop=1;jettySize=auto;html=1;endArrow=none;endFill=0;" edge="1" parent="aqCTc2BwgF-0Nsr38r-f-1" source="aqCTc2BwgF-0Nsr38r-f-17" target="aqCTc2BwgF-0Nsr38r-f-17">
          <mxGeometry y="50" relative="1" as="geometry">
            <mxPoint as="offset" />
          </mxGeometry>
        </mxCell>
        <mxCell id="aqCTc2BwgF-0Nsr38r-f-24" value="*" style="edgeLabel;html=1;align=center;verticalAlign=middle;resizable=0;points=[];" vertex="1" connectable="0" parent="aqCTc2BwgF-0Nsr38r-f-23">
          <mxGeometry x="-0.6333" y="3" relative="1" as="geometry">
            <mxPoint x="-1" y="-6" as="offset" />
          </mxGeometry>
        </mxCell>
        <mxCell id="aqCTc2BwgF-0Nsr38r-f-25" value="1" style="edgeLabel;html=1;align=center;verticalAlign=middle;resizable=0;points=[];" vertex="1" connectable="0" parent="aqCTc2BwgF-0Nsr38r-f-23">
          <mxGeometry x="0.3667" relative="1" as="geometry">
            <mxPoint x="-9" y="11" as="offset" />
          </mxGeometry>
        </mxCell>
        <mxCell id="aqCTc2BwgF-0Nsr38r-f-26" value="" style="edgeStyle=orthogonalEdgeStyle;rounded=0;orthogonalLoop=1;jettySize=auto;html=1;endArrow=none;endFill=0;" edge="1" parent="aqCTc2BwgF-0Nsr38r-f-1" target="aqCTc2BwgF-0Nsr38r-f-20">
          <mxGeometry x="0.0205" y="9" relative="1" as="geometry">
            <mxPoint as="offset" />
            <mxPoint x="430" y="99" as="sourcePoint" />
            <Array as="points">
              <mxPoint x="430" y="96" />
            </Array>
            <mxPoint x="520" y="96" as="targetPoint" />
          </mxGeometry>
        </mxCell>
        <mxCell id="aqCTc2BwgF-0Nsr38r-f-27" value="1" style="edgeLabel;html=1;align=center;verticalAlign=middle;resizable=0;points=[];" vertex="1" connectable="0" parent="aqCTc2BwgF-0Nsr38r-f-26">
          <mxGeometry x="-0.72" y="2" relative="1" as="geometry">
            <mxPoint x="-4" y="13" as="offset" />
          </mxGeometry>
        </mxCell>
        <mxCell id="aqCTc2BwgF-0Nsr38r-f-28" value="0,1" style="edgeLabel;html=1;align=center;verticalAlign=middle;resizable=0;points=[];" vertex="1" connectable="0" parent="aqCTc2BwgF-0Nsr38r-f-26">
          <mxGeometry x="0.74" y="1" relative="1" as="geometry">
            <mxPoint x="-2" y="12" as="offset" />
          </mxGeometry>
        </mxCell>
        <mxCell id="aqCTc2BwgF-0Nsr38r-f-29" style="edgeStyle=orthogonalEdgeStyle;rounded=0;orthogonalLoop=1;jettySize=auto;html=1;entryX=0.5;entryY=0;entryDx=0;entryDy=0;endArrow=none;endFill=0;" edge="1" parent="aqCTc2BwgF-0Nsr38r-f-1" source="aqCTc2BwgF-0Nsr38r-f-37" target="aqCTc2BwgF-0Nsr38r-f-146">
          <mxGeometry relative="1" as="geometry">
            <mxPoint x="540" y="432" as="targetPoint" />
          </mxGeometry>
        </mxCell>
        <mxCell id="aqCTc2BwgF-0Nsr38r-f-30" value="&amp;lt; becomes" style="edgeLabel;html=1;align=center;verticalAlign=middle;resizable=0;points=[];" vertex="1" connectable="0" parent="aqCTc2BwgF-0Nsr38r-f-29">
          <mxGeometry x="-0.197" y="-1" relative="1" as="geometry">
            <mxPoint x="3" y="-9" as="offset" />
          </mxGeometry>
        </mxCell>
        <mxCell id="aqCTc2BwgF-0Nsr38r-f-31" value="1" style="edgeLabel;html=1;align=center;verticalAlign=middle;resizable=0;points=[];" vertex="1" connectable="0" parent="aqCTc2BwgF-0Nsr38r-f-29">
          <mxGeometry x="-0.7576" y="-1" relative="1" as="geometry">
            <mxPoint x="5" y="11" as="offset" />
          </mxGeometry>
        </mxCell>
        <mxCell id="aqCTc2BwgF-0Nsr38r-f-32" value="1" style="edgeLabel;html=1;align=center;verticalAlign=middle;resizable=0;points=[];" vertex="1" connectable="0" parent="aqCTc2BwgF-0Nsr38r-f-29">
          <mxGeometry x="0.6667" y="1" relative="1" as="geometry">
            <mxPoint x="9" y="15" as="offset" />
          </mxGeometry>
        </mxCell>
        <mxCell id="aqCTc2BwgF-0Nsr38r-f-33" style="edgeStyle=orthogonalEdgeStyle;rounded=0;orthogonalLoop=1;jettySize=auto;html=1;endArrow=none;endFill=0;startArrow=diamond;startFill=0;startSize=12;" edge="1" parent="aqCTc2BwgF-0Nsr38r-f-1" source="aqCTc2BwgF-0Nsr38r-f-37" target="aqCTc2BwgF-0Nsr38r-f-8">
          <mxGeometry relative="1" as="geometry">
            <mxPoint x="630" y="278" as="targetPoint" />
            <Array as="points">
              <mxPoint x="788" y="290" />
              <mxPoint x="400" y="290" />
            </Array>
          </mxGeometry>
        </mxCell>
        <mxCell id="aqCTc2BwgF-0Nsr38r-f-34" value="&amp;lt; contains" style="edgeLabel;html=1;align=center;verticalAlign=middle;resizable=0;points=[];" vertex="1" connectable="0" parent="aqCTc2BwgF-0Nsr38r-f-33">
          <mxGeometry x="-0.2075" relative="1" as="geometry">
            <mxPoint x="-32" y="-10" as="offset" />
          </mxGeometry>
        </mxCell>
        <mxCell id="aqCTc2BwgF-0Nsr38r-f-35" value="*" style="edgeLabel;html=1;align=center;verticalAlign=middle;resizable=0;points=[];" vertex="1" connectable="0" parent="aqCTc2BwgF-0Nsr38r-f-33">
          <mxGeometry x="-0.7857" y="1" relative="1" as="geometry">
            <mxPoint x="11" y="54" as="offset" />
          </mxGeometry>
        </mxCell>
        <mxCell id="aqCTc2BwgF-0Nsr38r-f-36" value="*" style="edgeLabel;html=1;align=center;verticalAlign=middle;resizable=0;points=[];" vertex="1" connectable="0" parent="aqCTc2BwgF-0Nsr38r-f-33">
          <mxGeometry x="0.6939" y="-1" relative="1" as="geometry">
            <mxPoint x="24" y="-80" as="offset" />
          </mxGeometry>
        </mxCell>
        <mxCell id="aqCTc2BwgF-0Nsr38r-f-37" value="Cart" style="swimlane;fontStyle=0;childLayout=stackLayout;horizontal=1;startSize=26;fillColor=none;horizontalStack=0;resizeParent=1;resizeParentMax=0;resizeLast=0;collapsible=1;marginBottom=0;" vertex="1" parent="aqCTc2BwgF-0Nsr38r-f-1">
          <mxGeometry x="652.71" y="374" width="140" height="52" as="geometry" />
        </mxCell>
        <mxCell id="aqCTc2BwgF-0Nsr38r-f-38" style="edgeStyle=orthogonalEdgeStyle;rounded=0;orthogonalLoop=1;jettySize=auto;html=1;entryX=0;entryY=0.5;entryDx=0;entryDy=0;endArrow=none;endFill=0;" edge="1" parent="aqCTc2BwgF-0Nsr38r-f-1" source="aqCTc2BwgF-0Nsr38r-f-46" target="aqCTc2BwgF-0Nsr38r-f-76">
          <mxGeometry relative="1" as="geometry">
            <Array as="points">
              <mxPoint x="360" y="706" />
              <mxPoint x="590" y="706" />
              <mxPoint x="590" y="771" />
            </Array>
            <mxPoint x="700" y="809.6700000000001" as="targetPoint" />
          </mxGeometry>
        </mxCell>
        <mxCell id="aqCTc2BwgF-0Nsr38r-f-39" value="is sent to" style="edgeLabel;html=1;align=center;verticalAlign=middle;resizable=0;points=[];" vertex="1" connectable="0" parent="aqCTc2BwgF-0Nsr38r-f-38">
          <mxGeometry x="0.29" y="2" relative="1" as="geometry">
            <mxPoint x="-112" y="-43" as="offset" />
          </mxGeometry>
        </mxCell>
        <mxCell id="aqCTc2BwgF-0Nsr38r-f-40" value="*" style="edgeLabel;html=1;align=center;verticalAlign=middle;resizable=0;points=[];" vertex="1" connectable="0" parent="aqCTc2BwgF-0Nsr38r-f-38">
          <mxGeometry x="-0.81" relative="1" as="geometry">
            <mxPoint x="10" y="-29" as="offset" />
          </mxGeometry>
        </mxCell>
        <mxCell id="aqCTc2BwgF-0Nsr38r-f-41" value="1" style="edgeLabel;html=1;align=center;verticalAlign=middle;resizable=0;points=[];" vertex="1" connectable="0" parent="aqCTc2BwgF-0Nsr38r-f-38">
          <mxGeometry x="0.74" relative="1" as="geometry">
            <mxPoint x="41" y="11" as="offset" />
          </mxGeometry>
        </mxCell>
        <mxCell id="aqCTc2BwgF-0Nsr38r-f-42" style="edgeStyle=orthogonalEdgeStyle;rounded=0;orthogonalLoop=1;jettySize=auto;html=1;endArrow=none;endFill=0;" edge="1" parent="aqCTc2BwgF-0Nsr38r-f-1" source="aqCTc2BwgF-0Nsr38r-f-46" target="aqCTc2BwgF-0Nsr38r-f-103">
          <mxGeometry relative="1" as="geometry">
            <Array as="points">
              <mxPoint x="310" y="606" />
              <mxPoint x="310" y="606" />
            </Array>
          </mxGeometry>
        </mxCell>
        <mxCell id="aqCTc2BwgF-0Nsr38r-f-43" value="sent to &lt;br&gt;customer using" style="edgeLabel;html=1;align=center;verticalAlign=middle;resizable=0;points=[];" vertex="1" connectable="0" parent="aqCTc2BwgF-0Nsr38r-f-42">
          <mxGeometry x="0.0377" relative="1" as="geometry">
            <mxPoint y="-14" as="offset" />
          </mxGeometry>
        </mxCell>
        <mxCell id="aqCTc2BwgF-0Nsr38r-f-44" value="*" style="edgeLabel;html=1;align=center;verticalAlign=middle;resizable=0;points=[];" vertex="1" connectable="0" parent="aqCTc2BwgF-0Nsr38r-f-42">
          <mxGeometry x="-0.861" relative="1" as="geometry">
            <mxPoint x="11" y="4" as="offset" />
          </mxGeometry>
        </mxCell>
        <mxCell id="aqCTc2BwgF-0Nsr38r-f-45" value="1" style="edgeLabel;html=1;align=center;verticalAlign=middle;resizable=0;points=[];" vertex="1" connectable="0" parent="aqCTc2BwgF-0Nsr38r-f-42">
          <mxGeometry x="0.6898" y="-2" relative="1" as="geometry">
            <mxPoint x="12" y="3" as="offset" />
          </mxGeometry>
        </mxCell>
        <mxCell id="aqCTc2BwgF-0Nsr38r-f-201" style="edgeStyle=orthogonalEdgeStyle;rounded=0;orthogonalLoop=1;jettySize=auto;html=1;entryX=1;entryY=0.5;entryDx=0;entryDy=0;startArrow=none;startFill=0;endArrow=none;endFill=0;startSize=12;endSize=11;" edge="1" parent="aqCTc2BwgF-0Nsr38r-f-1" source="aqCTc2BwgF-0Nsr38r-f-46" target="aqCTc2BwgF-0Nsr38r-f-198">
          <mxGeometry relative="1" as="geometry">
            <Array as="points">
              <mxPoint x="200" y="590" />
              <mxPoint x="200" y="550" />
            </Array>
          </mxGeometry>
        </mxCell>
        <mxCell id="aqCTc2BwgF-0Nsr38r-f-204" value="1" style="edgeLabel;html=1;align=center;verticalAlign=middle;resizable=0;points=[];" vertex="1" connectable="0" parent="aqCTc2BwgF-0Nsr38r-f-201">
          <mxGeometry x="0.8568" y="-1" relative="1" as="geometry">
            <mxPoint y="17" as="offset" />
          </mxGeometry>
        </mxCell>
        <mxCell id="aqCTc2BwgF-0Nsr38r-f-210" value="1" style="edgeLabel;html=1;align=center;verticalAlign=middle;resizable=0;points=[];" vertex="1" connectable="0" parent="aqCTc2BwgF-0Nsr38r-f-201">
          <mxGeometry x="-0.735" y="-1" relative="1" as="geometry">
            <mxPoint x="5" y="-12" as="offset" />
          </mxGeometry>
        </mxCell>
        <mxCell id="aqCTc2BwgF-0Nsr38r-f-202" style="edgeStyle=orthogonalEdgeStyle;rounded=0;orthogonalLoop=1;jettySize=auto;html=1;startArrow=none;startFill=0;endArrow=none;endFill=0;startSize=12;endSize=11;" edge="1" parent="aqCTc2BwgF-0Nsr38r-f-1" source="aqCTc2BwgF-0Nsr38r-f-46" target="aqCTc2BwgF-0Nsr38r-f-199">
          <mxGeometry relative="1" as="geometry">
            <Array as="points">
              <mxPoint x="220" y="626" />
              <mxPoint x="220" y="626" />
            </Array>
          </mxGeometry>
        </mxCell>
        <mxCell id="aqCTc2BwgF-0Nsr38r-f-205" value="1" style="edgeLabel;html=1;align=center;verticalAlign=middle;resizable=0;points=[];" vertex="1" connectable="0" parent="aqCTc2BwgF-0Nsr38r-f-202">
          <mxGeometry x="0.9008" relative="1" as="geometry">
            <mxPoint x="8" y="10" as="offset" />
          </mxGeometry>
        </mxCell>
        <mxCell id="aqCTc2BwgF-0Nsr38r-f-209" value="1" style="edgeLabel;html=1;align=center;verticalAlign=middle;resizable=0;points=[];" vertex="1" connectable="0" parent="aqCTc2BwgF-0Nsr38r-f-202">
          <mxGeometry x="-0.8223" y="1" relative="1" as="geometry">
            <mxPoint x="-3" y="-17" as="offset" />
          </mxGeometry>
        </mxCell>
        <mxCell id="aqCTc2BwgF-0Nsr38r-f-203" style="edgeStyle=orthogonalEdgeStyle;rounded=0;orthogonalLoop=1;jettySize=auto;html=1;entryX=1;entryY=0.5;entryDx=0;entryDy=0;startArrow=none;startFill=0;endArrow=none;endFill=0;startSize=12;endSize=11;" edge="1" parent="aqCTc2BwgF-0Nsr38r-f-1" source="aqCTc2BwgF-0Nsr38r-f-46" target="aqCTc2BwgF-0Nsr38r-f-200">
          <mxGeometry relative="1" as="geometry">
            <Array as="points">
              <mxPoint x="260" y="706" />
            </Array>
          </mxGeometry>
        </mxCell>
        <mxCell id="aqCTc2BwgF-0Nsr38r-f-206" value="1" style="edgeLabel;html=1;align=center;verticalAlign=middle;resizable=0;points=[];" vertex="1" connectable="0" parent="aqCTc2BwgF-0Nsr38r-f-203">
          <mxGeometry x="0.8775" y="2" relative="1" as="geometry">
            <mxPoint x="-2" y="12" as="offset" />
          </mxGeometry>
        </mxCell>
        <mxCell id="aqCTc2BwgF-0Nsr38r-f-208" value="1" style="edgeLabel;html=1;align=center;verticalAlign=middle;resizable=0;points=[];" vertex="1" connectable="0" parent="aqCTc2BwgF-0Nsr38r-f-203">
          <mxGeometry x="-0.9006" relative="1" as="geometry">
            <mxPoint x="6" y="3" as="offset" />
          </mxGeometry>
        </mxCell>
        <mxCell id="aqCTc2BwgF-0Nsr38r-f-46" value="Order" style="swimlane;fontStyle=0;childLayout=stackLayout;horizontal=1;startSize=26;fillColor=none;horizontalStack=0;resizeParent=1;resizeParentMax=0;resizeLast=0;collapsible=1;marginBottom=0;" vertex="1" parent="aqCTc2BwgF-0Nsr38r-f-1">
          <mxGeometry x="240" y="576" width="140" height="64" as="geometry" />
        </mxCell>
        <mxCell id="aqCTc2BwgF-0Nsr38r-f-50" style="edgeStyle=orthogonalEdgeStyle;rounded=0;orthogonalLoop=1;jettySize=auto;html=1;" edge="1" parent="aqCTc2BwgF-0Nsr38r-f-1" source="aqCTc2BwgF-0Nsr38r-f-67" target="aqCTc2BwgF-0Nsr38r-f-37">
          <mxGeometry relative="1" as="geometry">
            <Array as="points">
              <mxPoint x="842.71" y="446" />
              <mxPoint x="842.71" y="446" />
            </Array>
          </mxGeometry>
        </mxCell>
        <mxCell id="aqCTc2BwgF-0Nsr38r-f-51" value="owns" style="edgeLabel;html=1;align=center;verticalAlign=middle;resizable=0;points=[];" vertex="1" connectable="0" parent="aqCTc2BwgF-0Nsr38r-f-50">
          <mxGeometry x="0.2194" relative="1" as="geometry">
            <mxPoint x="10.829999999999998" y="-9" as="offset" />
          </mxGeometry>
        </mxCell>
        <mxCell id="aqCTc2BwgF-0Nsr38r-f-52" value="1" style="edgeLabel;html=1;align=center;verticalAlign=middle;resizable=0;points=[];" vertex="1" connectable="0" parent="aqCTc2BwgF-0Nsr38r-f-50">
          <mxGeometry x="0.8974" y="1" relative="1" as="geometry">
            <mxPoint x="15" y="-10" as="offset" />
          </mxGeometry>
        </mxCell>
        <mxCell id="aqCTc2BwgF-0Nsr38r-f-53" value="1" style="edgeLabel;html=1;align=center;verticalAlign=middle;resizable=0;points=[];" vertex="1" connectable="0" parent="aqCTc2BwgF-0Nsr38r-f-50">
          <mxGeometry x="-0.9088" y="1" relative="1" as="geometry">
            <mxPoint x="9" y="-6" as="offset" />
          </mxGeometry>
        </mxCell>
        <mxCell id="aqCTc2BwgF-0Nsr38r-f-54" style="edgeStyle=orthogonalEdgeStyle;rounded=0;orthogonalLoop=1;jettySize=auto;html=1;endArrow=none;endFill=0;" edge="1" parent="aqCTc2BwgF-0Nsr38r-f-1" source="aqCTc2BwgF-0Nsr38r-f-67" target="aqCTc2BwgF-0Nsr38r-f-75">
          <mxGeometry relative="1" as="geometry" />
        </mxCell>
        <mxCell id="aqCTc2BwgF-0Nsr38r-f-55" value="&amp;lt; owns" style="edgeLabel;html=1;align=center;verticalAlign=middle;resizable=0;points=[];" vertex="1" connectable="0" parent="aqCTc2BwgF-0Nsr38r-f-54">
          <mxGeometry x="-0.1398" y="-1" relative="1" as="geometry">
            <mxPoint x="17" y="-12" as="offset" />
          </mxGeometry>
        </mxCell>
        <mxCell id="aqCTc2BwgF-0Nsr38r-f-56" value="1" style="edgeLabel;html=1;align=center;verticalAlign=middle;resizable=0;points=[];" vertex="1" connectable="0" parent="aqCTc2BwgF-0Nsr38r-f-54">
          <mxGeometry x="0.6452" y="-1" relative="1" as="geometry">
            <mxPoint x="9" y="-7" as="offset" />
          </mxGeometry>
        </mxCell>
        <mxCell id="aqCTc2BwgF-0Nsr38r-f-57" value="1" style="edgeLabel;html=1;align=center;verticalAlign=middle;resizable=0;points=[];" vertex="1" connectable="0" parent="aqCTc2BwgF-0Nsr38r-f-54">
          <mxGeometry x="-0.7312" y="-1" relative="1" as="geometry">
            <mxPoint x="9" as="offset" />
          </mxGeometry>
        </mxCell>
        <mxCell id="aqCTc2BwgF-0Nsr38r-f-58" style="edgeStyle=orthogonalEdgeStyle;rounded=0;orthogonalLoop=1;jettySize=auto;html=1;entryX=1;entryY=0.5;entryDx=0;entryDy=0;endArrow=none;endFill=0;" edge="1" parent="aqCTc2BwgF-0Nsr38r-f-1" source="aqCTc2BwgF-0Nsr38r-f-67" target="aqCTc2BwgF-0Nsr38r-f-76">
          <mxGeometry relative="1" as="geometry">
            <Array as="points">
              <mxPoint x="998" y="771" />
            </Array>
            <mxPoint x="840" y="809.6700000000001" as="targetPoint" />
          </mxGeometry>
        </mxCell>
        <mxCell id="aqCTc2BwgF-0Nsr38r-f-59" value="orders to" style="edgeLabel;html=1;align=center;verticalAlign=middle;resizable=0;points=[];" vertex="1" connectable="0" parent="aqCTc2BwgF-0Nsr38r-f-58">
          <mxGeometry x="-0.147" y="1" relative="1" as="geometry">
            <mxPoint x="29" as="offset" />
          </mxGeometry>
        </mxCell>
        <mxCell id="aqCTc2BwgF-0Nsr38r-f-60" value="1" style="edgeLabel;html=1;align=center;verticalAlign=middle;resizable=0;points=[];" vertex="1" connectable="0" parent="aqCTc2BwgF-0Nsr38r-f-58">
          <mxGeometry x="-0.7665" relative="1" as="geometry">
            <mxPoint x="12" y="-62" as="offset" />
          </mxGeometry>
        </mxCell>
        <mxCell id="aqCTc2BwgF-0Nsr38r-f-61" value="+" style="edgeLabel;html=1;align=center;verticalAlign=middle;resizable=0;points=[];" vertex="1" connectable="0" parent="aqCTc2BwgF-0Nsr38r-f-58">
          <mxGeometry x="0.38" relative="1" as="geometry">
            <mxPoint x="-68" y="78" as="offset" />
          </mxGeometry>
        </mxCell>
        <mxCell id="aqCTc2BwgF-0Nsr38r-f-62" style="edgeStyle=orthogonalEdgeStyle;rounded=0;orthogonalLoop=1;jettySize=auto;html=1;entryX=1;entryY=0.5;entryDx=0;entryDy=0;endArrow=none;endFill=0;" edge="1" parent="aqCTc2BwgF-0Nsr38r-f-1" source="aqCTc2BwgF-0Nsr38r-f-67" target="aqCTc2BwgF-0Nsr38r-f-92">
          <mxGeometry relative="1" as="geometry">
            <Array as="points">
              <mxPoint x="913" y="556" />
            </Array>
          </mxGeometry>
        </mxCell>
        <mxCell id="aqCTc2BwgF-0Nsr38r-f-63" value="&amp;lt; performs" style="edgeLabel;html=1;align=center;verticalAlign=middle;resizable=0;points=[];" vertex="1" connectable="0" parent="aqCTc2BwgF-0Nsr38r-f-62">
          <mxGeometry x="0.1218" relative="1" as="geometry">
            <mxPoint x="-50" y="39" as="offset" />
          </mxGeometry>
        </mxCell>
        <mxCell id="aqCTc2BwgF-0Nsr38r-f-64" value="1" style="edgeLabel;html=1;align=center;verticalAlign=middle;resizable=0;points=[];" vertex="1" connectable="0" parent="aqCTc2BwgF-0Nsr38r-f-62">
          <mxGeometry x="-0.7998" y="-2" relative="1" as="geometry">
            <mxPoint x="12" y="-26" as="offset" />
          </mxGeometry>
        </mxCell>
        <mxCell id="aqCTc2BwgF-0Nsr38r-f-65" value="*" style="edgeLabel;html=1;align=center;verticalAlign=middle;resizable=0;points=[];" vertex="1" connectable="0" parent="aqCTc2BwgF-0Nsr38r-f-62">
          <mxGeometry x="0.7498" y="2" relative="1" as="geometry">
            <mxPoint x="-39" y="12" as="offset" />
          </mxGeometry>
        </mxCell>
        <mxCell id="aqCTc2BwgF-0Nsr38r-f-178" value="" style="edgeStyle=orthogonalEdgeStyle;rounded=0;orthogonalLoop=1;jettySize=auto;html=1;startArrow=none;startFill=0;endArrow=none;endFill=0;startSize=12;endSize=12;" edge="1" parent="aqCTc2BwgF-0Nsr38r-f-1" source="aqCTc2BwgF-0Nsr38r-f-67" target="aqCTc2BwgF-0Nsr38r-f-174">
          <mxGeometry relative="1" as="geometry" />
        </mxCell>
        <mxCell id="aqCTc2BwgF-0Nsr38r-f-180" value="1" style="edgeLabel;html=1;align=center;verticalAlign=middle;resizable=0;points=[];" vertex="1" connectable="0" parent="aqCTc2BwgF-0Nsr38r-f-178">
          <mxGeometry x="0.759" y="4" relative="1" as="geometry">
            <mxPoint x="-14" as="offset" />
          </mxGeometry>
        </mxCell>
        <mxCell id="aqCTc2BwgF-0Nsr38r-f-181" value="1" style="edgeLabel;html=1;align=center;verticalAlign=middle;resizable=0;points=[];" vertex="1" connectable="0" parent="aqCTc2BwgF-0Nsr38r-f-178">
          <mxGeometry x="-0.6386" y="-3" relative="1" as="geometry">
            <mxPoint x="9" as="offset" />
          </mxGeometry>
        </mxCell>
        <mxCell id="aqCTc2BwgF-0Nsr38r-f-67" value="Customer" style="swimlane;fontStyle=0;childLayout=stackLayout;horizontal=1;startSize=26;fillColor=none;horizontalStack=0;resizeParent=1;resizeParentMax=0;resizeLast=0;collapsible=1;marginBottom=0;" vertex="1" parent="aqCTc2BwgF-0Nsr38r-f-1">
          <mxGeometry x="882.71" y="257" width="140" height="52" as="geometry" />
        </mxCell>
        <mxCell id="aqCTc2BwgF-0Nsr38r-f-68" value="name" style="text;strokeColor=none;fillColor=none;align=left;verticalAlign=top;spacingLeft=4;spacingRight=4;overflow=hidden;rotatable=0;points=[[0,0.5],[1,0.5]];portConstraint=eastwest;" vertex="1" parent="aqCTc2BwgF-0Nsr38r-f-67">
          <mxGeometry y="26" width="140" height="26" as="geometry" />
        </mxCell>
        <mxCell id="aqCTc2BwgF-0Nsr38r-f-71" style="edgeStyle=orthogonalEdgeStyle;rounded=0;orthogonalLoop=1;jettySize=auto;html=1;endArrow=none;endFill=0;startArrow=diamond;startFill=0;endSize=11;startSize=12;" edge="1" parent="aqCTc2BwgF-0Nsr38r-f-1" source="aqCTc2BwgF-0Nsr38r-f-75" target="aqCTc2BwgF-0Nsr38r-f-8">
          <mxGeometry relative="1" as="geometry">
            <Array as="points">
              <mxPoint x="420" y="216" />
            </Array>
            <mxPoint x="429.9999999999998" y="161" as="targetPoint" />
          </mxGeometry>
        </mxCell>
        <mxCell id="aqCTc2BwgF-0Nsr38r-f-72" value="contains" style="edgeLabel;html=1;align=center;verticalAlign=middle;resizable=0;points=[];" vertex="1" connectable="0" parent="aqCTc2BwgF-0Nsr38r-f-71">
          <mxGeometry x="-0.4362" relative="1" as="geometry">
            <mxPoint x="-37" y="-20" as="offset" />
          </mxGeometry>
        </mxCell>
        <mxCell id="aqCTc2BwgF-0Nsr38r-f-73" value="*" style="edgeLabel;html=1;align=center;verticalAlign=middle;resizable=0;points=[];" vertex="1" connectable="0" parent="aqCTc2BwgF-0Nsr38r-f-71">
          <mxGeometry x="-0.844" y="1" relative="1" as="geometry">
            <mxPoint x="5" y="10" as="offset" />
          </mxGeometry>
        </mxCell>
        <mxCell id="aqCTc2BwgF-0Nsr38r-f-74" value="*" style="edgeLabel;html=1;align=center;verticalAlign=middle;resizable=0;points=[];" vertex="1" connectable="0" parent="aqCTc2BwgF-0Nsr38r-f-71">
          <mxGeometry x="0.7901" y="-1" relative="1" as="geometry">
            <mxPoint x="-11" y="-29" as="offset" />
          </mxGeometry>
        </mxCell>
        <mxCell id="aqCTc2BwgF-0Nsr38r-f-75" value="Wishlist" style="swimlane;fontStyle=0;childLayout=stackLayout;horizontal=1;startSize=26;fillColor=none;horizontalStack=0;resizeParent=1;resizeParentMax=0;resizeLast=0;collapsible=1;marginBottom=0;" vertex="1" parent="aqCTc2BwgF-0Nsr38r-f-1">
          <mxGeometry x="712.71" y="190" width="140" height="52" as="geometry" />
        </mxCell>
        <mxCell id="aqCTc2BwgF-0Nsr38r-f-248" style="edgeStyle=orthogonalEdgeStyle;rounded=0;orthogonalLoop=1;jettySize=auto;html=1;entryX=0.5;entryY=0;entryDx=0;entryDy=0;startArrow=none;startFill=0;endArrow=none;endFill=0;startSize=12;endSize=11;" edge="1" parent="aqCTc2BwgF-0Nsr38r-f-1" source="aqCTc2BwgF-0Nsr38r-f-76" target="aqCTc2BwgF-0Nsr38r-f-240">
          <mxGeometry relative="1" as="geometry">
            <Array as="points">
              <mxPoint x="790" y="820" />
              <mxPoint x="720" y="820" />
              <mxPoint x="720" y="930" />
              <mxPoint x="570" y="930" />
            </Array>
          </mxGeometry>
        </mxCell>
        <mxCell id="aqCTc2BwgF-0Nsr38r-f-262" value="*" style="edgeLabel;html=1;align=center;verticalAlign=middle;resizable=0;points=[];" vertex="1" connectable="0" parent="aqCTc2BwgF-0Nsr38r-f-248">
          <mxGeometry x="-0.956" relative="1" as="geometry">
            <mxPoint x="10" y="5" as="offset" />
          </mxGeometry>
        </mxCell>
        <mxCell id="aqCTc2BwgF-0Nsr38r-f-263" value="1" style="edgeLabel;html=1;align=center;verticalAlign=middle;resizable=0;points=[];" vertex="1" connectable="0" parent="aqCTc2BwgF-0Nsr38r-f-248">
          <mxGeometry x="0.9629" relative="1" as="geometry">
            <mxPoint x="10" as="offset" />
          </mxGeometry>
        </mxCell>
        <mxCell id="aqCTc2BwgF-0Nsr38r-f-250" style="edgeStyle=orthogonalEdgeStyle;rounded=0;orthogonalLoop=1;jettySize=auto;html=1;startArrow=none;startFill=0;endArrow=none;endFill=0;startSize=12;endSize=11;" edge="1" parent="aqCTc2BwgF-0Nsr38r-f-1" source="aqCTc2BwgF-0Nsr38r-f-76" target="aqCTc2BwgF-0Nsr38r-f-243">
          <mxGeometry relative="1" as="geometry">
            <Array as="points">
              <mxPoint x="850" y="986" />
            </Array>
          </mxGeometry>
        </mxCell>
        <mxCell id="aqCTc2BwgF-0Nsr38r-f-260" value="1" style="edgeLabel;html=1;align=center;verticalAlign=middle;resizable=0;points=[];" vertex="1" connectable="0" parent="aqCTc2BwgF-0Nsr38r-f-250">
          <mxGeometry x="-0.8921" y="-1" relative="1" as="geometry">
            <mxPoint x="11" as="offset" />
          </mxGeometry>
        </mxCell>
        <mxCell id="aqCTc2BwgF-0Nsr38r-f-265" value="1" style="edgeLabel;html=1;align=center;verticalAlign=middle;resizable=0;points=[];" vertex="1" connectable="0" parent="aqCTc2BwgF-0Nsr38r-f-250">
          <mxGeometry x="0.9254" y="1" relative="1" as="geometry">
            <mxPoint y="-15" as="offset" />
          </mxGeometry>
        </mxCell>
        <mxCell id="aqCTc2BwgF-0Nsr38r-f-251" style="edgeStyle=orthogonalEdgeStyle;rounded=0;orthogonalLoop=1;jettySize=auto;html=1;startArrow=none;startFill=0;endArrow=none;endFill=0;startSize=12;endSize=11;" edge="1" parent="aqCTc2BwgF-0Nsr38r-f-1" source="aqCTc2BwgF-0Nsr38r-f-76" target="aqCTc2BwgF-0Nsr38r-f-246">
          <mxGeometry relative="1" as="geometry">
            <Array as="points">
              <mxPoint x="910" y="830" />
            </Array>
          </mxGeometry>
        </mxCell>
        <mxCell id="aqCTc2BwgF-0Nsr38r-f-256" value="*" style="edgeLabel;html=1;align=center;verticalAlign=middle;resizable=0;points=[];" vertex="1" connectable="0" parent="aqCTc2BwgF-0Nsr38r-f-251">
          <mxGeometry x="-0.8722" y="-2" relative="1" as="geometry">
            <mxPoint x="12" as="offset" />
          </mxGeometry>
        </mxCell>
        <mxCell id="aqCTc2BwgF-0Nsr38r-f-257" value="1" style="edgeLabel;html=1;align=center;verticalAlign=middle;resizable=0;points=[];" vertex="1" connectable="0" parent="aqCTc2BwgF-0Nsr38r-f-251">
          <mxGeometry x="0.9099" y="1" relative="1" as="geometry">
            <mxPoint y="-9" as="offset" />
          </mxGeometry>
        </mxCell>
        <mxCell id="aqCTc2BwgF-0Nsr38r-f-252" style="edgeStyle=orthogonalEdgeStyle;rounded=0;orthogonalLoop=1;jettySize=auto;html=1;startArrow=none;startFill=0;endArrow=none;endFill=0;startSize=12;endSize=11;" edge="1" parent="aqCTc2BwgF-0Nsr38r-f-1" source="aqCTc2BwgF-0Nsr38r-f-76" target="aqCTc2BwgF-0Nsr38r-f-244">
          <mxGeometry relative="1" as="geometry">
            <Array as="points">
              <mxPoint x="880" y="900" />
            </Array>
          </mxGeometry>
        </mxCell>
        <mxCell id="aqCTc2BwgF-0Nsr38r-f-258" value="1" style="edgeLabel;html=1;align=center;verticalAlign=middle;resizable=0;points=[];" vertex="1" connectable="0" parent="aqCTc2BwgF-0Nsr38r-f-252">
          <mxGeometry x="0.9451" y="-2" relative="1" as="geometry">
            <mxPoint y="12" as="offset" />
          </mxGeometry>
        </mxCell>
        <mxCell id="aqCTc2BwgF-0Nsr38r-f-259" value="*" style="edgeLabel;html=1;align=center;verticalAlign=middle;resizable=0;points=[];" vertex="1" connectable="0" parent="aqCTc2BwgF-0Nsr38r-f-252">
          <mxGeometry x="-0.8317" y="1" relative="1" as="geometry">
            <mxPoint x="9" y="-14" as="offset" />
          </mxGeometry>
        </mxCell>
        <mxCell id="aqCTc2BwgF-0Nsr38r-f-253" style="edgeStyle=orthogonalEdgeStyle;rounded=0;orthogonalLoop=1;jettySize=auto;html=1;startArrow=none;startFill=0;endArrow=none;endFill=0;startSize=12;endSize=11;" edge="1" parent="aqCTc2BwgF-0Nsr38r-f-1" source="aqCTc2BwgF-0Nsr38r-f-76" target="aqCTc2BwgF-0Nsr38r-f-242">
          <mxGeometry relative="1" as="geometry">
            <Array as="points">
              <mxPoint x="820" y="878" />
              <mxPoint x="750" y="878" />
            </Array>
          </mxGeometry>
        </mxCell>
        <mxCell id="aqCTc2BwgF-0Nsr38r-f-261" value="*" style="edgeLabel;html=1;align=center;verticalAlign=middle;resizable=0;points=[];" vertex="1" connectable="0" parent="aqCTc2BwgF-0Nsr38r-f-253">
          <mxGeometry x="-0.9205" relative="1" as="geometry">
            <mxPoint x="10" y="4" as="offset" />
          </mxGeometry>
        </mxCell>
        <mxCell id="aqCTc2BwgF-0Nsr38r-f-264" value="1" style="edgeLabel;html=1;align=center;verticalAlign=middle;resizable=0;points=[];" vertex="1" connectable="0" parent="aqCTc2BwgF-0Nsr38r-f-253">
          <mxGeometry x="0.9343" y="-1" relative="1" as="geometry">
            <mxPoint x="11" as="offset" />
          </mxGeometry>
        </mxCell>
        <mxCell id="aqCTc2BwgF-0Nsr38r-f-76" value="Address" style="swimlane;fontStyle=0;childLayout=stackLayout;horizontal=1;startSize=26;fillColor=none;horizontalStack=0;resizeParent=1;resizeParentMax=0;resizeLast=0;collapsible=1;marginBottom=0;" vertex="1" parent="aqCTc2BwgF-0Nsr38r-f-1">
          <mxGeometry x="780" y="744.67" width="140" height="52" as="geometry" />
        </mxCell>
        <mxCell id="aqCTc2BwgF-0Nsr38r-f-82" style="edgeStyle=orthogonalEdgeStyle;rounded=0;orthogonalLoop=1;jettySize=auto;html=1;entryX=0.5;entryY=0;entryDx=0;entryDy=0;endArrow=none;endFill=0;startArrow=none;startFill=0;" edge="1" parent="aqCTc2BwgF-0Nsr38r-f-1" source="aqCTc2BwgF-0Nsr38r-f-92" target="aqCTc2BwgF-0Nsr38r-f-94">
          <mxGeometry relative="1" as="geometry">
            <Array as="points" />
          </mxGeometry>
        </mxCell>
        <mxCell id="aqCTc2BwgF-0Nsr38r-f-83" value="*" style="edgeLabel;html=1;align=center;verticalAlign=middle;resizable=0;points=[];" vertex="1" connectable="0" parent="aqCTc2BwgF-0Nsr38r-f-82">
          <mxGeometry x="-0.6624" y="3" relative="1" as="geometry">
            <mxPoint x="7" y="8" as="offset" />
          </mxGeometry>
        </mxCell>
        <mxCell id="aqCTc2BwgF-0Nsr38r-f-84" value="1" style="edgeLabel;html=1;align=center;verticalAlign=middle;resizable=0;points=[];" vertex="1" connectable="0" parent="aqCTc2BwgF-0Nsr38r-f-82">
          <mxGeometry x="0.7827" y="-1" relative="1" as="geometry">
            <mxPoint x="11" as="offset" />
          </mxGeometry>
        </mxCell>
        <mxCell id="aqCTc2BwgF-0Nsr38r-f-86" style="edgeStyle=orthogonalEdgeStyle;rounded=0;orthogonalLoop=1;jettySize=auto;html=1;startArrow=none;startFill=0;endArrow=none;endFill=0;" edge="1" parent="aqCTc2BwgF-0Nsr38r-f-1" source="aqCTc2BwgF-0Nsr38r-f-92" target="aqCTc2BwgF-0Nsr38r-f-46">
          <mxGeometry relative="1" as="geometry">
            <Array as="points">
              <mxPoint x="783" y="560" />
              <mxPoint x="410" y="560" />
              <mxPoint x="410" y="484" />
            </Array>
          </mxGeometry>
        </mxCell>
        <mxCell id="aqCTc2BwgF-0Nsr38r-f-87" value="&amp;lt; fulfilled by" style="edgeLabel;html=1;align=center;verticalAlign=middle;resizable=0;points=[];" vertex="1" connectable="0" parent="aqCTc2BwgF-0Nsr38r-f-86">
          <mxGeometry x="-0.1625" relative="1" as="geometry">
            <mxPoint x="-8.170000000000002" y="-1" as="offset" />
          </mxGeometry>
        </mxCell>
        <mxCell id="aqCTc2BwgF-0Nsr38r-f-88" value="1" style="edgeLabel;html=1;align=center;verticalAlign=middle;resizable=0;points=[];" vertex="1" connectable="0" parent="aqCTc2BwgF-0Nsr38r-f-86">
          <mxGeometry x="-0.8855" y="2" relative="1" as="geometry">
            <mxPoint y="7.97" as="offset" />
          </mxGeometry>
        </mxCell>
        <mxCell id="aqCTc2BwgF-0Nsr38r-f-89" value="1" style="edgeLabel;html=1;align=center;verticalAlign=middle;resizable=0;points=[];" vertex="1" connectable="0" parent="aqCTc2BwgF-0Nsr38r-f-86">
          <mxGeometry x="0.8365" y="-1" relative="1" as="geometry">
            <mxPoint x="-17" y="13" as="offset" />
          </mxGeometry>
        </mxCell>
        <mxCell id="aqCTc2BwgF-0Nsr38r-f-90" style="edgeStyle=orthogonalEdgeStyle;rounded=0;orthogonalLoop=1;jettySize=auto;html=1;endArrow=none;endFill=0;" edge="1" parent="aqCTc2BwgF-0Nsr38r-f-1" source="aqCTc2BwgF-0Nsr38r-f-92" target="aqCTc2BwgF-0Nsr38r-f-125">
          <mxGeometry relative="1" as="geometry">
            <Array as="points">
              <mxPoint x="717.5699999999999" y="480" />
              <mxPoint x="1172.57" y="480" />
            </Array>
          </mxGeometry>
        </mxCell>
        <mxCell id="aqCTc2BwgF-0Nsr38r-f-91" value="paid by &amp;gt;" style="edgeLabel;html=1;align=center;verticalAlign=middle;resizable=0;points=[];" vertex="1" connectable="0" parent="aqCTc2BwgF-0Nsr38r-f-90">
          <mxGeometry x="-0.5345" y="-2" relative="1" as="geometry">
            <mxPoint x="134" y="-6" as="offset" />
          </mxGeometry>
        </mxCell>
        <mxCell id="aqCTc2BwgF-0Nsr38r-f-238" value="1" style="edgeLabel;html=1;align=center;verticalAlign=middle;resizable=0;points=[];" vertex="1" connectable="0" parent="aqCTc2BwgF-0Nsr38r-f-90">
          <mxGeometry x="0.8027" y="1" relative="1" as="geometry">
            <mxPoint x="8" y="-54" as="offset" />
          </mxGeometry>
        </mxCell>
        <mxCell id="aqCTc2BwgF-0Nsr38r-f-239" value="*" style="edgeLabel;html=1;align=center;verticalAlign=middle;resizable=0;points=[];" vertex="1" connectable="0" parent="aqCTc2BwgF-0Nsr38r-f-90">
          <mxGeometry x="-0.9457" y="-1" relative="1" as="geometry">
            <mxPoint x="11" y="4" as="offset" />
          </mxGeometry>
        </mxCell>
        <mxCell id="aqCTc2BwgF-0Nsr38r-f-92" value="Payment" style="swimlane;fontStyle=0;childLayout=stackLayout;horizontal=1;startSize=26;fillColor=none;horizontalStack=0;resizeParent=1;resizeParentMax=0;resizeLast=0;collapsible=1;marginBottom=0;" vertex="1" parent="aqCTc2BwgF-0Nsr38r-f-1">
          <mxGeometry x="652.71" y="530" width="140" height="52" as="geometry" />
        </mxCell>
        <mxCell id="aqCTc2BwgF-0Nsr38r-f-93" value="amount" style="text;strokeColor=none;fillColor=none;align=left;verticalAlign=top;spacingLeft=4;spacingRight=4;overflow=hidden;rotatable=0;points=[[0,0.5],[1,0.5]];portConstraint=eastwest;" vertex="1" parent="aqCTc2BwgF-0Nsr38r-f-92">
          <mxGeometry y="26" width="140" height="26" as="geometry" />
        </mxCell>
        <mxCell id="aqCTc2BwgF-0Nsr38r-f-94" value="PaymentType" style="swimlane;fontStyle=0;childLayout=stackLayout;horizontal=1;startSize=20;fillColor=none;horizontalStack=0;resizeParent=1;resizeParentMax=0;resizeLast=0;collapsible=1;marginBottom=0;" vertex="1" parent="aqCTc2BwgF-0Nsr38r-f-1">
          <mxGeometry x="652.71" y="645" width="140" height="52" as="geometry" />
        </mxCell>
        <mxCell id="aqCTc2BwgF-0Nsr38r-f-95" style="edgeStyle=orthogonalEdgeStyle;rounded=0;orthogonalLoop=1;jettySize=auto;html=1;startArrow=diamond;startFill=0;endArrow=none;endFill=0;startSize=12;exitX=0.5;exitY=0;exitDx=0;exitDy=0;" edge="1" parent="aqCTc2BwgF-0Nsr38r-f-1" source="aqCTc2BwgF-0Nsr38r-f-131" target="aqCTc2BwgF-0Nsr38r-f-107">
          <mxGeometry relative="1" as="geometry">
            <Array as="points">
              <mxPoint x="90" y="410" />
              <mxPoint x="90" y="410" />
            </Array>
            <mxPoint x="90" y="490" as="sourcePoint" />
          </mxGeometry>
        </mxCell>
        <mxCell id="aqCTc2BwgF-0Nsr38r-f-97" value="1" style="edgeLabel;html=1;align=center;verticalAlign=middle;resizable=0;points=[];" vertex="1" connectable="0" parent="aqCTc2BwgF-0Nsr38r-f-95">
          <mxGeometry x="0.587" y="-1" relative="1" as="geometry">
            <mxPoint x="9" y="-12" as="offset" />
          </mxGeometry>
        </mxCell>
        <mxCell id="aqCTc2BwgF-0Nsr38r-f-98" value="1" style="edgeLabel;html=1;align=center;verticalAlign=middle;resizable=0;points=[];" vertex="1" connectable="0" parent="aqCTc2BwgF-0Nsr38r-f-95">
          <mxGeometry x="-0.6739" relative="1" as="geometry">
            <mxPoint x="10" y="4" as="offset" />
          </mxGeometry>
        </mxCell>
        <mxCell id="aqCTc2BwgF-0Nsr38r-f-99" style="edgeStyle=orthogonalEdgeStyle;rounded=0;orthogonalLoop=1;jettySize=auto;html=1;startArrow=none;startFill=0;endArrow=none;endFill=0;" edge="1" parent="aqCTc2BwgF-0Nsr38r-f-1" source="aqCTc2BwgF-0Nsr38r-f-103">
          <mxGeometry relative="1" as="geometry">
            <mxPoint x="80" y="861.67" as="targetPoint" />
          </mxGeometry>
        </mxCell>
        <mxCell id="aqCTc2BwgF-0Nsr38r-f-101" value="*" style="edgeLabel;html=1;align=center;verticalAlign=middle;resizable=0;points=[];" vertex="1" connectable="0" parent="aqCTc2BwgF-0Nsr38r-f-99">
          <mxGeometry x="-0.8353" relative="1" as="geometry">
            <mxPoint x="4" y="-12" as="offset" />
          </mxGeometry>
        </mxCell>
        <mxCell id="aqCTc2BwgF-0Nsr38r-f-102" value="1" style="edgeLabel;html=1;align=center;verticalAlign=middle;resizable=0;points=[];" vertex="1" connectable="0" parent="aqCTc2BwgF-0Nsr38r-f-99">
          <mxGeometry x="0.8353" y="1" relative="1" as="geometry">
            <mxPoint x="9" y="9" as="offset" />
          </mxGeometry>
        </mxCell>
        <mxCell id="aqCTc2BwgF-0Nsr38r-f-143" style="edgeStyle=orthogonalEdgeStyle;rounded=0;orthogonalLoop=1;jettySize=auto;html=1;entryX=0.5;entryY=0;entryDx=0;entryDy=0;startArrow=none;startFill=0;endArrow=none;endFill=0;startSize=12;endSize=12;" edge="1" parent="aqCTc2BwgF-0Nsr38r-f-1" source="aqCTc2BwgF-0Nsr38r-f-103" target="aqCTc2BwgF-0Nsr38r-f-138">
          <mxGeometry relative="1" as="geometry">
            <Array as="points">
              <mxPoint x="280" y="829" />
              <mxPoint x="230" y="829" />
              <mxPoint x="230" y="862" />
            </Array>
          </mxGeometry>
        </mxCell>
        <mxCell id="aqCTc2BwgF-0Nsr38r-f-234" value="1" style="edgeLabel;html=1;align=center;verticalAlign=middle;resizable=0;points=[];" vertex="1" connectable="0" parent="aqCTc2BwgF-0Nsr38r-f-143">
          <mxGeometry x="-0.8112" y="4" relative="1" as="geometry">
            <mxPoint as="offset" />
          </mxGeometry>
        </mxCell>
        <mxCell id="aqCTc2BwgF-0Nsr38r-f-235" value="1" style="edgeLabel;html=1;align=center;verticalAlign=middle;resizable=0;points=[];" vertex="1" connectable="0" parent="aqCTc2BwgF-0Nsr38r-f-143">
          <mxGeometry x="0.7551" y="-2" relative="1" as="geometry">
            <mxPoint x="12" as="offset" />
          </mxGeometry>
        </mxCell>
        <mxCell id="aqCTc2BwgF-0Nsr38r-f-144" style="edgeStyle=orthogonalEdgeStyle;rounded=0;orthogonalLoop=1;jettySize=auto;html=1;entryX=0.5;entryY=0;entryDx=0;entryDy=0;startArrow=none;startFill=0;endArrow=none;endFill=0;startSize=12;endSize=12;" edge="1" parent="aqCTc2BwgF-0Nsr38r-f-1" source="aqCTc2BwgF-0Nsr38r-f-103" target="aqCTc2BwgF-0Nsr38r-f-140">
          <mxGeometry relative="1" as="geometry">
            <Array as="points">
              <mxPoint x="360" y="829" />
              <mxPoint x="410" y="829" />
            </Array>
          </mxGeometry>
        </mxCell>
        <mxCell id="aqCTc2BwgF-0Nsr38r-f-236" value="1" style="edgeLabel;html=1;align=center;verticalAlign=middle;resizable=0;points=[];" vertex="1" connectable="0" parent="aqCTc2BwgF-0Nsr38r-f-144">
          <mxGeometry x="-0.8203" relative="1" as="geometry">
            <mxPoint x="10" as="offset" />
          </mxGeometry>
        </mxCell>
        <mxCell id="aqCTc2BwgF-0Nsr38r-f-237" value="1" style="edgeLabel;html=1;align=center;verticalAlign=middle;resizable=0;points=[];" vertex="1" connectable="0" parent="aqCTc2BwgF-0Nsr38r-f-144">
          <mxGeometry x="0.7623" relative="1" as="geometry">
            <mxPoint x="10" as="offset" />
          </mxGeometry>
        </mxCell>
        <mxCell id="aqCTc2BwgF-0Nsr38r-f-145" style="edgeStyle=orthogonalEdgeStyle;rounded=0;orthogonalLoop=1;jettySize=auto;html=1;startArrow=none;startFill=0;endArrow=none;endFill=0;startSize=12;endSize=12;" edge="1" parent="aqCTc2BwgF-0Nsr38r-f-1" source="aqCTc2BwgF-0Nsr38r-f-103" target="aqCTc2BwgF-0Nsr38r-f-136">
          <mxGeometry relative="1" as="geometry" />
        </mxCell>
        <mxCell id="aqCTc2BwgF-0Nsr38r-f-232" value="1" style="edgeLabel;html=1;align=center;verticalAlign=middle;resizable=0;points=[];" vertex="1" connectable="0" parent="aqCTc2BwgF-0Nsr38r-f-145">
          <mxGeometry x="0.762" y="-4" relative="1" as="geometry">
            <mxPoint x="14" y="16" as="offset" />
          </mxGeometry>
        </mxCell>
        <mxCell id="aqCTc2BwgF-0Nsr38r-f-233" value="1" style="edgeLabel;html=1;align=center;verticalAlign=middle;resizable=0;points=[];" vertex="1" connectable="0" parent="aqCTc2BwgF-0Nsr38r-f-145">
          <mxGeometry x="-0.8779" y="2" relative="1" as="geometry">
            <mxPoint x="-4" y="-9" as="offset" />
          </mxGeometry>
        </mxCell>
        <mxCell id="aqCTc2BwgF-0Nsr38r-f-103" value="Delivery" style="swimlane;fontStyle=0;childLayout=stackLayout;horizontal=1;startSize=26;fillColor=none;horizontalStack=0;resizeParent=1;resizeParentMax=0;resizeLast=0;collapsible=1;marginBottom=0;" vertex="1" parent="aqCTc2BwgF-0Nsr38r-f-1">
          <mxGeometry x="240" y="744.67" width="160" height="52" as="geometry" />
        </mxCell>
        <mxCell id="aqCTc2BwgF-0Nsr38r-f-123" value="DeliveryMethod" style="swimlane;fontStyle=0;childLayout=stackLayout;horizontal=1;startSize=26;fillColor=none;horizontalStack=0;resizeParent=1;resizeParentMax=0;resizeLast=0;collapsible=1;marginBottom=0;" vertex="1" parent="aqCTc2BwgF-0Nsr38r-f-1">
          <mxGeometry x="-20" y="861.67" width="140" height="52" as="geometry" />
        </mxCell>
        <mxCell id="aqCTc2BwgF-0Nsr38r-f-124" value="name" style="text;strokeColor=none;fillColor=none;align=left;verticalAlign=top;spacingLeft=4;spacingRight=4;overflow=hidden;rotatable=0;points=[[0,0.5],[1,0.5]];portConstraint=eastwest;" vertex="1" parent="aqCTc2BwgF-0Nsr38r-f-123">
          <mxGeometry y="26" width="140" height="26" as="geometry" />
        </mxCell>
        <mxCell id="aqCTc2BwgF-0Nsr38r-f-173" style="edgeStyle=orthogonalEdgeStyle;rounded=0;orthogonalLoop=1;jettySize=auto;html=1;startArrow=none;startFill=0;endArrow=diamond;endFill=1;startSize=12;endSize=12;" edge="1" parent="aqCTc2BwgF-0Nsr38r-f-1" source="aqCTc2BwgF-0Nsr38r-f-125" target="aqCTc2BwgF-0Nsr38r-f-67">
          <mxGeometry relative="1" as="geometry" />
        </mxCell>
        <mxCell id="aqCTc2BwgF-0Nsr38r-f-125" value="PaymentInfo" style="swimlane;fontStyle=0;childLayout=stackLayout;horizontal=1;startSize=20;fillColor=none;horizontalStack=0;resizeParent=1;resizeParentMax=0;resizeLast=0;collapsible=1;marginBottom=0;" vertex="1" parent="aqCTc2BwgF-0Nsr38r-f-1">
          <mxGeometry x="1102.71" y="260" width="140" height="46" as="geometry" />
        </mxCell>
        <mxCell id="aqCTc2BwgF-0Nsr38r-f-185" style="edgeStyle=orthogonalEdgeStyle;rounded=0;orthogonalLoop=1;jettySize=auto;html=1;startArrow=none;startFill=0;endArrow=none;endFill=0;startSize=12;endSize=11;" edge="1" parent="aqCTc2BwgF-0Nsr38r-f-1" source="aqCTc2BwgF-0Nsr38r-f-130">
          <mxGeometry relative="1" as="geometry">
            <mxPoint x="310" y="70" as="targetPoint" />
            <Array as="points">
              <mxPoint x="90" y="20" />
              <mxPoint x="310" y="20" />
            </Array>
          </mxGeometry>
        </mxCell>
        <mxCell id="aqCTc2BwgF-0Nsr38r-f-189" value="1" style="edgeLabel;html=1;align=center;verticalAlign=middle;resizable=0;points=[];" vertex="1" connectable="0" parent="aqCTc2BwgF-0Nsr38r-f-185">
          <mxGeometry x="-0.9464" y="-1" relative="1" as="geometry">
            <mxPoint x="11" as="offset" />
          </mxGeometry>
        </mxCell>
        <mxCell id="aqCTc2BwgF-0Nsr38r-f-190" value="1" style="edgeLabel;html=1;align=center;verticalAlign=middle;resizable=0;points=[];" vertex="1" connectable="0" parent="aqCTc2BwgF-0Nsr38r-f-185">
          <mxGeometry x="0.9119" y="-1" relative="1" as="geometry">
            <mxPoint x="-9" as="offset" />
          </mxGeometry>
        </mxCell>
        <mxCell id="aqCTc2BwgF-0Nsr38r-f-130" value="Price" style="swimlane;fontStyle=0;childLayout=stackLayout;horizontal=1;startSize=26;fillColor=none;horizontalStack=0;resizeParent=1;resizeParentMax=0;resizeLast=0;collapsible=1;marginBottom=0;" vertex="1" parent="aqCTc2BwgF-0Nsr38r-f-1">
          <mxGeometry x="20" y="-90" width="140" height="52" as="geometry" />
        </mxCell>
        <mxCell id="aqCTc2BwgF-0Nsr38r-f-135" style="edgeStyle=orthogonalEdgeStyle;rounded=0;orthogonalLoop=1;jettySize=auto;html=1;startArrow=none;startFill=0;endArrow=block;endFill=0;startSize=12;endSize=12;" edge="1" parent="aqCTc2BwgF-0Nsr38r-f-1" source="aqCTc2BwgF-0Nsr38r-f-131" target="aqCTc2BwgF-0Nsr38r-f-46">
          <mxGeometry relative="1" as="geometry">
            <Array as="points">
              <mxPoint x="290" y="458" />
            </Array>
          </mxGeometry>
        </mxCell>
        <mxCell id="aqCTc2BwgF-0Nsr38r-f-131" value="PrescriptionOrder" style="swimlane;fontStyle=0;childLayout=stackLayout;horizontal=1;startSize=26;fillColor=none;horizontalStack=0;resizeParent=1;resizeParentMax=0;resizeLast=0;collapsible=1;marginBottom=0;" vertex="1" parent="aqCTc2BwgF-0Nsr38r-f-1">
          <mxGeometry x="20" y="432" width="140" height="52" as="geometry" />
        </mxCell>
        <mxCell id="aqCTc2BwgF-0Nsr38r-f-136" value="Cost" style="swimlane;fontStyle=0;childLayout=stackLayout;horizontal=1;startSize=26;fillColor=none;horizontalStack=0;resizeParent=1;resizeParentMax=0;resizeLast=0;collapsible=1;marginBottom=0;" vertex="1" parent="aqCTc2BwgF-0Nsr38r-f-1">
          <mxGeometry x="490" y="861.67" width="80" height="52" as="geometry" />
        </mxCell>
        <mxCell id="aqCTc2BwgF-0Nsr38r-f-138" value="EstimatedDeliveryDate" style="swimlane;fontStyle=0;childLayout=stackLayout;horizontal=1;startSize=26;fillColor=none;horizontalStack=0;resizeParent=1;resizeParentMax=0;resizeLast=0;collapsible=1;marginBottom=0;" vertex="1" parent="aqCTc2BwgF-0Nsr38r-f-1">
          <mxGeometry x="160" y="861.67" width="150" height="52" as="geometry" />
        </mxCell>
        <mxCell id="aqCTc2BwgF-0Nsr38r-f-140" value="TrackingId" style="swimlane;fontStyle=0;childLayout=stackLayout;horizontal=1;startSize=26;fillColor=none;horizontalStack=0;resizeParent=1;resizeParentMax=0;resizeLast=0;collapsible=1;marginBottom=0;" vertex="1" parent="aqCTc2BwgF-0Nsr38r-f-1">
          <mxGeometry x="360" y="861.67" width="100" height="52" as="geometry" />
        </mxCell>
        <mxCell id="aqCTc2BwgF-0Nsr38r-f-150" style="edgeStyle=orthogonalEdgeStyle;rounded=0;orthogonalLoop=1;jettySize=auto;html=1;startArrow=none;startFill=0;endArrow=block;endFill=0;startSize=12;endSize=12;" edge="1" parent="aqCTc2BwgF-0Nsr38r-f-1" source="aqCTc2BwgF-0Nsr38r-f-146" target="aqCTc2BwgF-0Nsr38r-f-46">
          <mxGeometry relative="1" as="geometry">
            <Array as="points">
              <mxPoint x="330" y="458" />
            </Array>
          </mxGeometry>
        </mxCell>
        <mxCell id="aqCTc2BwgF-0Nsr38r-f-146" value="ProductsOrder" style="swimlane;fontStyle=0;childLayout=stackLayout;horizontal=1;startSize=26;fillColor=none;horizontalStack=0;resizeParent=1;resizeParentMax=0;resizeLast=0;collapsible=1;marginBottom=0;" vertex="1" parent="aqCTc2BwgF-0Nsr38r-f-1">
          <mxGeometry x="470" y="432" width="140" height="52" as="geometry" />
        </mxCell>
        <mxCell id="aqCTc2BwgF-0Nsr38r-f-151" value="Name" style="swimlane;fontStyle=0;childLayout=stackLayout;horizontal=1;startSize=26;fillColor=none;horizontalStack=0;resizeParent=1;resizeParentMax=0;resizeLast=0;collapsible=1;marginBottom=0;" vertex="1" parent="aqCTc2BwgF-0Nsr38r-f-1">
          <mxGeometry x="1514.57" y="165" width="140" height="52" as="geometry" />
        </mxCell>
        <mxCell id="aqCTc2BwgF-0Nsr38r-f-152" value="Number" style="swimlane;fontStyle=0;childLayout=stackLayout;horizontal=1;startSize=26;fillColor=none;horizontalStack=0;resizeParent=1;resizeParentMax=0;resizeLast=0;collapsible=1;marginBottom=0;" vertex="1" parent="aqCTc2BwgF-0Nsr38r-f-1">
          <mxGeometry x="1514.57" y="235" width="140" height="52" as="geometry" />
        </mxCell>
        <mxCell id="aqCTc2BwgF-0Nsr38r-f-153" value="SecurityCode" style="swimlane;fontStyle=0;childLayout=stackLayout;horizontal=1;startSize=26;fillColor=none;horizontalStack=0;resizeParent=1;resizeParentMax=0;resizeLast=0;collapsible=1;marginBottom=0;" vertex="1" parent="aqCTc2BwgF-0Nsr38r-f-1">
          <mxGeometry x="1514.57" y="309" width="140" height="52" as="geometry" />
        </mxCell>
        <mxCell id="aqCTc2BwgF-0Nsr38r-f-154" value="ExpiryDate" style="swimlane;fontStyle=0;childLayout=stackLayout;horizontal=1;startSize=26;fillColor=none;horizontalStack=0;resizeParent=1;resizeParentMax=0;resizeLast=0;collapsible=1;marginBottom=0;" vertex="1" parent="aqCTc2BwgF-0Nsr38r-f-1">
          <mxGeometry x="1514.57" y="375" width="140" height="52" as="geometry" />
        </mxCell>
        <mxCell id="aqCTc2BwgF-0Nsr38r-f-158" style="edgeStyle=orthogonalEdgeStyle;rounded=0;orthogonalLoop=1;jettySize=auto;html=1;startArrow=none;startFill=0;endArrow=block;endFill=0;startSize=12;endSize=12;" edge="1" parent="aqCTc2BwgF-0Nsr38r-f-1" source="aqCTc2BwgF-0Nsr38r-f-156" target="aqCTc2BwgF-0Nsr38r-f-125">
          <mxGeometry relative="1" as="geometry" />
        </mxCell>
        <mxCell id="aqCTc2BwgF-0Nsr38r-f-159" style="edgeStyle=orthogonalEdgeStyle;rounded=0;orthogonalLoop=1;jettySize=auto;html=1;entryX=0;entryY=0.5;entryDx=0;entryDy=0;startArrow=none;startFill=0;endArrow=none;endFill=0;startSize=12;endSize=12;" edge="1" parent="aqCTc2BwgF-0Nsr38r-f-1" source="aqCTc2BwgF-0Nsr38r-f-156" target="aqCTc2BwgF-0Nsr38r-f-151">
          <mxGeometry relative="1" as="geometry">
            <Array as="points">
              <mxPoint x="1374.57" y="191" />
            </Array>
          </mxGeometry>
        </mxCell>
        <mxCell id="aqCTc2BwgF-0Nsr38r-f-167" value="1" style="edgeLabel;html=1;align=center;verticalAlign=middle;resizable=0;points=[];" vertex="1" connectable="0" parent="aqCTc2BwgF-0Nsr38r-f-159">
          <mxGeometry x="-0.9227" relative="1" as="geometry">
            <mxPoint x="10" y="-5" as="offset" />
          </mxGeometry>
        </mxCell>
        <mxCell id="aqCTc2BwgF-0Nsr38r-f-168" value="1" style="edgeLabel;html=1;align=center;verticalAlign=middle;resizable=0;points=[];" vertex="1" connectable="0" parent="aqCTc2BwgF-0Nsr38r-f-159">
          <mxGeometry x="0.8068" y="1" relative="1" as="geometry">
            <mxPoint x="10" y="13" as="offset" />
          </mxGeometry>
        </mxCell>
        <mxCell id="aqCTc2BwgF-0Nsr38r-f-160" style="edgeStyle=orthogonalEdgeStyle;rounded=0;orthogonalLoop=1;jettySize=auto;html=1;entryX=0;entryY=0.5;entryDx=0;entryDy=0;startArrow=none;startFill=0;endArrow=none;endFill=0;startSize=12;endSize=12;" edge="1" parent="aqCTc2BwgF-0Nsr38r-f-1" source="aqCTc2BwgF-0Nsr38r-f-156" target="aqCTc2BwgF-0Nsr38r-f-152">
          <mxGeometry relative="1" as="geometry" />
        </mxCell>
        <mxCell id="aqCTc2BwgF-0Nsr38r-f-169" value="1" style="edgeLabel;html=1;align=center;verticalAlign=middle;resizable=0;points=[];" vertex="1" connectable="0" parent="aqCTc2BwgF-0Nsr38r-f-160">
          <mxGeometry x="-0.828" y="-2" relative="1" as="geometry">
            <mxPoint y="-11" as="offset" />
          </mxGeometry>
        </mxCell>
        <mxCell id="aqCTc2BwgF-0Nsr38r-f-170" value="1" style="edgeLabel;html=1;align=center;verticalAlign=middle;resizable=0;points=[];" vertex="1" connectable="0" parent="aqCTc2BwgF-0Nsr38r-f-160">
          <mxGeometry x="0.8065" y="-2" relative="1" as="geometry">
            <mxPoint y="12" as="offset" />
          </mxGeometry>
        </mxCell>
        <mxCell id="aqCTc2BwgF-0Nsr38r-f-161" style="edgeStyle=orthogonalEdgeStyle;rounded=0;orthogonalLoop=1;jettySize=auto;html=1;startArrow=none;startFill=0;endArrow=none;endFill=0;startSize=12;endSize=12;" edge="1" parent="aqCTc2BwgF-0Nsr38r-f-1" source="aqCTc2BwgF-0Nsr38r-f-156" target="aqCTc2BwgF-0Nsr38r-f-153">
          <mxGeometry relative="1" as="geometry">
            <Array as="points">
              <mxPoint x="1414.57" y="335" />
            </Array>
          </mxGeometry>
        </mxCell>
        <mxCell id="aqCTc2BwgF-0Nsr38r-f-164" value="1" style="edgeLabel;html=1;align=center;verticalAlign=middle;resizable=0;points=[];" vertex="1" connectable="0" parent="aqCTc2BwgF-0Nsr38r-f-161">
          <mxGeometry x="-0.6286" y="-1" relative="1" as="geometry">
            <mxPoint x="11" y="-10" as="offset" />
          </mxGeometry>
        </mxCell>
        <mxCell id="aqCTc2BwgF-0Nsr38r-f-171" value="1" style="edgeLabel;html=1;align=center;verticalAlign=middle;resizable=0;points=[];" vertex="1" connectable="0" parent="aqCTc2BwgF-0Nsr38r-f-161">
          <mxGeometry x="0.808" y="3" relative="1" as="geometry">
            <mxPoint y="-7" as="offset" />
          </mxGeometry>
        </mxCell>
        <mxCell id="aqCTc2BwgF-0Nsr38r-f-162" style="edgeStyle=orthogonalEdgeStyle;rounded=0;orthogonalLoop=1;jettySize=auto;html=1;startArrow=none;startFill=0;endArrow=none;endFill=0;startSize=12;endSize=12;" edge="1" parent="aqCTc2BwgF-0Nsr38r-f-1" source="aqCTc2BwgF-0Nsr38r-f-156" target="aqCTc2BwgF-0Nsr38r-f-154">
          <mxGeometry relative="1" as="geometry">
            <Array as="points">
              <mxPoint x="1374.57" y="401" />
            </Array>
          </mxGeometry>
        </mxCell>
        <mxCell id="aqCTc2BwgF-0Nsr38r-f-165" value="1" style="edgeLabel;html=1;align=center;verticalAlign=middle;resizable=0;points=[];" vertex="1" connectable="0" parent="aqCTc2BwgF-0Nsr38r-f-162">
          <mxGeometry x="-0.8964" y="2" relative="1" as="geometry">
            <mxPoint x="8" as="offset" />
          </mxGeometry>
        </mxCell>
        <mxCell id="aqCTc2BwgF-0Nsr38r-f-172" value="1" style="edgeLabel;html=1;align=center;verticalAlign=middle;resizable=0;points=[];" vertex="1" connectable="0" parent="aqCTc2BwgF-0Nsr38r-f-162">
          <mxGeometry x="0.8788" y="-1" relative="1" as="geometry">
            <mxPoint x="4" y="-17" as="offset" />
          </mxGeometry>
        </mxCell>
        <mxCell id="aqCTc2BwgF-0Nsr38r-f-156" value="Card" style="swimlane;fontStyle=0;childLayout=stackLayout;horizontal=1;startSize=26;fillColor=none;horizontalStack=0;resizeParent=1;resizeParentMax=0;resizeLast=0;collapsible=1;marginBottom=0;" vertex="1" parent="aqCTc2BwgF-0Nsr38r-f-1">
          <mxGeometry x="1304.57" y="258" width="140" height="52" as="geometry" />
        </mxCell>
        <mxCell id="aqCTc2BwgF-0Nsr38r-f-174" value="Email" style="swimlane;fontStyle=0;childLayout=stackLayout;horizontal=1;startSize=26;fillColor=none;horizontalStack=0;resizeParent=1;resizeParentMax=0;resizeLast=0;collapsible=1;marginBottom=0;" vertex="1" parent="aqCTc2BwgF-0Nsr38r-f-1">
          <mxGeometry x="882.71" y="122" width="140" height="52" as="geometry" />
        </mxCell>
        <mxCell id="aqCTc2BwgF-0Nsr38r-f-186" style="edgeStyle=orthogonalEdgeStyle;rounded=0;orthogonalLoop=1;jettySize=auto;html=1;entryX=0.25;entryY=0;entryDx=0;entryDy=0;startArrow=none;startFill=0;endArrow=none;endFill=0;startSize=12;endSize=11;" edge="1" parent="aqCTc2BwgF-0Nsr38r-f-1" source="aqCTc2BwgF-0Nsr38r-f-182" target="aqCTc2BwgF-0Nsr38r-f-8">
          <mxGeometry relative="1" as="geometry" />
        </mxCell>
        <mxCell id="aqCTc2BwgF-0Nsr38r-f-191" value="1" style="edgeLabel;html=1;align=center;verticalAlign=middle;resizable=0;points=[];" vertex="1" connectable="0" parent="aqCTc2BwgF-0Nsr38r-f-186">
          <mxGeometry x="0.8734" y="1" relative="1" as="geometry">
            <mxPoint x="14" y="5" as="offset" />
          </mxGeometry>
        </mxCell>
        <mxCell id="aqCTc2BwgF-0Nsr38r-f-192" value="1" style="edgeLabel;html=1;align=center;verticalAlign=middle;resizable=0;points=[];" vertex="1" connectable="0" parent="aqCTc2BwgF-0Nsr38r-f-186">
          <mxGeometry x="-0.8942" relative="1" as="geometry">
            <mxPoint x="15" as="offset" />
          </mxGeometry>
        </mxCell>
        <mxCell id="aqCTc2BwgF-0Nsr38r-f-182" value="Quantity" style="swimlane;fontStyle=0;childLayout=stackLayout;horizontal=1;startSize=26;fillColor=none;horizontalStack=0;resizeParent=1;resizeParentMax=0;resizeLast=0;collapsible=1;marginBottom=0;" vertex="1" parent="aqCTc2BwgF-0Nsr38r-f-1">
          <mxGeometry x="195" y="-160" width="140" height="52" as="geometry" />
        </mxCell>
        <mxCell id="aqCTc2BwgF-0Nsr38r-f-187" style="edgeStyle=orthogonalEdgeStyle;rounded=0;orthogonalLoop=1;jettySize=auto;html=1;entryX=0.75;entryY=0;entryDx=0;entryDy=0;startArrow=none;startFill=0;endArrow=none;endFill=0;startSize=12;endSize=11;" edge="1" parent="aqCTc2BwgF-0Nsr38r-f-1" source="aqCTc2BwgF-0Nsr38r-f-183" target="aqCTc2BwgF-0Nsr38r-f-8">
          <mxGeometry relative="1" as="geometry" />
        </mxCell>
        <mxCell id="aqCTc2BwgF-0Nsr38r-f-193" value="1" style="edgeLabel;html=1;align=center;verticalAlign=middle;resizable=0;points=[];" vertex="1" connectable="0" parent="aqCTc2BwgF-0Nsr38r-f-187">
          <mxGeometry x="-0.8942" y="-1" relative="1" as="geometry">
            <mxPoint x="6" as="offset" />
          </mxGeometry>
        </mxCell>
        <mxCell id="aqCTc2BwgF-0Nsr38r-f-195" value="1" style="edgeLabel;html=1;align=center;verticalAlign=middle;resizable=0;points=[];" vertex="1" connectable="0" parent="aqCTc2BwgF-0Nsr38r-f-187">
          <mxGeometry x="0.8328" y="-1" relative="1" as="geometry">
            <mxPoint x="-14" y="10" as="offset" />
          </mxGeometry>
        </mxCell>
        <mxCell id="aqCTc2BwgF-0Nsr38r-f-183" value="Color" style="swimlane;fontStyle=0;childLayout=stackLayout;horizontal=1;startSize=26;fillColor=none;horizontalStack=0;resizeParent=1;resizeParentMax=0;resizeLast=0;collapsible=1;marginBottom=0;" vertex="1" parent="aqCTc2BwgF-0Nsr38r-f-1">
          <mxGeometry x="385" y="-160" width="140" height="52" as="geometry" />
        </mxCell>
        <mxCell id="aqCTc2BwgF-0Nsr38r-f-188" style="edgeStyle=orthogonalEdgeStyle;rounded=0;orthogonalLoop=1;jettySize=auto;html=1;startArrow=none;startFill=0;endArrow=none;endFill=0;startSize=12;endSize=11;" edge="1" parent="aqCTc2BwgF-0Nsr38r-f-1" source="aqCTc2BwgF-0Nsr38r-f-184">
          <mxGeometry relative="1" as="geometry">
            <mxPoint x="410" y="69" as="targetPoint" />
            <Array as="points">
              <mxPoint x="630" y="20" />
              <mxPoint x="410" y="20" />
            </Array>
          </mxGeometry>
        </mxCell>
        <mxCell id="aqCTc2BwgF-0Nsr38r-f-194" value="1" style="edgeLabel;html=1;align=center;verticalAlign=middle;resizable=0;points=[];" vertex="1" connectable="0" parent="aqCTc2BwgF-0Nsr38r-f-188">
          <mxGeometry x="0.9097" y="1" relative="1" as="geometry">
            <mxPoint x="9" as="offset" />
          </mxGeometry>
        </mxCell>
        <mxCell id="aqCTc2BwgF-0Nsr38r-f-196" value="1" style="edgeLabel;html=1;align=center;verticalAlign=middle;resizable=0;points=[];" vertex="1" connectable="0" parent="aqCTc2BwgF-0Nsr38r-f-188">
          <mxGeometry x="-0.9251" relative="1" as="geometry">
            <mxPoint x="10" as="offset" />
          </mxGeometry>
        </mxCell>
        <mxCell id="aqCTc2BwgF-0Nsr38r-f-184" value="Size" style="swimlane;fontStyle=0;childLayout=stackLayout;horizontal=1;startSize=26;fillColor=none;horizontalStack=0;resizeParent=1;resizeParentMax=0;resizeLast=0;collapsible=1;marginBottom=0;" vertex="1" parent="aqCTc2BwgF-0Nsr38r-f-1">
          <mxGeometry x="560" y="-90" width="140" height="52" as="geometry" />
        </mxCell>
        <mxCell id="aqCTc2BwgF-0Nsr38r-f-197" style="edgeStyle=orthogonalEdgeStyle;rounded=0;orthogonalLoop=1;jettySize=auto;html=1;exitX=0.75;exitY=0;exitDx=0;exitDy=0;entryX=0.5;entryY=0;entryDx=0;entryDy=0;startArrow=none;startFill=0;endArrow=none;endFill=0;startSize=12;endSize=11;" edge="1" parent="aqCTc2BwgF-0Nsr38r-f-1" source="aqCTc2BwgF-0Nsr38r-f-20" target="aqCTc2BwgF-0Nsr38r-f-20">
          <mxGeometry relative="1" as="geometry" />
        </mxCell>
        <mxCell id="aqCTc2BwgF-0Nsr38r-f-198" value="Value" style="swimlane;fontStyle=0;childLayout=stackLayout;horizontal=1;startSize=26;fillColor=none;horizontalStack=0;resizeParent=1;resizeParentMax=0;resizeLast=0;collapsible=1;marginBottom=0;" vertex="1" parent="aqCTc2BwgF-0Nsr38r-f-1">
          <mxGeometry x="20" y="524" width="140" height="52" as="geometry" />
        </mxCell>
        <mxCell id="aqCTc2BwgF-0Nsr38r-f-199" value="Date" style="swimlane;fontStyle=0;childLayout=stackLayout;horizontal=1;startSize=26;fillColor=none;horizontalStack=0;resizeParent=1;resizeParentMax=0;resizeLast=0;collapsible=1;marginBottom=0;" vertex="1" parent="aqCTc2BwgF-0Nsr38r-f-1">
          <mxGeometry x="20" y="600" width="140" height="52" as="geometry" />
        </mxCell>
        <mxCell id="aqCTc2BwgF-0Nsr38r-f-200" value="Status" style="swimlane;fontStyle=0;childLayout=stackLayout;horizontal=1;startSize=26;fillColor=none;horizontalStack=0;resizeParent=1;resizeParentMax=0;resizeLast=0;collapsible=1;marginBottom=0;" vertex="1" parent="aqCTc2BwgF-0Nsr38r-f-1">
          <mxGeometry x="20" y="680" width="140" height="52" as="geometry" />
        </mxCell>
        <mxCell id="aqCTc2BwgF-0Nsr38r-f-211" value="Attachment" style="swimlane;fontStyle=0;childLayout=stackLayout;horizontal=1;startSize=26;fillColor=none;horizontalStack=0;resizeParent=1;resizeParentMax=0;resizeLast=0;collapsible=1;marginBottom=0;" vertex="1" parent="aqCTc2BwgF-0Nsr38r-f-1">
          <mxGeometry x="-260" y="80" width="140" height="52" as="geometry" />
        </mxCell>
        <mxCell id="aqCTc2BwgF-0Nsr38r-f-212" value="Number" style="swimlane;fontStyle=0;childLayout=stackLayout;horizontal=1;startSize=26;fillColor=none;horizontalStack=0;resizeParent=1;resizeParentMax=0;resizeLast=0;collapsible=1;marginBottom=0;" vertex="1" parent="aqCTc2BwgF-0Nsr38r-f-1">
          <mxGeometry x="-260" y="158" width="140" height="52" as="geometry" />
        </mxCell>
        <mxCell id="aqCTc2BwgF-0Nsr38r-f-213" value="OptionCode" style="swimlane;fontStyle=0;childLayout=stackLayout;horizontal=1;startSize=26;fillColor=none;horizontalStack=0;resizeParent=1;resizeParentMax=0;resizeLast=0;collapsible=1;marginBottom=0;" vertex="1" parent="aqCTc2BwgF-0Nsr38r-f-1">
          <mxGeometry x="-260" y="328" width="140" height="52" as="geometry" />
        </mxCell>
        <mxCell id="aqCTc2BwgF-0Nsr38r-f-214" value="Comment" style="swimlane;fontStyle=0;childLayout=stackLayout;horizontal=1;startSize=26;fillColor=none;horizontalStack=0;resizeParent=1;resizeParentMax=0;resizeLast=0;collapsible=1;marginBottom=0;" vertex="1" parent="aqCTc2BwgF-0Nsr38r-f-1">
          <mxGeometry x="-260" y="410" width="140" height="52" as="geometry" />
        </mxCell>
        <mxCell id="aqCTc2BwgF-0Nsr38r-f-215" value="AccessCode" style="swimlane;fontStyle=0;childLayout=stackLayout;horizontal=1;startSize=26;fillColor=none;horizontalStack=0;resizeParent=1;resizeParentMax=0;resizeLast=0;collapsible=1;marginBottom=0;" vertex="1" parent="aqCTc2BwgF-0Nsr38r-f-1">
          <mxGeometry x="-260" y="244" width="140" height="52" as="geometry" />
        </mxCell>
        <mxCell id="aqCTc2BwgF-0Nsr38r-f-240" value="Street" style="swimlane;fontStyle=0;childLayout=stackLayout;horizontal=1;startSize=26;fillColor=none;horizontalStack=0;resizeParent=1;resizeParentMax=0;resizeLast=0;collapsible=1;marginBottom=0;" vertex="1" parent="aqCTc2BwgF-0Nsr38r-f-1">
          <mxGeometry x="500" y="960" width="140" height="52" as="geometry" />
        </mxCell>
        <mxCell id="aqCTc2BwgF-0Nsr38r-f-242" value="Phone" style="swimlane;fontStyle=0;childLayout=stackLayout;horizontal=1;startSize=26;fillColor=none;horizontalStack=0;resizeParent=1;resizeParentMax=0;resizeLast=0;collapsible=1;marginBottom=0;" vertex="1" parent="aqCTc2BwgF-0Nsr38r-f-1">
          <mxGeometry x="680" y="960" width="140" height="52" as="geometry" />
        </mxCell>
        <mxCell id="aqCTc2BwgF-0Nsr38r-f-243" value="PostalCode" style="swimlane;fontStyle=0;childLayout=stackLayout;horizontal=1;startSize=26;fillColor=none;horizontalStack=0;resizeParent=1;resizeParentMax=0;resizeLast=0;collapsible=1;marginBottom=0;" vertex="1" parent="aqCTc2BwgF-0Nsr38r-f-1">
          <mxGeometry x="920" y="960" width="140" height="52" as="geometry" />
        </mxCell>
        <mxCell id="aqCTc2BwgF-0Nsr38r-f-244" value="City" style="swimlane;fontStyle=0;childLayout=stackLayout;horizontal=1;startSize=26;fillColor=none;horizontalStack=0;resizeParent=1;resizeParentMax=0;resizeLast=0;collapsible=1;marginBottom=0;" vertex="1" parent="aqCTc2BwgF-0Nsr38r-f-1">
          <mxGeometry x="1100" y="880" width="140" height="52" as="geometry" />
        </mxCell>
        <mxCell id="aqCTc2BwgF-0Nsr38r-f-246" value="Country" style="swimlane;fontStyle=0;childLayout=stackLayout;horizontal=1;startSize=26;fillColor=none;horizontalStack=0;resizeParent=1;resizeParentMax=0;resizeLast=0;collapsible=1;marginBottom=0;" vertex="1" parent="aqCTc2BwgF-0Nsr38r-f-1">
          <mxGeometry x="1100" y="800" width="140" height="52" as="geometry" />
        </mxCell>
      </root>
    </mxGraphModel>
  </diagram>
  <diagram id="jtFRkBdfBi8ftiIPKbSU" name="UseCases">
    <mxGraphModel dx="946" dy="614" grid="1" gridSize="10" guides="1" tooltips="1" connect="1" arrows="1" fold="1" page="1" pageScale="1" pageWidth="827" pageHeight="1169" math="0" shadow="0">
      <root>
        <mxCell id="EfrkvHl1rpQhSsCAQkP1-0" />
        <mxCell id="EfrkvHl1rpQhSsCAQkP1-1" parent="EfrkvHl1rpQhSsCAQkP1-0" />
        <mxCell id="y80RlB7_-olwjZ_tv-SM-3" style="edgeStyle=orthogonalEdgeStyle;rounded=0;orthogonalLoop=1;jettySize=auto;html=1;entryX=0;entryY=0.5;entryDx=0;entryDy=0;" parent="EfrkvHl1rpQhSsCAQkP1-1" source="EfrkvHl1rpQhSsCAQkP1-2" target="EfrkvHl1rpQhSsCAQkP1-4" edge="1">
          <mxGeometry relative="1" as="geometry" />
        </mxCell>
        <mxCell id="y80RlB7_-olwjZ_tv-SM-4" style="edgeStyle=orthogonalEdgeStyle;rounded=0;orthogonalLoop=1;jettySize=auto;html=1;entryX=0;entryY=0.5;entryDx=0;entryDy=0;" parent="EfrkvHl1rpQhSsCAQkP1-1" source="EfrkvHl1rpQhSsCAQkP1-2" target="EfrkvHl1rpQhSsCAQkP1-5" edge="1">
          <mxGeometry relative="1" as="geometry" />
        </mxCell>
        <mxCell id="y80RlB7_-olwjZ_tv-SM-5" style="edgeStyle=orthogonalEdgeStyle;rounded=0;orthogonalLoop=1;jettySize=auto;html=1;entryX=0;entryY=0.5;entryDx=0;entryDy=0;" parent="EfrkvHl1rpQhSsCAQkP1-1" source="EfrkvHl1rpQhSsCAQkP1-2" target="EfrkvHl1rpQhSsCAQkP1-6" edge="1">
          <mxGeometry relative="1" as="geometry" />
        </mxCell>
        <mxCell id="y80RlB7_-olwjZ_tv-SM-6" style="edgeStyle=orthogonalEdgeStyle;rounded=0;orthogonalLoop=1;jettySize=auto;html=1;entryX=0;entryY=0.5;entryDx=0;entryDy=0;" parent="EfrkvHl1rpQhSsCAQkP1-1" source="EfrkvHl1rpQhSsCAQkP1-2" target="EfrkvHl1rpQhSsCAQkP1-7" edge="1">
          <mxGeometry relative="1" as="geometry" />
        </mxCell>
        <mxCell id="y80RlB7_-olwjZ_tv-SM-7" style="edgeStyle=orthogonalEdgeStyle;rounded=0;orthogonalLoop=1;jettySize=auto;html=1;entryX=0;entryY=0.5;entryDx=0;entryDy=0;" parent="EfrkvHl1rpQhSsCAQkP1-1" source="EfrkvHl1rpQhSsCAQkP1-2" target="y80RlB7_-olwjZ_tv-SM-1" edge="1">
          <mxGeometry relative="1" as="geometry" />
        </mxCell>
        <mxCell id="y80RlB7_-olwjZ_tv-SM-8" style="edgeStyle=orthogonalEdgeStyle;rounded=0;orthogonalLoop=1;jettySize=auto;html=1;entryX=0;entryY=0.5;entryDx=0;entryDy=0;" parent="EfrkvHl1rpQhSsCAQkP1-1" source="EfrkvHl1rpQhSsCAQkP1-2" target="EfrkvHl1rpQhSsCAQkP1-8" edge="1">
          <mxGeometry relative="1" as="geometry" />
        </mxCell>
        <mxCell id="y80RlB7_-olwjZ_tv-SM-9" style="edgeStyle=orthogonalEdgeStyle;rounded=0;orthogonalLoop=1;jettySize=auto;html=1;entryX=0;entryY=0.5;entryDx=0;entryDy=0;" parent="EfrkvHl1rpQhSsCAQkP1-1" source="EfrkvHl1rpQhSsCAQkP1-2" target="y80RlB7_-olwjZ_tv-SM-0" edge="1">
          <mxGeometry relative="1" as="geometry" />
        </mxCell>
        <mxCell id="ajvfCbdO-Zu82lWluZ0L-1" style="edgeStyle=orthogonalEdgeStyle;rounded=0;orthogonalLoop=1;jettySize=auto;html=1;entryX=0;entryY=0.5;entryDx=0;entryDy=0;startArrow=none;startFill=0;endArrow=classic;endFill=1;startSize=12;endSize=6;" edge="1" parent="EfrkvHl1rpQhSsCAQkP1-1" source="EfrkvHl1rpQhSsCAQkP1-2" target="ajvfCbdO-Zu82lWluZ0L-0">
          <mxGeometry relative="1" as="geometry" />
        </mxCell>
        <mxCell id="EfrkvHl1rpQhSsCAQkP1-2" value="Customer" style="shape=umlActor;verticalLabelPosition=bottom;verticalAlign=top;html=1;" parent="EfrkvHl1rpQhSsCAQkP1-1" vertex="1">
          <mxGeometry x="60" y="295" width="30" height="60" as="geometry" />
        </mxCell>
        <mxCell id="EfrkvHl1rpQhSsCAQkP1-4" value="Browse product catalog" style="ellipse;whiteSpace=wrap;html=1;" parent="EfrkvHl1rpQhSsCAQkP1-1" vertex="1">
          <mxGeometry x="230" y="20" width="140" height="70" as="geometry" />
        </mxCell>
        <mxCell id="EfrkvHl1rpQhSsCAQkP1-5" value="Search product" style="ellipse;whiteSpace=wrap;html=1;" parent="EfrkvHl1rpQhSsCAQkP1-1" vertex="1">
          <mxGeometry x="230" y="110" width="140" height="70" as="geometry" />
        </mxCell>
        <mxCell id="EfrkvHl1rpQhSsCAQkP1-6" value="Add/Remove product to/from wishlist" style="ellipse;whiteSpace=wrap;html=1;" parent="EfrkvHl1rpQhSsCAQkP1-1" vertex="1">
          <mxGeometry x="230" y="200" width="140" height="70" as="geometry" />
        </mxCell>
        <mxCell id="EfrkvHl1rpQhSsCAQkP1-7" value="Add/Remove product to/from&lt;br&gt;shopping cart" style="ellipse;whiteSpace=wrap;html=1;" parent="EfrkvHl1rpQhSsCAQkP1-1" vertex="1">
          <mxGeometry x="230" y="290" width="140" height="70" as="geometry" />
        </mxCell>
        <mxCell id="EfrkvHl1rpQhSsCAQkP1-8" value="Fullfil prescription" style="ellipse;whiteSpace=wrap;html=1;" parent="EfrkvHl1rpQhSsCAQkP1-1" vertex="1">
          <mxGeometry x="230" y="550" width="140" height="70" as="geometry" />
        </mxCell>
        <mxCell id="y80RlB7_-olwjZ_tv-SM-0" value="Configure shipping information" style="ellipse;whiteSpace=wrap;html=1;" parent="EfrkvHl1rpQhSsCAQkP1-1" vertex="1">
          <mxGeometry x="230" y="640" width="140" height="70" as="geometry" />
        </mxCell>
        <mxCell id="y80RlB7_-olwjZ_tv-SM-1" value="Confirm purchase (Checkout Cart)" style="ellipse;whiteSpace=wrap;html=1;" parent="EfrkvHl1rpQhSsCAQkP1-1" vertex="1">
          <mxGeometry x="230" y="380" width="140" height="70" as="geometry" />
        </mxCell>
        <mxCell id="ZePCcQi8Mw6KWgp-jsKY-0" style="edgeStyle=orthogonalEdgeStyle;rounded=0;orthogonalLoop=1;jettySize=auto;html=1;entryX=0;entryY=0.5;entryDx=0;entryDy=0;" parent="EfrkvHl1rpQhSsCAQkP1-1" target="ZePCcQi8Mw6KWgp-jsKY-1" edge="1">
          <mxGeometry relative="1" as="geometry">
            <mxPoint x="90" y="325" as="sourcePoint" />
            <Array as="points">
              <mxPoint x="160" y="325" />
              <mxPoint x="160" y="500" />
            </Array>
          </mxGeometry>
        </mxCell>
        <mxCell id="ZePCcQi8Mw6KWgp-jsKY-1" value="Perform order payment" style="ellipse;whiteSpace=wrap;html=1;" parent="EfrkvHl1rpQhSsCAQkP1-1" vertex="1">
          <mxGeometry x="230" y="465" width="140" height="70" as="geometry" />
        </mxCell>
        <mxCell id="ajvfCbdO-Zu82lWluZ0L-0" value="Track order delivery status" style="ellipse;whiteSpace=wrap;html=1;" vertex="1" parent="EfrkvHl1rpQhSsCAQkP1-1">
          <mxGeometry x="230" y="730" width="140" height="70" as="geometry" />
        </mxCell>
      </root>
    </mxGraphModel>
  </diagram>
  <diagram id="hRPAmgpsox1ziyCyonbp" name="BoundedContexts-Aggregates">
    <mxGraphModel dx="1167" dy="1023" grid="1" gridSize="10" guides="1" tooltips="1" connect="1" arrows="1" fold="1" page="1" pageScale="1" pageWidth="827" pageHeight="1169" math="0" shadow="0">
      <root>
        <mxCell id="0Dk0NHJxLE5vuoeSpq4C-0" />
        <mxCell id="0Dk0NHJxLE5vuoeSpq4C-1" parent="0Dk0NHJxLE5vuoeSpq4C-0" />
        <mxCell id="Sg5cGPNcUIakh0Cd3LcZ-0" value="" style="ellipse;whiteSpace=wrap;html=1;" parent="0Dk0NHJxLE5vuoeSpq4C-1" vertex="1">
          <mxGeometry x="40" y="50" width="240" height="156.25" as="geometry" />
        </mxCell>
        <mxCell id="PPDcGmR6esQbFbAN_n23-0" value="" style="ellipse;whiteSpace=wrap;html=1;" parent="0Dk0NHJxLE5vuoeSpq4C-1" vertex="1">
          <mxGeometry x="-292.5" y="120" width="230" height="157.5" as="geometry" />
        </mxCell>
        <mxCell id="ZNHkQz6k-fy3QUmpWFyo-5" value="" style="ellipse;whiteSpace=wrap;html=1;" parent="0Dk0NHJxLE5vuoeSpq4C-1" vertex="1">
          <mxGeometry x="550.5" y="210" width="339.5" height="170" as="geometry" />
        </mxCell>
        <mxCell id="jsAOQpZQ9mrahlKDfA9K-3" value="" style="ellipse;whiteSpace=wrap;html=1;" parent="0Dk0NHJxLE5vuoeSpq4C-1" vertex="1">
          <mxGeometry x="-20" y="580" width="330" height="170" as="geometry" />
        </mxCell>
        <mxCell id="KwF7qSjg-g2GveLzDjzc-52" value="" style="verticalLabelPosition=bottom;verticalAlign=top;html=1;shape=mxgraph.basic.rect;fillColor2=none;strokeWidth=1;size=20;indent=5;fillColor=none;dashed=1;" vertex="1" parent="0Dk0NHJxLE5vuoeSpq4C-1">
          <mxGeometry x="-20" y="632" width="320" height="68" as="geometry" />
        </mxCell>
        <mxCell id="73MkFgIrdXm32PAereVl-6" value="" style="ellipse;whiteSpace=wrap;html=1;" parent="0Dk0NHJxLE5vuoeSpq4C-1" vertex="1">
          <mxGeometry x="-360" y="440" width="325" height="220" as="geometry" />
        </mxCell>
        <mxCell id="KwF7qSjg-g2GveLzDjzc-48" value="" style="verticalLabelPosition=bottom;verticalAlign=top;html=1;shape=mxgraph.basic.rect;fillColor2=none;strokeWidth=1;size=20;indent=5;fillColor=none;dashed=1;" vertex="1" parent="0Dk0NHJxLE5vuoeSpq4C-1">
          <mxGeometry x="-330" y="490" width="280" height="150" as="geometry" />
        </mxCell>
        <mxCell id="73MkFgIrdXm32PAereVl-0" value="" style="ellipse;whiteSpace=wrap;html=1;" parent="0Dk0NHJxLE5vuoeSpq4C-1" vertex="1">
          <mxGeometry x="-70" y="240" width="520" height="280" as="geometry" />
        </mxCell>
        <mxCell id="KwF7qSjg-g2GveLzDjzc-45" value="" style="verticalLabelPosition=bottom;verticalAlign=top;html=1;shape=mxgraph.basic.rect;fillColor2=none;strokeWidth=1;size=20;indent=5;fillColor=none;dashed=1;" vertex="1" parent="0Dk0NHJxLE5vuoeSpq4C-1">
          <mxGeometry x="-20" y="287.75" width="450" height="212.25" as="geometry" />
        </mxCell>
        <mxCell id="keUvKWd-oPiuJBDlMkzL-0" value="" style="ellipse;whiteSpace=wrap;html=1;" parent="0Dk0NHJxLE5vuoeSpq4C-1" vertex="1">
          <mxGeometry x="420" y="490" width="510" height="360" as="geometry" />
        </mxCell>
        <mxCell id="KwF7qSjg-g2GveLzDjzc-38" value="" style="verticalLabelPosition=bottom;verticalAlign=top;html=1;shape=mxgraph.basic.rect;fillColor2=none;strokeWidth=1;size=20;indent=5;dashed=1;fillColor=none;" vertex="1" parent="0Dk0NHJxLE5vuoeSpq4C-1">
          <mxGeometry x="730.5" y="710" width="140" height="70" as="geometry" />
        </mxCell>
        <mxCell id="KwF7qSjg-g2GveLzDjzc-36" value="" style="verticalLabelPosition=bottom;verticalAlign=top;html=1;shape=mxgraph.basic.rect;fillColor2=none;strokeWidth=1;size=20;indent=5;dashed=1;fillColor=none;" vertex="1" parent="0Dk0NHJxLE5vuoeSpq4C-1">
          <mxGeometry x="512.09" y="700" width="177.91" height="80" as="geometry" />
        </mxCell>
        <mxCell id="KwF7qSjg-g2GveLzDjzc-26" value="" style="verticalLabelPosition=bottom;verticalAlign=top;html=1;shape=mxgraph.basic.rect;fillColor2=none;strokeWidth=1;size=20;indent=5;dashed=1;fillColor=none;" vertex="1" parent="0Dk0NHJxLE5vuoeSpq4C-1">
          <mxGeometry x="490" y="555" width="360" height="95" as="geometry" />
        </mxCell>
        <mxCell id="KwF7qSjg-g2GveLzDjzc-13" value="" style="verticalLabelPosition=bottom;verticalAlign=top;html=1;shape=mxgraph.basic.rect;fillColor2=none;strokeWidth=1;size=20;indent=5;fillColor=none;dashed=1;" vertex="1" parent="0Dk0NHJxLE5vuoeSpq4C-1">
          <mxGeometry x="570" y="275" width="310" height="70" as="geometry" />
        </mxCell>
        <mxCell id="KwF7qSjg-g2GveLzDjzc-1" value="" style="verticalLabelPosition=bottom;verticalAlign=top;html=1;shape=mxgraph.basic.rect;fillColor2=none;strokeWidth=1;size=20;indent=5;fillColor=none;dashed=1;" vertex="1" parent="0Dk0NHJxLE5vuoeSpq4C-1">
          <mxGeometry x="-270" y="170" width="190" height="90" as="geometry" />
        </mxCell>
        <mxCell id="KwF7qSjg-g2GveLzDjzc-5" value="" style="verticalLabelPosition=bottom;verticalAlign=top;html=1;shape=mxgraph.basic.rect;fillColor2=none;strokeWidth=1;size=20;indent=5;fillColor=none;dashed=1;" vertex="1" parent="0Dk0NHJxLE5vuoeSpq4C-1">
          <mxGeometry x="60" y="102" width="210" height="90" as="geometry" />
        </mxCell>
        <mxCell id="KwF7qSjg-g2GveLzDjzc-27" style="edgeStyle=orthogonalEdgeStyle;rounded=0;orthogonalLoop=1;jettySize=auto;html=1;exitX=1;exitY=0.5;exitDx=0;exitDy=0;entryX=0.013;entryY=0.478;entryDx=0;entryDy=0;entryPerimeter=0;endArrow=none;endFill=0;startSize=7;endSize=12;" edge="1" parent="0Dk0NHJxLE5vuoeSpq4C-1" source="Sg5cGPNcUIakh0Cd3LcZ-0" target="KwF7qSjg-g2GveLzDjzc-7">
          <mxGeometry relative="1" as="geometry" />
        </mxCell>
        <mxCell id="KwF7qSjg-g2GveLzDjzc-28" style="edgeStyle=orthogonalEdgeStyle;rounded=0;orthogonalLoop=1;jettySize=auto;html=1;entryX=0.011;entryY=0.488;entryDx=0;entryDy=0;entryPerimeter=0;endArrow=none;endFill=0;startSize=7;endSize=12;" edge="1" parent="0Dk0NHJxLE5vuoeSpq4C-1" source="Sg5cGPNcUIakh0Cd3LcZ-0" target="KwF7qSjg-g2GveLzDjzc-13">
          <mxGeometry relative="1" as="geometry">
            <Array as="points">
              <mxPoint x="450" y="190" />
              <mxPoint x="450" y="310" />
            </Array>
          </mxGeometry>
        </mxCell>
        <mxCell id="KwF7qSjg-g2GveLzDjzc-30" style="edgeStyle=orthogonalEdgeStyle;rounded=0;orthogonalLoop=1;jettySize=auto;html=1;entryX=0.5;entryY=0;entryDx=0;entryDy=0;endArrow=none;endFill=0;startSize=7;endSize=12;" edge="1" parent="0Dk0NHJxLE5vuoeSpq4C-1" source="Sg5cGPNcUIakh0Cd3LcZ-0" target="73MkFgIrdXm32PAereVl-0">
          <mxGeometry relative="1" as="geometry">
            <Array as="points">
              <mxPoint x="160" y="220" />
              <mxPoint x="190" y="220" />
            </Array>
          </mxGeometry>
        </mxCell>
        <mxCell id="Sg5cGPNcUIakh0Cd3LcZ-1" value="&amp;lt;&amp;lt;Aggregate Root&amp;gt;&amp;gt;&lt;br&gt;&amp;lt;&amp;lt;Entity&amp;gt;&amp;gt;&lt;br&gt;Product" style="rounded=1;whiteSpace=wrap;html=1;" parent="0Dk0NHJxLE5vuoeSpq4C-1" vertex="1">
          <mxGeometry x="92.5" y="115.75" width="135" height="62.5" as="geometry" />
        </mxCell>
        <mxCell id="ZNHkQz6k-fy3QUmpWFyo-1" value="" style="ellipse;whiteSpace=wrap;html=1;" parent="0Dk0NHJxLE5vuoeSpq4C-1" vertex="1">
          <mxGeometry x="390" y="10" width="380" height="140" as="geometry" />
        </mxCell>
        <mxCell id="ZNHkQz6k-fy3QUmpWFyo-2" value="&amp;lt;&amp;lt;Aggregate Root&amp;gt;&amp;gt;&lt;br&gt;&amp;lt;&amp;lt;Entity&amp;gt;&amp;gt;&lt;br&gt;Cart" style="rounded=1;whiteSpace=wrap;html=1;" parent="0Dk0NHJxLE5vuoeSpq4C-1" vertex="1">
          <mxGeometry x="607.5" y="46.25" width="117.5" height="75" as="geometry" />
        </mxCell>
        <mxCell id="KwF7qSjg-g2GveLzDjzc-0" style="edgeStyle=orthogonalEdgeStyle;rounded=0;orthogonalLoop=1;jettySize=auto;html=1;endArrow=diamond;endFill=0;startSize=10;endSize=12;" edge="1" parent="0Dk0NHJxLE5vuoeSpq4C-1" source="ZNHkQz6k-fy3QUmpWFyo-4" target="ZNHkQz6k-fy3QUmpWFyo-2">
          <mxGeometry relative="1" as="geometry" />
        </mxCell>
        <mxCell id="KwF7qSjg-g2GveLzDjzc-3" value="*" style="edgeLabel;html=1;align=center;verticalAlign=middle;resizable=0;points=[];" vertex="1" connectable="0" parent="KwF7qSjg-g2GveLzDjzc-0">
          <mxGeometry x="-0.8647" y="2" relative="1" as="geometry">
            <mxPoint x="1" y="13" as="offset" />
          </mxGeometry>
        </mxCell>
        <mxCell id="KwF7qSjg-g2GveLzDjzc-4" value="*" style="edgeLabel;html=1;align=center;verticalAlign=middle;resizable=0;points=[];" vertex="1" connectable="0" parent="KwF7qSjg-g2GveLzDjzc-0">
          <mxGeometry x="0.6042" relative="1" as="geometry">
            <mxPoint x="-1" y="12" as="offset" />
          </mxGeometry>
        </mxCell>
        <mxCell id="ZNHkQz6k-fy3QUmpWFyo-4" value="&amp;lt;&amp;lt;Value Object&amp;gt;&amp;gt;&lt;br&gt;Product" style="rounded=1;whiteSpace=wrap;html=1;" parent="0Dk0NHJxLE5vuoeSpq4C-1" vertex="1">
          <mxGeometry x="425" y="50" width="100" height="67.5" as="geometry" />
        </mxCell>
        <mxCell id="KwF7qSjg-g2GveLzDjzc-47" style="edgeStyle=orthogonalEdgeStyle;rounded=0;orthogonalLoop=1;jettySize=auto;html=1;startArrow=none;startFill=0;endArrow=none;endFill=0;startSize=12;endSize=12;" edge="1" parent="0Dk0NHJxLE5vuoeSpq4C-1" source="ZNHkQz6k-fy3QUmpWFyo-5" target="keUvKWd-oPiuJBDlMkzL-0">
          <mxGeometry relative="1" as="geometry" />
        </mxCell>
        <mxCell id="ZNHkQz6k-fy3QUmpWFyo-6" value="&amp;lt;&amp;lt;Aggregate Root&amp;gt;&amp;gt;&lt;br&gt;&amp;lt;&amp;lt;Entity&amp;gt;&amp;gt;&lt;br&gt;Wishlist" style="rounded=1;whiteSpace=wrap;html=1;" parent="0Dk0NHJxLE5vuoeSpq4C-1" vertex="1">
          <mxGeometry x="755.5" y="281.25" width="114.5" height="50" as="geometry" />
        </mxCell>
        <mxCell id="ZNHkQz6k-fy3QUmpWFyo-7" style="edgeStyle=orthogonalEdgeStyle;rounded=0;orthogonalLoop=1;jettySize=auto;html=1;entryX=0;entryY=0.5;entryDx=0;entryDy=0;startSize=12;endArrow=diamond;endFill=0;endSize=12;" parent="0Dk0NHJxLE5vuoeSpq4C-1" source="ZNHkQz6k-fy3QUmpWFyo-8" target="ZNHkQz6k-fy3QUmpWFyo-6" edge="1">
          <mxGeometry relative="1" as="geometry" />
        </mxCell>
        <mxCell id="KwF7qSjg-g2GveLzDjzc-9" value="*" style="edgeLabel;html=1;align=center;verticalAlign=middle;resizable=0;points=[];" vertex="1" connectable="0" parent="ZNHkQz6k-fy3QUmpWFyo-7">
          <mxGeometry x="-0.635" y="-3" relative="1" as="geometry">
            <mxPoint x="-9" y="8" as="offset" />
          </mxGeometry>
        </mxCell>
        <mxCell id="KwF7qSjg-g2GveLzDjzc-10" value="*" style="edgeLabel;html=1;align=center;verticalAlign=middle;resizable=0;points=[];" vertex="1" connectable="0" parent="ZNHkQz6k-fy3QUmpWFyo-7">
          <mxGeometry x="0.7843" y="-1" relative="1" as="geometry">
            <mxPoint x="-9" y="9" as="offset" />
          </mxGeometry>
        </mxCell>
        <mxCell id="ZNHkQz6k-fy3QUmpWFyo-8" value="&amp;lt;&amp;lt;Value Object&amp;gt;&amp;gt;&lt;br&gt;Product" style="rounded=1;whiteSpace=wrap;html=1;" parent="0Dk0NHJxLE5vuoeSpq4C-1" vertex="1">
          <mxGeometry x="585.5" y="281.25" width="100" height="50" as="geometry" />
        </mxCell>
        <mxCell id="keUvKWd-oPiuJBDlMkzL-3" value="&amp;lt;&amp;lt;Aggregate Root&amp;gt;&amp;gt;&lt;br&gt;&amp;lt;&amp;lt;Entity&amp;gt;&amp;gt;&lt;br&gt;Customer" style="rounded=1;whiteSpace=wrap;html=1;" parent="0Dk0NHJxLE5vuoeSpq4C-1" vertex="1">
          <mxGeometry x="520" y="560" width="115" height="70" as="geometry" />
        </mxCell>
        <mxCell id="keUvKWd-oPiuJBDlMkzL-4" value="&amp;lt;&amp;lt;Value Object&amp;gt;&amp;gt;&lt;br&gt;Wishlist" style="rounded=1;whiteSpace=wrap;html=1;" parent="0Dk0NHJxLE5vuoeSpq4C-1" vertex="1">
          <mxGeometry x="725" y="565" width="110" height="60" as="geometry" />
        </mxCell>
        <mxCell id="KwF7qSjg-g2GveLzDjzc-29" style="edgeStyle=orthogonalEdgeStyle;rounded=0;orthogonalLoop=1;jettySize=auto;html=1;endArrow=none;endFill=0;startSize=7;endSize=12;exitX=1;exitY=0.5;exitDx=0;exitDy=0;" edge="1" parent="0Dk0NHJxLE5vuoeSpq4C-1" source="73MkFgIrdXm32PAereVl-0" target="keUvKWd-oPiuJBDlMkzL-0">
          <mxGeometry relative="1" as="geometry">
            <Array as="points">
              <mxPoint x="520" y="365" />
            </Array>
          </mxGeometry>
        </mxCell>
        <mxCell id="KwF7qSjg-g2GveLzDjzc-31" style="edgeStyle=orthogonalEdgeStyle;rounded=0;orthogonalLoop=1;jettySize=auto;html=1;entryX=0.5;entryY=1;entryDx=0;entryDy=0;endArrow=none;endFill=0;startSize=7;endSize=12;" edge="1" parent="0Dk0NHJxLE5vuoeSpq4C-1" source="73MkFgIrdXm32PAereVl-0" target="PPDcGmR6esQbFbAN_n23-0">
          <mxGeometry relative="1" as="geometry">
            <Array as="points">
              <mxPoint x="-177" y="320" />
            </Array>
          </mxGeometry>
        </mxCell>
        <mxCell id="73MkFgIrdXm32PAereVl-1" value="&amp;lt;&amp;lt;Value Object&amp;gt;&amp;gt;&lt;br&gt;Customer" style="rounded=1;whiteSpace=wrap;html=1;" parent="0Dk0NHJxLE5vuoeSpq4C-1" vertex="1">
          <mxGeometry x="320" y="320" width="100" height="50" as="geometry" />
        </mxCell>
        <mxCell id="73MkFgIrdXm32PAereVl-2" style="edgeStyle=orthogonalEdgeStyle;rounded=0;orthogonalLoop=1;jettySize=auto;html=1;entryX=0;entryY=0.5;entryDx=0;entryDy=0;startArrow=diamond;startFill=0;endArrow=none;endFill=0;startSize=12;" parent="0Dk0NHJxLE5vuoeSpq4C-1" source="73MkFgIrdXm32PAereVl-3" target="73MkFgIrdXm32PAereVl-1" edge="1">
          <mxGeometry relative="1" as="geometry" />
        </mxCell>
        <mxCell id="KwF7qSjg-g2GveLzDjzc-63" value="1" style="edgeLabel;html=1;align=center;verticalAlign=middle;resizable=0;points=[];" vertex="1" connectable="0" parent="73MkFgIrdXm32PAereVl-2">
          <mxGeometry x="0.8485" y="1" relative="1" as="geometry">
            <mxPoint x="-3" y="13" as="offset" />
          </mxGeometry>
        </mxCell>
        <mxCell id="KwF7qSjg-g2GveLzDjzc-64" value="*" style="edgeLabel;html=1;align=center;verticalAlign=middle;resizable=0;points=[];" vertex="1" connectable="0" parent="73MkFgIrdXm32PAereVl-2">
          <mxGeometry x="-0.4848" y="-1" relative="1" as="geometry">
            <mxPoint y="14" as="offset" />
          </mxGeometry>
        </mxCell>
        <mxCell id="dfpDc2p-sg2IiYIkcYtB-1" style="edgeStyle=orthogonalEdgeStyle;rounded=0;orthogonalLoop=1;jettySize=auto;html=1;entryX=1;entryY=0.5;entryDx=0;entryDy=0;startArrow=diamond;startFill=0;endArrow=none;endFill=0;startSize=12;" parent="0Dk0NHJxLE5vuoeSpq4C-1" target="dfpDc2p-sg2IiYIkcYtB-0" edge="1">
          <mxGeometry relative="1" as="geometry">
            <Array as="points">
              <mxPoint x="120" y="360" />
              <mxPoint x="120" y="385" />
            </Array>
            <mxPoint x="160" y="360" as="sourcePoint" />
          </mxGeometry>
        </mxCell>
        <mxCell id="KwF7qSjg-g2GveLzDjzc-57" value="*" style="edgeLabel;html=1;align=center;verticalAlign=middle;resizable=0;points=[];" vertex="1" connectable="0" parent="dfpDc2p-sg2IiYIkcYtB-1">
          <mxGeometry x="0.9159" y="1" relative="1" as="geometry">
            <mxPoint x="4" y="8" as="offset" />
          </mxGeometry>
        </mxCell>
        <mxCell id="KwF7qSjg-g2GveLzDjzc-58" value="*" style="edgeLabel;html=1;align=center;verticalAlign=middle;resizable=0;points=[];" vertex="1" connectable="0" parent="dfpDc2p-sg2IiYIkcYtB-1">
          <mxGeometry x="-0.6456" y="-1" relative="1" as="geometry">
            <mxPoint y="11" as="offset" />
          </mxGeometry>
        </mxCell>
        <mxCell id="dfpDc2p-sg2IiYIkcYtB-12" style="edgeStyle=orthogonalEdgeStyle;rounded=0;orthogonalLoop=1;jettySize=auto;html=1;entryX=0;entryY=0.5;entryDx=0;entryDy=0;startArrow=diamond;startFill=0;endArrow=none;endFill=0;exitX=0.75;exitY=1;exitDx=0;exitDy=0;startSize=12;" parent="0Dk0NHJxLE5vuoeSpq4C-1" source="73MkFgIrdXm32PAereVl-3" target="73MkFgIrdXm32PAereVl-5" edge="1">
          <mxGeometry relative="1" as="geometry">
            <Array as="points">
              <mxPoint x="246" y="410" />
              <mxPoint x="300" y="410" />
            </Array>
          </mxGeometry>
        </mxCell>
        <mxCell id="KwF7qSjg-g2GveLzDjzc-61" value="1" style="edgeLabel;html=1;align=center;verticalAlign=middle;resizable=0;points=[];" vertex="1" connectable="0" parent="dfpDc2p-sg2IiYIkcYtB-12">
          <mxGeometry x="-0.6623" relative="1" as="geometry">
            <mxPoint x="-6" y="3" as="offset" />
          </mxGeometry>
        </mxCell>
        <mxCell id="KwF7qSjg-g2GveLzDjzc-62" value="1" style="edgeLabel;html=1;align=center;verticalAlign=middle;resizable=0;points=[];" vertex="1" connectable="0" parent="dfpDc2p-sg2IiYIkcYtB-12">
          <mxGeometry x="0.8142" relative="1" as="geometry">
            <mxPoint x="-5" y="10" as="offset" />
          </mxGeometry>
        </mxCell>
        <mxCell id="PPDcGmR6esQbFbAN_n23-4" style="edgeStyle=orthogonalEdgeStyle;rounded=0;orthogonalLoop=1;jettySize=auto;html=1;entryX=1;entryY=0.5;entryDx=0;entryDy=0;startArrow=diamond;startFill=0;endArrow=none;endFill=0;exitX=0;exitY=0.25;exitDx=0;exitDy=0;startSize=12;" parent="0Dk0NHJxLE5vuoeSpq4C-1" source="73MkFgIrdXm32PAereVl-3" target="PPDcGmR6esQbFbAN_n23-3" edge="1">
          <mxGeometry relative="1" as="geometry">
            <Array as="points">
              <mxPoint x="120" y="333" />
              <mxPoint x="120" y="320" />
            </Array>
          </mxGeometry>
        </mxCell>
        <mxCell id="KwF7qSjg-g2GveLzDjzc-55" value="*" style="edgeLabel;html=1;align=center;verticalAlign=middle;resizable=0;points=[];" vertex="1" connectable="0" parent="PPDcGmR6esQbFbAN_n23-4">
          <mxGeometry x="0.7375" y="-1" relative="1" as="geometry">
            <mxPoint x="-5" y="-7" as="offset" />
          </mxGeometry>
        </mxCell>
        <mxCell id="KwF7qSjg-g2GveLzDjzc-56" value="1" style="edgeLabel;html=1;align=center;verticalAlign=middle;resizable=0;points=[];" vertex="1" connectable="0" parent="PPDcGmR6esQbFbAN_n23-4">
          <mxGeometry x="-0.6042" y="1" relative="1" as="geometry">
            <mxPoint y="-13" as="offset" />
          </mxGeometry>
        </mxCell>
        <mxCell id="73MkFgIrdXm32PAereVl-3" value="&amp;lt;&amp;lt;Aggregate Root&amp;gt;&amp;gt;&lt;br&gt;&amp;lt;&amp;lt;Entity&amp;gt;&amp;gt;&lt;br&gt;Order" style="rounded=1;whiteSpace=wrap;html=1;" parent="0Dk0NHJxLE5vuoeSpq4C-1" vertex="1">
          <mxGeometry x="160" y="320" width="115" height="50" as="geometry" />
        </mxCell>
        <mxCell id="73MkFgIrdXm32PAereVl-5" value="&amp;lt;&amp;lt;Value Object&amp;gt;&amp;gt;&lt;br&gt;Payment" style="rounded=1;whiteSpace=wrap;html=1;" parent="0Dk0NHJxLE5vuoeSpq4C-1" vertex="1">
          <mxGeometry x="300" y="390" width="100" height="50" as="geometry" />
        </mxCell>
        <mxCell id="KwF7qSjg-g2GveLzDjzc-33" style="edgeStyle=orthogonalEdgeStyle;rounded=0;orthogonalLoop=1;jettySize=auto;html=1;endArrow=none;endFill=0;startSize=7;endSize=12;entryX=0;entryY=1;entryDx=0;entryDy=0;exitX=1;exitY=0.5;exitDx=0;exitDy=0;" edge="1" parent="0Dk0NHJxLE5vuoeSpq4C-1" source="73MkFgIrdXm32PAereVl-6" target="73MkFgIrdXm32PAereVl-0">
          <mxGeometry relative="1" as="geometry">
            <mxPoint x="-60" y="430" as="targetPoint" />
            <Array as="points">
              <mxPoint x="6" y="550" />
            </Array>
          </mxGeometry>
        </mxCell>
        <mxCell id="73MkFgIrdXm32PAereVl-7" value="&amp;lt;&amp;lt;Aggregate Root&amp;gt;&amp;gt;&lt;br&gt;&amp;lt;&amp;lt;Entity&amp;gt;&amp;gt;&lt;br&gt;Payment" style="rounded=1;whiteSpace=wrap;html=1;" parent="0Dk0NHJxLE5vuoeSpq4C-1" vertex="1">
          <mxGeometry x="-180" y="500" width="120" height="60" as="geometry" />
        </mxCell>
        <mxCell id="KwF7qSjg-g2GveLzDjzc-51" style="edgeStyle=orthogonalEdgeStyle;rounded=0;orthogonalLoop=1;jettySize=auto;html=1;entryX=0;entryY=0.5;entryDx=0;entryDy=0;startArrow=none;startFill=0;endArrow=diamond;endFill=0;startSize=12;endSize=12;" edge="1" parent="0Dk0NHJxLE5vuoeSpq4C-1" source="73MkFgIrdXm32PAereVl-8" target="73MkFgIrdXm32PAereVl-7">
          <mxGeometry relative="1" as="geometry" />
        </mxCell>
        <mxCell id="KwF7qSjg-g2GveLzDjzc-65" value="1" style="edgeLabel;html=1;align=center;verticalAlign=middle;resizable=0;points=[];" vertex="1" connectable="0" parent="KwF7qSjg-g2GveLzDjzc-51">
          <mxGeometry x="-0.8457" relative="1" as="geometry">
            <mxPoint y="11" as="offset" />
          </mxGeometry>
        </mxCell>
        <mxCell id="KwF7qSjg-g2GveLzDjzc-66" value="*" style="edgeLabel;html=1;align=center;verticalAlign=middle;resizable=0;points=[];" vertex="1" connectable="0" parent="KwF7qSjg-g2GveLzDjzc-51">
          <mxGeometry x="0.7279" y="-3" relative="1" as="geometry">
            <mxPoint y="13" as="offset" />
          </mxGeometry>
        </mxCell>
        <mxCell id="73MkFgIrdXm32PAereVl-8" value="&amp;lt;&amp;lt;Value Object&amp;gt;&amp;gt;&lt;br&gt;PaymentType" style="rounded=1;whiteSpace=wrap;html=1;" parent="0Dk0NHJxLE5vuoeSpq4C-1" vertex="1">
          <mxGeometry x="-320" y="505" width="100" height="50" as="geometry" />
        </mxCell>
        <mxCell id="dfpDc2p-sg2IiYIkcYtB-0" value="&amp;lt;&amp;lt;Value Object&amp;gt;&amp;gt;&lt;br&gt;Product" style="rounded=1;whiteSpace=wrap;html=1;" parent="0Dk0NHJxLE5vuoeSpq4C-1" vertex="1">
          <mxGeometry x="-7.5" y="360" width="100" height="50" as="geometry" />
        </mxCell>
        <mxCell id="dfpDc2p-sg2IiYIkcYtB-6" value="Products Context" style="text;html=1;strokeColor=none;fillColor=none;align=center;verticalAlign=middle;whiteSpace=wrap;rounded=0;" parent="0Dk0NHJxLE5vuoeSpq4C-1" vertex="1">
          <mxGeometry x="105" y="60" width="110" height="20" as="geometry" />
        </mxCell>
        <mxCell id="dfpDc2p-sg2IiYIkcYtB-7" value="Orders Context" style="text;html=1;strokeColor=none;fillColor=none;align=center;verticalAlign=middle;whiteSpace=wrap;rounded=0;" parent="0Dk0NHJxLE5vuoeSpq4C-1" vertex="1">
          <mxGeometry x="135" y="257.5" width="110" height="20" as="geometry" />
        </mxCell>
        <mxCell id="dfpDc2p-sg2IiYIkcYtB-8" value="Wishlists Context" style="text;html=1;strokeColor=none;fillColor=none;align=center;verticalAlign=middle;whiteSpace=wrap;rounded=0;" parent="0Dk0NHJxLE5vuoeSpq4C-1" vertex="1">
          <mxGeometry x="660" y="220" width="110" height="20" as="geometry" />
        </mxCell>
        <mxCell id="dfpDc2p-sg2IiYIkcYtB-9" value="Carts Context" style="text;html=1;strokeColor=none;fillColor=none;align=center;verticalAlign=middle;whiteSpace=wrap;rounded=0;" parent="0Dk0NHJxLE5vuoeSpq4C-1" vertex="1">
          <mxGeometry x="505" y="20" width="110" height="20" as="geometry" />
        </mxCell>
        <mxCell id="dfpDc2p-sg2IiYIkcYtB-10" value="Customers Context" style="text;html=1;strokeColor=none;fillColor=none;align=center;verticalAlign=middle;whiteSpace=wrap;rounded=0;" parent="0Dk0NHJxLE5vuoeSpq4C-1" vertex="1">
          <mxGeometry x="620.5" y="505" width="110" height="20" as="geometry" />
        </mxCell>
        <mxCell id="dfpDc2p-sg2IiYIkcYtB-11" value="Payments Context" style="text;html=1;strokeColor=none;fillColor=none;align=center;verticalAlign=middle;whiteSpace=wrap;rounded=0;" parent="0Dk0NHJxLE5vuoeSpq4C-1" vertex="1">
          <mxGeometry x="-235" y="450" width="110" height="20" as="geometry" />
        </mxCell>
        <mxCell id="PPDcGmR6esQbFbAN_n23-1" value="Prescriptions Context" style="text;html=1;strokeColor=none;fillColor=none;align=center;verticalAlign=middle;whiteSpace=wrap;rounded=0;" parent="0Dk0NHJxLE5vuoeSpq4C-1" vertex="1">
          <mxGeometry x="-237.5" y="126.25" width="120" height="20" as="geometry" />
        </mxCell>
        <mxCell id="PPDcGmR6esQbFbAN_n23-2" value="&amp;lt;&amp;lt;Aggregate Root&amp;gt;&amp;gt;&lt;br&gt;&amp;lt;&amp;lt;Entity&amp;gt;&amp;gt;&lt;br&gt;Prescription" style="rounded=1;whiteSpace=wrap;html=1;" parent="0Dk0NHJxLE5vuoeSpq4C-1" vertex="1">
          <mxGeometry x="-236.25" y="182.5" width="117.5" height="67.5" as="geometry" />
        </mxCell>
        <mxCell id="PPDcGmR6esQbFbAN_n23-3" value="&amp;lt;&amp;lt;Value Object&amp;gt;&amp;gt;&lt;br&gt;Prescription" style="rounded=1;whiteSpace=wrap;html=1;" parent="0Dk0NHJxLE5vuoeSpq4C-1" vertex="1">
          <mxGeometry x="-10" y="295" width="102.5" height="50" as="geometry" />
        </mxCell>
        <mxCell id="KwF7qSjg-g2GveLzDjzc-34" style="edgeStyle=orthogonalEdgeStyle;rounded=0;orthogonalLoop=1;jettySize=auto;html=1;entryX=0.412;entryY=1;entryDx=0;entryDy=0;entryPerimeter=0;endArrow=none;endFill=0;startSize=7;endSize=12;" edge="1" parent="0Dk0NHJxLE5vuoeSpq4C-1" source="jsAOQpZQ9mrahlKDfA9K-3" target="73MkFgIrdXm32PAereVl-0">
          <mxGeometry relative="1" as="geometry" />
        </mxCell>
        <mxCell id="KwF7qSjg-g2GveLzDjzc-54" style="edgeStyle=orthogonalEdgeStyle;rounded=0;orthogonalLoop=1;jettySize=auto;html=1;entryX=0;entryY=1;entryDx=0;entryDy=0;startArrow=none;startFill=0;endArrow=none;endFill=0;startSize=12;endSize=12;" edge="1" parent="0Dk0NHJxLE5vuoeSpq4C-1" source="jsAOQpZQ9mrahlKDfA9K-3" target="keUvKWd-oPiuJBDlMkzL-0">
          <mxGeometry relative="1" as="geometry" />
        </mxCell>
        <mxCell id="jsAOQpZQ9mrahlKDfA9K-4" value="Deliveries Context" style="text;html=1;strokeColor=none;fillColor=none;align=center;verticalAlign=middle;whiteSpace=wrap;rounded=0;" parent="0Dk0NHJxLE5vuoeSpq4C-1" vertex="1">
          <mxGeometry x="90" y="590" width="120" height="20" as="geometry" />
        </mxCell>
        <mxCell id="jsAOQpZQ9mrahlKDfA9K-12" style="edgeStyle=orthogonalEdgeStyle;rounded=0;orthogonalLoop=1;jettySize=auto;html=1;entryX=0;entryY=0.5;entryDx=0;entryDy=0;startArrow=diamond;startFill=0;endArrow=none;endFill=0;exitX=1;exitY=0.5;exitDx=0;exitDy=0;startSize=12;" parent="0Dk0NHJxLE5vuoeSpq4C-1" source="jsAOQpZQ9mrahlKDfA9K-5" target="jsAOQpZQ9mrahlKDfA9K-6" edge="1">
          <mxGeometry relative="1" as="geometry">
            <Array as="points">
              <mxPoint x="150" y="665" />
              <mxPoint x="150" y="665" />
            </Array>
          </mxGeometry>
        </mxCell>
        <mxCell id="KwF7qSjg-g2GveLzDjzc-69" value="*" style="edgeLabel;html=1;align=center;verticalAlign=middle;resizable=0;points=[];" vertex="1" connectable="0" parent="jsAOQpZQ9mrahlKDfA9K-12">
          <mxGeometry x="-0.7333" y="-2" relative="1" as="geometry">
            <mxPoint x="4" y="13" as="offset" />
          </mxGeometry>
        </mxCell>
        <mxCell id="KwF7qSjg-g2GveLzDjzc-70" value="1" style="edgeLabel;html=1;align=center;verticalAlign=middle;resizable=0;points=[];" vertex="1" connectable="0" parent="jsAOQpZQ9mrahlKDfA9K-12">
          <mxGeometry x="0.8133" y="1" relative="1" as="geometry">
            <mxPoint y="11" as="offset" />
          </mxGeometry>
        </mxCell>
        <mxCell id="jsAOQpZQ9mrahlKDfA9K-5" value="&amp;lt;&amp;lt;Aggregate Root&amp;gt;&amp;gt;&lt;br&gt;&amp;lt;&amp;lt;Entity&amp;gt;&amp;gt;&lt;br&gt;Delivery" style="rounded=1;whiteSpace=wrap;html=1;" parent="0Dk0NHJxLE5vuoeSpq4C-1" vertex="1">
          <mxGeometry x="-7.5" y="640" width="135" height="50" as="geometry" />
        </mxCell>
        <mxCell id="jsAOQpZQ9mrahlKDfA9K-6" value="&amp;lt;&amp;lt;Value Object&amp;gt;&amp;gt;&lt;br&gt;Address" style="rounded=1;whiteSpace=wrap;html=1;" parent="0Dk0NHJxLE5vuoeSpq4C-1" vertex="1">
          <mxGeometry x="190" y="640" width="100" height="50" as="geometry" />
        </mxCell>
        <mxCell id="KwF7qSjg-g2GveLzDjzc-43" style="edgeStyle=orthogonalEdgeStyle;rounded=0;orthogonalLoop=1;jettySize=auto;html=1;entryX=0.25;entryY=1;entryDx=0;entryDy=0;endArrow=diamond;endFill=0;startSize=7;endSize=12;" edge="1" parent="0Dk0NHJxLE5vuoeSpq4C-1" source="jsAOQpZQ9mrahlKDfA9K-7" target="73MkFgIrdXm32PAereVl-3">
          <mxGeometry relative="1" as="geometry">
            <Array as="points">
              <mxPoint x="160" y="410" />
              <mxPoint x="189" y="410" />
              <mxPoint x="189" y="370" />
            </Array>
          </mxGeometry>
        </mxCell>
        <mxCell id="KwF7qSjg-g2GveLzDjzc-59" value="1" style="edgeLabel;html=1;align=center;verticalAlign=middle;resizable=0;points=[];" vertex="1" connectable="0" parent="KwF7qSjg-g2GveLzDjzc-43">
          <mxGeometry x="0.6927" y="-1" relative="1" as="geometry">
            <mxPoint x="10" y="5" as="offset" />
          </mxGeometry>
        </mxCell>
        <mxCell id="KwF7qSjg-g2GveLzDjzc-60" value="1" style="edgeLabel;html=1;align=center;verticalAlign=middle;resizable=0;points=[];" vertex="1" connectable="0" parent="KwF7qSjg-g2GveLzDjzc-43">
          <mxGeometry x="-0.8657" y="-1" relative="1" as="geometry">
            <mxPoint x="9" y="-3" as="offset" />
          </mxGeometry>
        </mxCell>
        <mxCell id="jsAOQpZQ9mrahlKDfA9K-7" value="&amp;lt;&amp;lt;Value Object&amp;gt;&amp;gt;&lt;br&gt;Delivery" style="rounded=1;whiteSpace=wrap;html=1;" parent="0Dk0NHJxLE5vuoeSpq4C-1" vertex="1">
          <mxGeometry x="110" y="440" width="100" height="50" as="geometry" />
        </mxCell>
        <mxCell id="KwF7qSjg-g2GveLzDjzc-50" style="edgeStyle=orthogonalEdgeStyle;rounded=0;orthogonalLoop=1;jettySize=auto;html=1;entryX=0.5;entryY=1;entryDx=0;entryDy=0;startArrow=none;startFill=0;endArrow=diamond;endFill=0;startSize=12;endSize=12;" edge="1" parent="0Dk0NHJxLE5vuoeSpq4C-1" source="LgSEAgrMi3Kk0_UKSRYB-1" target="73MkFgIrdXm32PAereVl-7">
          <mxGeometry relative="1" as="geometry">
            <Array as="points">
              <mxPoint x="-120" y="603" />
            </Array>
          </mxGeometry>
        </mxCell>
        <mxCell id="KwF7qSjg-g2GveLzDjzc-67" value="1" style="edgeLabel;html=1;align=center;verticalAlign=middle;resizable=0;points=[];" vertex="1" connectable="0" parent="KwF7qSjg-g2GveLzDjzc-50">
          <mxGeometry x="-0.9034" relative="1" as="geometry">
            <mxPoint y="7" as="offset" />
          </mxGeometry>
        </mxCell>
        <mxCell id="KwF7qSjg-g2GveLzDjzc-68" value="*" style="edgeLabel;html=1;align=center;verticalAlign=middle;resizable=0;points=[];" vertex="1" connectable="0" parent="KwF7qSjg-g2GveLzDjzc-50">
          <mxGeometry x="0.6148" relative="1" as="geometry">
            <mxPoint x="10" y="4" as="offset" />
          </mxGeometry>
        </mxCell>
        <mxCell id="LgSEAgrMi3Kk0_UKSRYB-1" value="&amp;lt;&amp;lt;Value Object&amp;gt;&amp;gt;&lt;br&gt;PaymentInfo" style="rounded=1;whiteSpace=wrap;html=1;" parent="0Dk0NHJxLE5vuoeSpq4C-1" vertex="1">
          <mxGeometry x="-262.5" y="577.5" width="100" height="50" as="geometry" />
        </mxCell>
        <mxCell id="KwF7qSjg-g2GveLzDjzc-2" value="Prescriptions Aggregate" style="text;html=1;align=center;verticalAlign=middle;resizable=0;points=[];autosize=1;strokeColor=none;" vertex="1" parent="0Dk0NHJxLE5vuoeSpq4C-1">
          <mxGeometry x="-270" y="150" width="140" height="20" as="geometry" />
        </mxCell>
        <mxCell id="KwF7qSjg-g2GveLzDjzc-6" value="Product Aggregate" style="text;html=1;align=center;verticalAlign=middle;resizable=0;points=[];autosize=1;strokeColor=none;" vertex="1" parent="0Dk0NHJxLE5vuoeSpq4C-1">
          <mxGeometry x="60" y="80" width="110" height="20" as="geometry" />
        </mxCell>
        <mxCell id="KwF7qSjg-g2GveLzDjzc-7" value="" style="verticalLabelPosition=bottom;verticalAlign=top;html=1;shape=mxgraph.basic.rect;fillColor2=none;strokeWidth=1;size=20;indent=5;fillColor=none;dashed=1;" vertex="1" parent="0Dk0NHJxLE5vuoeSpq4C-1">
          <mxGeometry x="410" y="40" width="340" height="90" as="geometry" />
        </mxCell>
        <mxCell id="KwF7qSjg-g2GveLzDjzc-8" value="Cart Aggregate" style="text;html=1;align=center;verticalAlign=middle;resizable=0;points=[];autosize=1;strokeColor=none;fillColor=#ffffff;" vertex="1" parent="0Dk0NHJxLE5vuoeSpq4C-1">
          <mxGeometry x="405" y="20" width="100" height="20" as="geometry" />
        </mxCell>
        <mxCell id="KwF7qSjg-g2GveLzDjzc-14" value="Wishlist Aggregate" style="text;html=1;align=center;verticalAlign=middle;resizable=0;points=[];autosize=1;strokeColor=none;fillColor=#ffffff;" vertex="1" parent="0Dk0NHJxLE5vuoeSpq4C-1">
          <mxGeometry x="570" y="255" width="110" height="20" as="geometry" />
        </mxCell>
        <mxCell id="keUvKWd-oPiuJBDlMkzL-5" style="edgeStyle=orthogonalEdgeStyle;rounded=0;orthogonalLoop=1;jettySize=auto;html=1;entryX=1;entryY=0.5;entryDx=0;entryDy=0;endArrow=diamond;endFill=0;startSize=7;endSize=12;exitX=0;exitY=0.5;exitDx=0;exitDy=0;" parent="0Dk0NHJxLE5vuoeSpq4C-1" source="keUvKWd-oPiuJBDlMkzL-4" target="keUvKWd-oPiuJBDlMkzL-3" edge="1">
          <mxGeometry relative="1" as="geometry">
            <Array as="points">
              <mxPoint x="725" y="595" />
              <mxPoint x="725" y="595" />
            </Array>
          </mxGeometry>
        </mxCell>
        <mxCell id="KwF7qSjg-g2GveLzDjzc-11" value="1" style="edgeLabel;html=1;align=center;verticalAlign=middle;resizable=0;points=[];" vertex="1" connectable="0" parent="keUvKWd-oPiuJBDlMkzL-5">
          <mxGeometry x="-0.8667" y="-1" relative="1" as="geometry">
            <mxPoint x="-4" y="12" as="offset" />
          </mxGeometry>
        </mxCell>
        <mxCell id="KwF7qSjg-g2GveLzDjzc-12" value="1" style="edgeLabel;html=1;align=center;verticalAlign=middle;resizable=0;points=[];" vertex="1" connectable="0" parent="keUvKWd-oPiuJBDlMkzL-5">
          <mxGeometry x="0.8" y="1" relative="1" as="geometry">
            <mxPoint x="9" y="10" as="offset" />
          </mxGeometry>
        </mxCell>
        <mxCell id="KwF7qSjg-g2GveLzDjzc-16" value="&amp;lt;&amp;lt;Aggregate Root&amp;gt;&amp;gt;&lt;br&gt;&amp;lt;&amp;lt;Entity&amp;gt;&amp;gt;&lt;br&gt;PaymentInfo" style="rounded=1;whiteSpace=wrap;html=1;" vertex="1" parent="0Dk0NHJxLE5vuoeSpq4C-1">
          <mxGeometry x="533.88" y="712.5" width="136.12" height="50" as="geometry" />
        </mxCell>
        <mxCell id="KwF7qSjg-g2GveLzDjzc-17" value="&amp;lt;&amp;lt;Value Object&amp;gt;&amp;gt;&lt;br&gt;Address" style="rounded=1;whiteSpace=wrap;html=1;" vertex="1" parent="0Dk0NHJxLE5vuoeSpq4C-1">
          <mxGeometry x="750.5" y="720" width="105" height="50" as="geometry" />
        </mxCell>
        <mxCell id="KwF7qSjg-g2GveLzDjzc-18" style="edgeStyle=orthogonalEdgeStyle;rounded=0;orthogonalLoop=1;jettySize=auto;html=1;endArrow=diamond;endFill=0;startSize=7;endSize=12;entryX=0.69;entryY=1.009;entryDx=0;entryDy=0;entryPerimeter=0;startArrow=none;" edge="1" parent="0Dk0NHJxLE5vuoeSpq4C-1" target="keUvKWd-oPiuJBDlMkzL-3">
          <mxGeometry relative="1" as="geometry">
            <Array as="points">
              <mxPoint x="800" y="670" />
              <mxPoint x="599" y="670" />
            </Array>
            <mxPoint x="800" y="720" as="sourcePoint" />
            <mxPoint x="732" y="675" as="targetPoint" />
          </mxGeometry>
        </mxCell>
        <mxCell id="KwF7qSjg-g2GveLzDjzc-20" value="1" style="edgeLabel;html=1;align=center;verticalAlign=middle;resizable=0;points=[];" vertex="1" connectable="0" parent="KwF7qSjg-g2GveLzDjzc-18">
          <mxGeometry x="0.8" y="1" relative="1" as="geometry">
            <mxPoint x="11" y="-13" as="offset" />
          </mxGeometry>
        </mxCell>
        <mxCell id="KwF7qSjg-g2GveLzDjzc-71" value="+" style="edgeLabel;html=1;align=center;verticalAlign=middle;resizable=0;points=[];" vertex="1" connectable="0" parent="KwF7qSjg-g2GveLzDjzc-18">
          <mxGeometry x="-0.9678" y="-1" relative="1" as="geometry">
            <mxPoint x="9" y="-35" as="offset" />
          </mxGeometry>
        </mxCell>
        <mxCell id="KwF7qSjg-g2GveLzDjzc-21" style="edgeStyle=orthogonalEdgeStyle;rounded=0;orthogonalLoop=1;jettySize=auto;html=1;endArrow=diamond;endFill=0;startSize=7;endSize=12;exitX=0;exitY=0.5;exitDx=0;exitDy=0;entryX=0;entryY=0.5;entryDx=0;entryDy=0;" edge="1" parent="0Dk0NHJxLE5vuoeSpq4C-1" source="KwF7qSjg-g2GveLzDjzc-16" target="keUvKWd-oPiuJBDlMkzL-3">
          <mxGeometry relative="1" as="geometry">
            <Array as="points">
              <mxPoint x="534" y="740" />
              <mxPoint x="470" y="740" />
              <mxPoint x="470" y="595" />
            </Array>
            <mxPoint x="810" y="685" as="sourcePoint" />
            <mxPoint x="742" y="685" as="targetPoint" />
          </mxGeometry>
        </mxCell>
        <mxCell id="KwF7qSjg-g2GveLzDjzc-22" value="*" style="edgeLabel;html=1;align=center;verticalAlign=middle;resizable=0;points=[];" vertex="1" connectable="0" parent="KwF7qSjg-g2GveLzDjzc-21">
          <mxGeometry x="-0.8667" y="-1" relative="1" as="geometry">
            <mxPoint x="-3" y="-7" as="offset" />
          </mxGeometry>
        </mxCell>
        <mxCell id="KwF7qSjg-g2GveLzDjzc-23" value="1" style="edgeLabel;html=1;align=center;verticalAlign=middle;resizable=0;points=[];" vertex="1" connectable="0" parent="KwF7qSjg-g2GveLzDjzc-21">
          <mxGeometry x="0.8" y="1" relative="1" as="geometry">
            <mxPoint x="6" y="12" as="offset" />
          </mxGeometry>
        </mxCell>
        <mxCell id="KwF7qSjg-g2GveLzDjzc-35" value="Customer Aggregate" style="text;html=1;align=center;verticalAlign=middle;resizable=0;points=[];autosize=1;strokeColor=none;fillColor=#ffffff;" vertex="1" parent="0Dk0NHJxLE5vuoeSpq4C-1">
          <mxGeometry x="485" y="535" width="130" height="20" as="geometry" />
        </mxCell>
        <mxCell id="KwF7qSjg-g2GveLzDjzc-37" value="PaymentInfo Aggregate" style="text;html=1;align=center;verticalAlign=middle;resizable=0;points=[];autosize=1;strokeColor=none;" vertex="1" parent="0Dk0NHJxLE5vuoeSpq4C-1">
          <mxGeometry x="510" y="680" width="140" height="20" as="geometry" />
        </mxCell>
        <mxCell id="KwF7qSjg-g2GveLzDjzc-39" value="Address Aggregate" style="text;html=1;align=center;verticalAlign=middle;resizable=0;points=[];autosize=1;strokeColor=none;fillColor=#ffffff;" vertex="1" parent="0Dk0NHJxLE5vuoeSpq4C-1">
          <mxGeometry x="720.5" y="687" width="120" height="20" as="geometry" />
        </mxCell>
        <mxCell id="KwF7qSjg-g2GveLzDjzc-46" value="Order Aggregate" style="text;html=1;align=center;verticalAlign=middle;resizable=0;points=[];autosize=1;strokeColor=none;fillColor=#ffffff;" vertex="1" parent="0Dk0NHJxLE5vuoeSpq4C-1">
          <mxGeometry x="-20" y="267.75" width="100" height="20" as="geometry" />
        </mxCell>
        <mxCell id="KwF7qSjg-g2GveLzDjzc-49" value="Payment Aggregate" style="text;html=1;align=center;verticalAlign=middle;resizable=0;points=[];autosize=1;strokeColor=none;fillColor=#ffffff;" vertex="1" parent="0Dk0NHJxLE5vuoeSpq4C-1">
          <mxGeometry x="-340" y="470" width="120" height="20" as="geometry" />
        </mxCell>
        <mxCell id="KwF7qSjg-g2GveLzDjzc-53" value="Delivery Aggregate" style="text;html=1;align=center;verticalAlign=middle;resizable=0;points=[];autosize=1;strokeColor=none;fillColor=#ffffff;" vertex="1" parent="0Dk0NHJxLE5vuoeSpq4C-1">
          <mxGeometry x="-30" y="612" width="120" height="20" as="geometry" />
        </mxCell>
      </root>
    </mxGraphModel>
  </diagram>
</mxfile>
